<svg xmlns="http://www.w3.org/2000/svg" fill="none" viewBox="0 0 286 286"><path fill="#FFA6B2" fill-rule="evenodd" d="M284.5 127.391c-5.41-50.856-37.55-93.733-82.1-114.312h-41.59l-8.9 54.536c37.81 9.47 58.2 30.378 67.06 67.926l65.52-8.15h.01Z" clip-rule="evenodd"/><path fill="#B3EDDF" fill-rule="evenodd" d="m77.02 269.331 13.85-79.464c-4.33-3.95-22.15 15.809-25.7 11.149H31v30.428c12.46 15.639 28.13 28.608 46.02 37.887Z" clip-rule="evenodd"/><path fill="#FFB985" fill-rule="evenodd" d="m284.59 128.371-74.22-3.69c.66 4.56 0 18.649 0 23.379 0 14.319 1.14 21.258-4.44 33.497l24.64 19.459h42.28c8-17.809 12.45-37.567 12.45-58.356 0-4.82-.24-9.589-.71-14.289Z" clip-rule="evenodd"/><path fill="#FFCBA9" fill-rule="evenodd" d="M248.71 111.702c-13.12 0-23.75 10.639-23.75 23.749v3.349c0 13.119 10.64 23.749 23.75 23.749s23.75-10.64 23.75-23.749v-3.349c0-13.12-10.63-23.749-23.75-23.749Z" clip-rule="evenodd"/><path fill="#68C180" fill-rule="evenodd" d="M278.76 185.517c-18.2 57.836-72.25 99.783-136.1 99.783-5.82 0-11.56-.35-17.2-1.03l8.26-68.075c5.47.96 16.11 2.45 21.42.26 28.13-11.609 31.23-16.029 53.94-37.938l69.67 7h.01Z" clip-rule="evenodd"/><path fill="#2E9C86" fill-rule="evenodd" d="M50.7 179.708c1.31 1.2 2.57 2.43 3.79 3.71-.57-1.22-1.12-2.46-1.65-3.71h-2.15.01Zm66.04 57.886c0 15.369-2.96 30.068-8.36 43.567-13.26-3.27-25.8-8.4-37.31-15.089-1.4-.82 1.58-9.85 1.93-11.309 4.66-19.279 10.26-38.998 11.38-58.876.13-2.33.76-7.67-.99-9.62 12.25 13.599 25.45 19.559 43.62 24.519 0 .58-10.27 26.228-10.27 26.808Z" clip-rule="evenodd"/><path fill="#98E1D0" fill-rule="evenodd" d="M9.8 194.716h32.34v-82.824H3.32A143.008 143.008 0 0 0 0 142.65c0 18.379 3.47 35.937 9.8 52.066Z" clip-rule="evenodd"/><path fill="#56B7B5" fill-rule="evenodd" d="M8.49 191.257c18.93-13.829 31.23-36.198 31.23-61.436 0-21.319-8.78-40.597-22.91-54.406a143.2 143.2 0 0 1 33.95-41.867c11.22 10.159 44 33.917 51.13 47.416-20.33 17.77-34.52 37.098-31.62 66.076 2.23 22.298 2.39 24.988 15.19 42.847-8.43 17.289-36.58 39.077-49.32 47.666A142.496 142.496 0 0 1 8.5 191.267l-.01-.01Z" clip-rule="evenodd"/><path fill="#8075B3" fill-rule="evenodd" d="M147.25.07c-1.53-.05-3.06-.07-4.6-.07C89.7 0 43.48 28.848 18.87 71.685h57.04c17.35-16.319 40.71-26.318 66.41-26.318 1.66 0 3.31.04 4.94.12V.06l-.01.01Z" clip-rule="evenodd"/><path fill="#549458" fill-rule="evenodd" d="M131.68 284.88c.15-16.539 13.91-57.456 21.39-71.005-.44 0-4.43 5.13-4.87 5.13-10.39 0-19.89-.82-29.28-3.85-6.13 13.809-16.25 48.357-17.04 64.235 9.55 2.84 19.53 4.71 29.8 5.5v-.01Zm150.63-112.872s-.02-.02-.04-.03a1.96 1.96 0 0 0-.14-.06c-.09-.04-.18-.09-.28-.13-.19-.09-.38-.17-.57-.26-.4-.18-.8-.35-1.21-.53-.43-.18-.86-.36-1.3-.53l-1.38-.54c-.48-.19-.97-.37-1.46-.55-.49-.18-1.02-.37-1.53-.55-.51-.18-1.07-.38-1.6-.56-.53-.18-1.11-.38-1.66-.56-.55-.18-1.15-.38-1.72-.56-.57-.18-1.18-.38-1.78-.57-.6-.19-1.22-.38-1.83-.57-.61-.19-1.25-.38-1.87-.56-.62-.18-1.27-.38-1.91-.56-.64-.18-1.3-.37-1.95-.56-.65-.19-1.32-.37-1.98-.55-.66-.18-1.33-.37-2-.55-.67-.179-1.35-.359-2.02-.539-.67-.18-1.36-.36-2.04-.53-.68-.17-1.37-.35-2.05-.52l-2.05-.51c-.68-.17-1.37-.34-2.06-.5-.69-.16-1.37-.33-2.05-.49-.68-.16-1.36-.32-2.04-.47-.68-.15-1.35-.31-2.03-.46-.68-.15-1.34-.3-2.01-.44-.66-.14-1.32-.28-1.99-.42-.67-.14-1.3-.27-1.96-.4-.66-.13-1.28-.26-1.92-.39-.64-.13-1.26-.24-1.89-.36-.63-.12-1.23-.23-1.84-.34-.61-.11-1.2-.21-1.8-.32-.6-.11-1.16-.2-1.74-.29-.58-.09-1.12-.18-1.68-.27-.56-.09-1.08-.16-1.62-.24-.54-.08-1.04-.15-1.55-.21s-.99-.13-1.48-.18c-.47-.05-.94-.11-1.41-.15-.44-.04-.88-.09-1.32-.12-.18-.01-.36-.03-.54-.04-1.92 10.569-4.04 22.209-9.08 31.278 5.29-.04 10.61 1.18 15.84 1.94 5.81.84 11.6 1.85 17.35 3.01 11.51 2.319 22.96 5.319 34.15 8.879.35.11 2.54-5.83 2.76-6.39 1.46-3.599 2.59-7.309 3.64-11.039.12 0 .64-2.29.71-2.56.24-.91.48-1.81.71-2.719.24-.96.43-1.93.65-2.9.02-.19.08-.38.13-.56.04-.2.09-.39.14-.59.09-.38.19-.76.28-1.15.02-.07.05-.14.02-.19v-.04Z" clip-rule="evenodd"/><path fill="#FF9852" fill-rule="evenodd" d="M284.25 125.221c-4.71-14.029-17.53-24.518-33.22-25.498-14.77-.92-28.75 7.2-35.6 19.249 2.26 11.519 3.78 23.168 3.02 35.437-.09 1.46-.49 2.54-.62 3.99 6.33 8.93 16.78 15.399 28.55 16.139 18.68 1.16 35.01-11.559 38.92-29.278-.02-6.749-.38-13.439-1.04-20.039h-.01Zm-12.12 13.37c-.8 12.939-11.94 22.768-24.88 21.968-12.94-.8-22.77-11.939-21.96-24.878.8-12.939 11.94-22.769 24.88-21.959 12.94.8 22.77 11.939 21.97 24.879l-.01-.01Z" clip-rule="evenodd"/><path fill="#825282" fill-rule="evenodd" d="M19.89 69.945C68.66 62.225 111.47 36.598 141.37.01h1.28c19.71 0 38.48 4 55.56 11.22-8.78 13.508-28.53 45.896-39.68 57.425-8.25-2.28-14.22.13-23.01 1.98-39.49 8.32-41.81 21.679-62.2 48.777-15.29 3.749-55.95 4.479-72.2 5.259a141.746 141.746 0 0 1 18.77-54.726Z" clip-rule="evenodd"/><path fill="#FF7A7F" fill-rule="evenodd" d="M273.53 85.784c-1.08.03-2.02.04-3.11.04-52.97 0-97.36-35.747-109.99-84.774 53.97 6.71 94.71 42.387 113.1 84.734Z" clip-rule="evenodd"/><path fill="#fff" d="M143.34 219.165c41.985 0 76.02-34.033 76.02-76.015s-34.035-76.015-76.02-76.015-76.02 34.033-76.02 76.015 34.035 76.015 76.02 76.015Z"/></svg>
