<svg xmlns="http://www.w3.org/2000/svg" fill="none" viewBox="0 0 235 235"><circle cx="117.5" cy="117.5" r="80.5" fill="#fff"/><path fill="#F59297" fill-rule="evenodd" d="M234.335 104.932c-4.455-41.893-30.925-77.21-67.62-94.16h-34.254v28.055c32.852 6.35 58.525 32.837 63.664 66.105h38.21Z" clip-rule="evenodd"/><path fill="#8FD1C1" fill-rule="evenodd" d="M63.438 221.851v-45.615a80.292 80.292 0 0 1-9.76-10.659H25.535v25.065a117.999 117.999 0 0 0 37.903 31.209Z" clip-rule="evenodd"/><path fill="#FABD84" fill-rule="evenodd" d="M234.418 105.729h-38.174c.541 3.752.821 7.588.821 11.49 0 11.796-2.558 22.995-7.15 33.072v15.285h34.831C231.334 150.901 235 134.628 235 117.499c0-3.972-.197-7.899-.582-11.77Z" clip-rule="evenodd"/><path fill="#FCC9B3" fill-rule="evenodd" d="M214.053 88.574c-9.365 0-16.956 7.592-16.956 16.957v2.394c0 9.364 7.591 16.956 16.956 16.956 9.365 0 16.957-7.592 16.957-16.956v-2.394c0-9.365-7.592-16.957-16.957-16.957Z" clip-rule="evenodd"/><path fill="#7FC78C" fill-rule="evenodd" d="M229.602 152.81C214.611 200.45 170.09 235 117.5 235c-4.793 0-9.52-.287-14.164-.845v-38.293a80.31 80.31 0 0 0 13.884 1.203c31.309 0 58.409-18.021 71.494-44.255h40.888Z" clip-rule="evenodd"/><path fill="#459789" fill-rule="evenodd" d="M41.763 148.022a67.52 67.52 0 0 1 3.124 3.055 78.782 78.782 0 0 1-1.355-3.055h-1.769ZM96.154 195.7c0 12.66-2.44 24.763-6.886 35.886a116.765 116.765 0 0 1-30.731-12.429 63.362 63.362 0 0 0-.666-48.522c10.09 11.202 23.305 19.533 38.273 23.619.007.481.01.963.01 1.446Z" clip-rule="evenodd"/><path fill="#9EC7D0" fill-rule="evenodd" d="M8.074 160.39h26.637V92.165H2.738A117.93 117.93 0 0 0 0 117.5c0 15.136 2.862 29.603 8.074 42.89Z" clip-rule="evenodd"/><path fill="#51797D" fill-rule="evenodd" d="M6.997 157.535c15.591-11.394 25.72-29.818 25.72-50.608 0-17.563-7.228-33.437-18.871-44.811a118.006 118.006 0 0 1 27.96-34.49A107.33 107.33 0 0 1 64.697 57.08C47.952 71.715 37.374 93.232 37.374 117.22c0 19.972 7.333 38.231 19.453 52.232a107.516 107.516 0 0 1-27.064 26.206 117.43 117.43 0 0 1-22.766-38.123Z" clip-rule="evenodd"/><path fill="#978AA4" fill-rule="evenodd" d="M121.29.06C120.032.02 118.768 0 117.5 0 73.885 0 35.82 23.763 15.547 59.05h46.978c14.289-13.44 33.53-21.676 54.695-21.676 1.365 0 2.722.035 4.07.102V.06Z" clip-rule="evenodd"/><path fill="#6D995C" fill-rule="evenodd" d="M108.466 234.658c.125-13.627 3.679-26.434 9.842-37.6a79.8 79.8 0 0 1-25.627-3.835 103.603 103.603 0 0 0-8.764 36.908 117.09 117.09 0 0 0 24.549 4.527Zm124.122-93.354a103.512 103.512 0 0 0-36.806-9.747 79.302 79.302 0 0 1-8.72 24.389c.286-.003.572-.005.859-.005 13.377 0 25.983 3.306 37.044 9.146a116.657 116.657 0 0 0 7.623-23.783Z" clip-rule="evenodd"/><path fill="#F47F5F" fill-rule="evenodd" d="M233.439 98.302c-3.172-7.811-10.835-13.319-19.785-13.319-8.426 0-15.713 4.883-19.183 11.974a79.964 79.964 0 0 1 2.594 20.263c0 .835-.013 1.666-.038 2.495 3.912 4.854 9.907 7.959 16.627 7.959 10.657 0 19.49-7.81 21.088-18.018-.253-3.838-.69-7.626-1.303-11.354Zm-6.419 8.027c0 7.382-5.984 13.366-13.366 13.366s-13.366-5.984-13.366-13.366 5.984-13.366 13.366-13.366 13.366 5.984 13.366 13.366Z" clip-rule="evenodd"/><path fill="#CE6564" fill-rule="evenodd" d="M222.648 65c-.801.023-1.604.034-2.41.034-39.222 0-72.179-26.822-81.53-63.125 36.845 6.717 67.694 30.616 83.94 63.091Z" clip-rule="evenodd"/><path fill="#845578" fill-rule="evenodd" d="M16.385 57.614c40.17-6.36 75.43-27.471 100.061-57.61.351-.002.702-.004 1.054-.004 16.233 0 31.697 3.292 45.761 9.244a206.423 206.423 0 0 1-24.692 31.016 79.93 79.93 0 0 0-21.349-2.886c-37.122 0-68.327 25.333-77.27 59.654a205.35 205.35 0 0 1-39.026 5.665 116.743 116.743 0 0 1 15.46-45.079Z" clip-rule="evenodd"/></svg>
