<svg width="523" height="387" viewBox="0 0 523 387" fill="none" xmlns="http://www.w3.org/2000/svg">
<rect width="522.667" height="386.133" rx="7.82222" fill="#8FD1C1"/>
<rect x="110.222" y="142.933" width="98.8444" height="100.267" rx="3.55556" fill="#F59297"/>
<rect x="244.622" y="142.934" width="123.022" height="17.0667" rx="3.55556" fill="#F59297"/>
<rect x="244.622" y="170.667" width="123.022" height="17.0667" rx="3.55556" fill="#F59297"/>
<rect x="244.622" y="198.4" width="123.022" height="17.0667" rx="3.55556" fill="#F59297"/>
<rect x="244.622" y="226.133" width="123.022" height="17.0667" rx="3.55556" fill="#F59297"/>
<rect x="378.311" y="226.133" width="34.1333" height="17.0667" rx="3.55556" fill="#F59297"/>
<rect x="378.311" y="198.4" width="34.1333" height="17.0667" rx="3.55556" fill="#F59297"/>
<rect x="378.311" y="170.667" width="34.1333" height="17.0667" rx="3.55556" fill="#F59297"/>
<rect x="378.311" y="142.933" width="34.1333" height="17.0667" rx="3.55556" fill="#F59297"/>
<path d="M226.133 281.6C226.133 280.029 227.407 278.756 228.978 278.756H295.045C296.615 278.756 297.889 280.029 297.889 281.6V301.511C297.889 303.082 296.615 304.356 295.045 304.356H228.978C227.407 304.356 226.133 303.082 226.133 301.511V281.6Z" fill="#CE6564"/>
<path d="M238.923 294.556C238.856 294.556 238.8 294.532 238.753 294.486C238.707 294.44 238.684 294.383 238.684 294.317V287.836C238.684 287.763 238.704 287.703 238.743 287.656C238.79 287.61 238.85 287.587 238.923 287.587H241.591C242.387 287.587 243.014 287.776 243.472 288.154C243.93 288.526 244.159 289.074 244.159 289.797C244.159 290.52 243.93 291.068 243.472 291.44C243.021 291.805 242.394 291.987 241.591 291.987H240.107V294.317C240.107 294.383 240.084 294.44 240.038 294.486C239.998 294.532 239.941 294.556 239.868 294.556H238.923ZM241.541 290.882C241.926 290.882 242.221 290.792 242.427 290.613C242.633 290.427 242.736 290.155 242.736 289.797C242.736 289.452 242.636 289.183 242.437 288.991C242.238 288.791 241.939 288.692 241.541 288.692H240.087V290.882H241.541ZM245.269 294.556C245.216 294.556 245.167 294.536 245.12 294.496C245.08 294.456 245.06 294.406 245.06 294.347L245.08 294.257L247.48 287.836C247.526 287.67 247.642 287.587 247.828 287.587H248.913C249.086 287.587 249.202 287.67 249.262 287.836L251.661 294.257C251.668 294.277 251.671 294.307 251.671 294.347C251.671 294.406 251.651 294.456 251.611 294.496C251.571 294.536 251.525 294.556 251.472 294.556H250.606C250.519 294.556 250.453 294.536 250.406 294.496C250.36 294.456 250.33 294.413 250.317 294.367L249.849 293.152H246.892L246.424 294.367C246.371 294.493 246.275 294.556 246.136 294.556H245.269ZM249.501 292.007L248.366 288.931L247.241 292.007H249.501ZM254.802 294.556C254.735 294.556 254.679 294.532 254.632 294.486C254.586 294.44 254.563 294.383 254.563 294.317V292.067L252.213 287.905C252.193 287.872 252.183 287.836 252.183 287.796C252.183 287.736 252.203 287.686 252.243 287.647C252.283 287.607 252.329 287.587 252.382 287.587H253.268C253.341 287.587 253.401 287.607 253.448 287.647C253.501 287.686 253.541 287.73 253.567 287.776L255.26 290.673L256.942 287.776C257.022 287.65 257.125 287.587 257.251 287.587H258.127C258.186 287.587 258.236 287.607 258.276 287.647C258.316 287.686 258.336 287.736 258.336 287.796C258.336 287.836 258.326 287.872 258.306 287.905L255.956 292.067V294.317C255.956 294.383 255.933 294.44 255.887 294.486C255.84 294.532 255.781 294.556 255.708 294.556H254.802ZM263.342 294.556C263.276 294.556 263.219 294.532 263.173 294.486C263.126 294.44 263.103 294.383 263.103 294.317V287.836C263.103 287.763 263.123 287.703 263.163 287.656C263.209 287.61 263.269 287.587 263.342 287.587H264.109C264.188 287.587 264.248 287.603 264.288 287.637C264.328 287.663 264.364 287.7 264.397 287.746L267.264 292.206V287.836C267.264 287.763 267.284 287.703 267.324 287.656C267.371 287.61 267.43 287.587 267.503 287.587H268.34C268.413 287.587 268.472 287.61 268.519 287.656C268.565 287.703 268.589 287.763 268.589 287.836V294.307C268.589 294.38 268.565 294.44 268.519 294.486C268.472 294.532 268.416 294.556 268.35 294.556H267.573C267.46 294.556 267.364 294.503 267.284 294.396L264.427 290.036V294.317C264.427 294.39 264.404 294.45 264.357 294.496C264.311 294.536 264.251 294.556 264.178 294.556H263.342ZM273.709 294.655C272.806 294.655 272.103 294.426 271.598 293.968C271.094 293.51 270.828 292.83 270.802 291.927C270.795 291.735 270.792 291.453 270.792 291.081C270.792 290.703 270.795 290.418 270.802 290.225C270.828 289.342 271.101 288.665 271.618 288.194C272.136 287.723 272.833 287.487 273.709 287.487C274.585 287.487 275.282 287.723 275.8 288.194C276.324 288.665 276.599 289.342 276.626 290.225C276.639 290.61 276.646 290.895 276.646 291.081C276.646 291.26 276.639 291.542 276.626 291.927C276.593 292.83 276.324 293.51 275.819 293.968C275.315 294.426 274.612 294.655 273.709 294.655ZM273.709 293.51C274.154 293.51 274.509 293.378 274.774 293.112C275.04 292.84 275.182 292.429 275.202 291.878C275.215 291.479 275.222 291.211 275.222 291.071C275.222 290.919 275.215 290.65 275.202 290.265C275.182 289.714 275.04 289.306 274.774 289.04C274.509 288.768 274.154 288.632 273.709 288.632C273.271 288.632 272.919 288.768 272.654 289.04C272.388 289.306 272.245 289.714 272.225 290.265C272.219 290.457 272.216 290.726 272.216 291.071C272.216 291.41 272.219 291.679 272.225 291.878C272.245 292.429 272.385 292.84 272.644 293.112C272.909 293.378 273.264 293.51 273.709 293.51ZM279.909 294.556C279.809 294.556 279.73 294.529 279.67 294.476C279.61 294.423 279.574 294.35 279.561 294.257L278.376 287.876L278.366 287.796C278.366 287.736 278.386 287.686 278.426 287.647C278.472 287.607 278.522 287.587 278.575 287.587H279.451C279.617 287.587 279.71 287.653 279.73 287.786L280.556 292.296L281.452 289.379C281.519 289.213 281.628 289.13 281.781 289.13H282.318C282.484 289.13 282.59 289.213 282.637 289.379L283.543 292.286L284.369 287.786C284.382 287.713 284.409 287.663 284.449 287.637C284.495 287.603 284.562 287.587 284.648 287.587H285.524C285.577 287.587 285.624 287.607 285.663 287.647C285.703 287.686 285.723 287.736 285.723 287.796C285.723 287.829 285.72 287.856 285.713 287.876L284.528 294.257C284.495 294.456 284.379 294.556 284.18 294.556H283.513C283.42 294.556 283.344 294.532 283.284 294.486C283.224 294.44 283.184 294.38 283.165 294.307L282.049 290.982L280.934 294.307C280.868 294.473 280.749 294.556 280.576 294.556H279.909Z" fill="white"/>
<path fill-rule="evenodd" clip-rule="evenodd" d="M7.11111 7.62939e-05C3.18375 7.62939e-05 0 3.18381 0 7.11117V379.022C0 382.95 3.18371 386.133 7.11107 386.133H515.556C519.483 386.133 522.667 382.95 522.667 379.022V7.11119C522.667 3.18383 519.483 7.62939e-05 515.556 7.62939e-05H7.11111ZM8.53338 14.2223C5.78423 14.2223 3.5556 16.451 3.5556 19.2001V377.6C3.5556 380.349 5.78423 382.578 8.53338 382.578H514.133C516.883 382.578 519.111 380.349 519.111 377.6V19.2001C519.111 16.451 516.883 14.2223 514.133 14.2223H8.53338Z" fill="#424242"/>
<circle cx="14.2224" cy="7.11135" r="4.26667" fill="#ED6A5F"/>
<circle cx="26.3112" cy="7.11135" r="4.26667" fill="#F4C04F"/>
<circle cx="38.4001" cy="7.11135" r="4.26667" fill="#61C754"/>
<path d="M226.976 12.0437C226.931 12.0437 226.891 12.0266 226.857 11.9925C226.823 11.9584 226.806 11.9186 226.806 11.873C226.806 11.8218 226.817 11.7763 226.84 11.7365L227.506 10.1578L225.867 6.29225C225.844 6.24105 225.833 6.20122 225.833 6.17278C225.839 6.12158 225.859 6.07891 225.893 6.04478C225.927 6.00496 225.97 5.98505 226.021 5.98505H226.712C226.82 5.98505 226.897 6.03909 226.942 6.14718L228.077 8.93758L229.246 6.14718C229.292 6.03909 229.369 5.98505 229.477 5.98505H230.159C230.205 5.98505 230.245 6.00211 230.279 6.03625C230.319 6.07038 230.339 6.1102 230.339 6.15571C230.339 6.19553 230.327 6.24105 230.304 6.29225L227.89 11.8816C227.838 11.9897 227.759 12.0437 227.651 12.0437H226.976ZM233.768 10.5077C233.102 10.5077 232.587 10.337 232.223 9.99571C231.859 9.64869 231.663 9.17651 231.634 8.57918L231.626 8.20371L231.634 7.82825C231.663 7.2366 231.862 6.76727 232.232 6.42025C232.601 6.07322 233.113 5.89971 233.768 5.89971C234.422 5.89971 234.934 6.07322 235.304 6.42025C235.673 6.76727 235.872 7.2366 235.901 7.82825C235.907 7.89651 235.909 8.02167 235.909 8.20371C235.909 8.38576 235.907 8.51091 235.901 8.57918C235.872 9.17651 235.676 9.64869 235.312 9.99571C234.948 10.337 234.433 10.5077 233.768 10.5077ZM233.768 9.66291C234.069 9.66291 234.302 9.56905 234.467 9.38131C234.632 9.18789 234.723 8.90629 234.74 8.53651C234.746 8.47962 234.749 8.36869 234.749 8.20371C234.749 8.03873 234.746 7.9278 234.74 7.87091C234.723 7.50113 234.632 7.22238 234.467 7.03465C234.302 6.84122 234.069 6.74451 233.768 6.74451C233.466 6.74451 233.233 6.84122 233.068 7.03465C232.903 7.22238 232.812 7.50113 232.795 7.87091L232.786 8.20371L232.795 8.53651C232.812 8.90629 232.903 9.18789 233.068 9.38131C233.233 9.56905 233.466 9.66291 233.768 9.66291ZM239.391 10.5077C238.867 10.5077 238.455 10.337 238.153 9.99571C237.852 9.64869 237.701 9.17936 237.701 8.58771V6.18985C237.701 6.13296 237.721 6.0846 237.761 6.04478C237.801 6.00496 237.849 5.98505 237.906 5.98505H238.657C238.719 5.98505 238.768 6.00496 238.802 6.04478C238.842 6.07891 238.862 6.12727 238.862 6.18985V8.53651C238.862 9.24193 239.172 9.59465 239.792 9.59465C240.088 9.59465 240.321 9.50078 240.492 9.31305C240.668 9.12531 240.756 8.86647 240.756 8.53651V6.18985C240.756 6.13296 240.776 6.0846 240.816 6.04478C240.856 6.00496 240.904 5.98505 240.961 5.98505H241.712C241.774 5.98505 241.823 6.00496 241.857 6.04478C241.897 6.07891 241.917 6.12727 241.917 6.18985V10.2176C241.917 10.2745 241.897 10.3228 241.857 10.3626C241.823 10.4025 241.774 10.4224 241.712 10.4224H241.021C240.964 10.4224 240.915 10.4025 240.876 10.3626C240.836 10.3228 240.816 10.2745 240.816 10.2176V9.86771C240.497 10.2944 240.022 10.5077 239.391 10.5077ZM244.137 10.4224C244.081 10.4224 244.032 10.4025 243.992 10.3626C243.953 10.3228 243.933 10.2745 243.933 10.2176V6.19838C243.933 6.14149 243.953 6.09313 243.992 6.05331C244.032 6.0078 244.081 5.98505 244.137 5.98505H244.829C244.891 5.98505 244.942 6.00496 244.982 6.04478C245.022 6.0846 245.042 6.1358 245.042 6.19838V6.54825C245.179 6.3662 245.349 6.22682 245.554 6.13011C245.764 6.0334 246.003 5.98505 246.271 5.98505H246.621C246.683 5.98505 246.732 6.00496 246.766 6.04478C246.806 6.07891 246.825 6.12727 246.825 6.18985V6.80425C246.825 6.86113 246.806 6.90949 246.766 6.94931C246.732 6.98913 246.683 7.00905 246.621 7.00905H245.955C245.688 7.00905 245.477 7.08585 245.324 7.23945C245.17 7.39305 245.093 7.60353 245.093 7.87091V10.2176C245.093 10.2745 245.073 10.3228 245.033 10.3626C244.994 10.4025 244.942 10.4224 244.88 10.4224H244.137ZM249.592 10.4224C249.518 10.4224 249.458 10.4053 249.412 10.3712C249.373 10.3314 249.338 10.2773 249.31 10.209L248.09 6.24958C248.084 6.23251 248.081 6.20691 248.081 6.17278C248.081 6.12158 248.098 6.07891 248.132 6.04478C248.172 6.00496 248.215 5.98505 248.26 5.98505H248.892C248.954 5.98505 249.006 6.00211 249.045 6.03625C249.085 6.07038 249.111 6.10736 249.122 6.14718L249.959 8.97171L250.846 6.17278C250.863 6.12158 250.892 6.07891 250.931 6.04478C250.977 6.00496 251.034 5.98505 251.102 5.98505H251.529C251.597 5.98505 251.651 6.00496 251.691 6.04478C251.736 6.07891 251.768 6.12158 251.785 6.17278L252.672 8.97171L253.508 6.14718C253.514 6.10736 253.537 6.07038 253.577 6.03625C253.622 6.00211 253.673 5.98505 253.73 5.98505H254.362C254.413 5.98505 254.456 6.00496 254.49 6.04478C254.53 6.07891 254.549 6.12158 254.549 6.17278L254.532 6.24958L253.312 10.209C253.289 10.2773 253.255 10.3314 253.21 10.3712C253.17 10.4053 253.113 10.4224 253.039 10.4224H252.484C252.337 10.4224 252.243 10.3513 252.203 10.209L251.315 7.51251L250.428 10.209C250.382 10.3513 250.286 10.4224 250.138 10.4224H249.592ZM257.424 10.5077C257.134 10.5077 256.866 10.4508 256.622 10.337C256.383 10.2176 256.192 10.0583 256.05 9.85918C255.914 9.66007 255.845 9.44105 255.845 9.20211C255.845 8.81527 256.002 8.50238 256.315 8.26345C256.628 8.02451 257.057 7.86238 257.603 7.77705L258.772 7.60638V7.42718C258.772 7.17687 258.71 6.98913 258.585 6.86398C258.459 6.73882 258.257 6.67625 257.979 6.67625C257.791 6.67625 257.637 6.71322 257.518 6.78718C257.404 6.85545 257.313 6.92371 257.245 6.99198C257.177 7.06593 257.131 7.11429 257.108 7.13705C257.085 7.20531 257.043 7.23945 256.98 7.23945H256.323C256.272 7.23945 256.226 7.22238 256.187 7.18825C256.153 7.15411 256.135 7.1086 256.135 7.05171C256.141 6.90949 256.209 6.74736 256.34 6.56531C256.477 6.38327 256.684 6.22682 256.963 6.09598C257.242 5.96513 257.583 5.89971 257.987 5.89971C258.658 5.89971 259.148 6.05047 259.455 6.35198C259.762 6.65349 259.916 7.04887 259.916 7.53811V10.2176C259.916 10.2745 259.896 10.3228 259.856 10.3626C259.822 10.4025 259.773 10.4224 259.711 10.4224H259.02C258.963 10.4224 258.914 10.4025 258.875 10.3626C258.835 10.3228 258.815 10.2745 258.815 10.2176V9.88478C258.69 10.0668 258.511 10.2176 258.277 10.337C258.05 10.4508 257.765 10.5077 257.424 10.5077ZM257.714 9.69705C258.027 9.69705 258.283 9.59465 258.482 9.38985C258.681 9.18505 258.781 8.88638 258.781 8.49385V8.31465L257.927 8.45118C257.597 8.50238 257.347 8.58487 257.177 8.69865C257.012 8.81242 256.929 8.9518 256.929 9.11678C256.929 9.29882 257.006 9.44105 257.159 9.54345C257.313 9.64585 257.498 9.69705 257.714 9.69705ZM262.113 10.4224C262.056 10.4224 262.007 10.4025 261.968 10.3626C261.928 10.3228 261.908 10.2745 261.908 10.2176V4.56851C261.908 4.50593 261.928 4.45758 261.968 4.42345C262.007 4.38362 262.056 4.36371 262.113 4.36371H262.821C262.884 4.36371 262.932 4.38362 262.966 4.42345C263.006 4.45758 263.026 4.50593 263.026 4.56851V10.2176C263.026 10.2745 263.006 10.3228 262.966 10.3626C262.932 10.4025 262.884 10.4224 262.821 10.4224H262.113ZM265.26 10.4224C265.203 10.4224 265.155 10.4025 265.115 10.3626C265.075 10.3228 265.055 10.2745 265.055 10.2176V4.56851C265.055 4.50593 265.075 4.45758 265.115 4.42345C265.155 4.38362 265.203 4.36371 265.26 4.36371H265.968C266.031 4.36371 266.079 4.38362 266.113 4.42345C266.153 4.45758 266.173 4.50593 266.173 4.56851V10.2176C266.173 10.2745 266.153 10.3228 266.113 10.3626C266.079 10.4025 266.031 10.4224 265.968 10.4224H265.26ZM270.105 10.5077C269.474 10.5077 268.97 10.3257 268.595 9.96158C268.225 9.5918 268.029 9.07411 268.006 8.40851L267.998 8.19518L268.006 7.98185C268.034 7.33331 268.234 6.82416 268.603 6.45438C268.979 6.0846 269.479 5.89971 270.105 5.89971C270.777 5.89971 271.294 6.10451 271.658 6.51411C272.028 6.92371 272.213 7.46985 272.213 8.15251V8.33171C272.213 8.3886 272.193 8.43696 272.153 8.47678C272.113 8.5166 272.062 8.53651 272 8.53651H269.167V8.60478C269.178 8.91767 269.263 9.1822 269.423 9.39838C269.588 9.60887 269.812 9.71411 270.097 9.71411C270.432 9.71411 270.703 9.58327 270.907 9.32158C270.959 9.259 270.998 9.21918 271.027 9.20211C271.061 9.18505 271.109 9.17651 271.172 9.17651H271.906C271.957 9.17651 272 9.19358 272.034 9.22771C272.074 9.25616 272.094 9.29313 272.094 9.33865C272.094 9.47518 272.011 9.63731 271.846 9.82505C271.687 10.0071 271.456 10.1664 271.155 10.3029C270.853 10.4394 270.503 10.5077 270.105 10.5077ZM271.052 7.81971V7.79411C271.052 7.45847 270.967 7.18825 270.796 6.98345C270.631 6.77865 270.401 6.67625 270.105 6.67625C269.809 6.67625 269.579 6.77865 269.414 6.98345C269.249 7.18825 269.167 7.45847 269.167 7.79411V7.81971H271.052ZM275.996 10.4224C275.479 10.4224 275.089 10.2887 274.827 10.0213C274.571 9.74825 274.443 9.35002 274.443 8.82665V6.88958H273.769C273.712 6.88958 273.664 6.86967 273.624 6.82985C273.584 6.78433 273.564 6.73313 273.564 6.67625V6.18985C273.564 6.13296 273.584 6.0846 273.624 6.04478C273.664 6.00496 273.712 5.98505 273.769 5.98505H274.443V4.56851C274.443 4.50593 274.463 4.45758 274.503 4.42345C274.543 4.38362 274.591 4.36371 274.648 4.36371H275.339C275.402 4.36371 275.45 4.38362 275.484 4.42345C275.524 4.45758 275.544 4.50593 275.544 4.56851V5.98505H276.611C276.673 5.98505 276.722 6.00496 276.756 6.04478C276.796 6.07891 276.816 6.12727 276.816 6.18985V6.67625C276.816 6.73882 276.796 6.79002 276.756 6.82985C276.716 6.86967 276.668 6.88958 276.611 6.88958H275.544V8.74131C275.544 8.98593 275.587 9.17082 275.672 9.29598C275.757 9.42113 275.9 9.48371 276.099 9.48371H276.688C276.744 9.48371 276.793 9.50362 276.833 9.54345C276.872 9.58327 276.892 9.63162 276.892 9.68851V10.2176C276.892 10.2745 276.872 10.3228 276.833 10.3626C276.798 10.4025 276.75 10.4224 276.688 10.4224H275.996ZM278.692 10.4224C278.635 10.4224 278.587 10.4025 278.547 10.3626C278.507 10.3228 278.487 10.2745 278.487 10.2176V9.37278C278.487 9.31589 278.507 9.26753 278.547 9.22771C278.587 9.1822 278.635 9.15945 278.692 9.15945H279.545C279.602 9.15945 279.65 9.1822 279.69 9.22771C279.73 9.26753 279.75 9.31589 279.75 9.37278V10.2176C279.75 10.2745 279.73 10.3228 279.69 10.3626C279.65 10.4025 279.602 10.4224 279.545 10.4224H278.692ZM283.299 10.5077C282.724 10.5077 282.284 10.3228 281.976 9.95305C281.669 9.58327 281.504 9.09118 281.481 8.47678L281.473 8.19518L281.481 7.92211C281.499 7.32478 281.661 6.83838 281.968 6.46291C282.281 6.08745 282.724 5.89971 283.299 5.89971C283.851 5.89971 284.289 6.08745 284.613 6.46291V4.56851C284.613 4.50593 284.633 4.45758 284.673 4.42345C284.713 4.38362 284.761 4.36371 284.818 4.36371H285.543C285.606 4.36371 285.654 4.38362 285.688 4.42345C285.728 4.45758 285.748 4.50593 285.748 4.56851V10.2176C285.748 10.2745 285.728 10.3228 285.688 10.3626C285.654 10.4025 285.606 10.4224 285.543 10.4224H284.869C284.812 10.4224 284.764 10.4025 284.724 10.3626C284.684 10.3228 284.664 10.2745 284.664 10.2176V9.90185C284.34 10.3058 283.885 10.5077 283.299 10.5077ZM283.615 9.59465C283.945 9.59465 284.189 9.4894 284.349 9.27891C284.508 9.06842 284.596 8.80958 284.613 8.50238C284.619 8.43411 284.622 8.32318 284.622 8.16958C284.622 8.02167 284.619 7.91358 284.613 7.84531C284.602 7.56087 284.511 7.31909 284.34 7.11998C284.175 6.91518 283.933 6.81278 283.615 6.81278C283 6.81278 282.673 7.19109 282.633 7.94771L282.625 8.20371L282.633 8.45971C282.673 9.21633 283 9.59465 283.615 9.59465ZM289.686 10.5077C289.054 10.5077 288.551 10.3257 288.175 9.96158C287.806 9.5918 287.609 9.07411 287.587 8.40851L287.578 8.19518L287.587 7.98185C287.615 7.33331 287.814 6.82416 288.184 6.45438C288.559 6.0846 289.06 5.89971 289.686 5.89971C290.357 5.89971 290.875 6.10451 291.239 6.51411C291.609 6.92371 291.794 7.46985 291.794 8.15251V8.33171C291.794 8.3886 291.774 8.43696 291.734 8.47678C291.694 8.5166 291.643 8.53651 291.58 8.53651H288.747V8.60478C288.759 8.91767 288.844 9.1822 289.003 9.39838C289.168 9.60887 289.393 9.71411 289.677 9.71411C290.013 9.71411 290.283 9.58327 290.488 9.32158C290.539 9.259 290.579 9.21918 290.607 9.20211C290.642 9.18505 290.69 9.17651 290.752 9.17651H291.486C291.538 9.17651 291.58 9.19358 291.614 9.22771C291.654 9.25616 291.674 9.29313 291.674 9.33865C291.674 9.47518 291.592 9.63731 291.427 9.82505C291.267 10.0071 291.037 10.1664 290.735 10.3029C290.434 10.4394 290.084 10.5077 289.686 10.5077ZM290.633 7.81971V7.79411C290.633 7.45847 290.548 7.18825 290.377 6.98345C290.212 6.77865 289.982 6.67625 289.686 6.67625C289.39 6.67625 289.16 6.77865 288.995 6.98345C288.83 7.18825 288.747 7.45847 288.747 7.79411V7.81971H290.633ZM295 10.4224C294.915 10.4224 294.849 10.4053 294.804 10.3712C294.758 10.3314 294.721 10.2773 294.693 10.209L293.097 6.24958L293.08 6.17278C293.08 6.12158 293.097 6.07891 293.131 6.04478C293.171 6.00496 293.217 5.98505 293.268 5.98505H293.959C294.067 5.98505 294.141 6.03909 294.181 6.14718L295.316 9.14238L296.451 6.14718C296.468 6.10736 296.493 6.07038 296.527 6.03625C296.567 6.00211 296.616 5.98505 296.673 5.98505H297.372C297.418 5.98505 297.458 6.00496 297.492 6.04478C297.532 6.07891 297.551 6.12158 297.551 6.17278C297.551 6.20691 297.549 6.23251 297.543 6.24958L295.939 10.209C295.91 10.2773 295.873 10.3314 295.828 10.3712C295.782 10.4053 295.717 10.4224 295.631 10.4224H295Z" fill="white"/>
</svg>
