<svg width="425" height="272" viewBox="0 0 425 272" fill="none" xmlns="http://www.w3.org/2000/svg">
<rect x="4.5" y="4.5" width="416" height="263" rx="22.5" fill="white"/>
<path d="M92.07 182.3C80.4567 182.3 71.6167 179.18 65.55 172.94C59.57 166.7 56.3633 158.077 55.93 147.07C55.8433 144.73 55.8 140.917 55.8 135.63C55.8 130.257 55.8433 126.357 55.93 123.93C56.3633 113.01 59.6133 104.43 65.68 98.19C71.7467 91.8633 80.5433 88.7 92.07 88.7C99.7833 88.7 106.327 90.0867 111.7 92.86C117.073 95.5467 121.147 99.1 123.92 103.52C126.693 107.94 128.21 112.663 128.47 117.69V117.95C128.47 118.643 128.167 119.25 127.56 119.77C127.04 120.203 126.433 120.42 125.74 120.42H118.59C116.857 120.42 115.773 119.423 115.34 117.43C113.867 110.93 111.223 106.38 107.41 103.78C103.597 101.093 98.4833 99.75 92.07 99.75C77.1633 99.75 69.45 108.027 68.93 124.58C68.8433 126.92 68.8 130.517 68.8 135.37C68.8 140.223 68.8433 143.907 68.93 146.42C69.45 162.973 77.1633 171.25 92.07 171.25C98.4833 171.25 103.597 169.95 107.41 167.35C111.31 164.663 113.953 160.07 115.34 153.57C115.6 152.443 115.99 151.663 116.51 151.23C117.03 150.797 117.723 150.58 118.59 150.58H125.74C126.52 150.58 127.17 150.84 127.69 151.36C128.297 151.793 128.557 152.4 128.47 153.18C128.21 158.293 126.693 163.06 123.92 167.48C121.147 171.9 117.073 175.497 111.7 178.27C106.327 180.957 99.7833 182.3 92.07 182.3ZM132.393 181C131.7 181 131.093 180.74 130.573 180.22C130.053 179.7 129.793 179.093 129.793 178.4C129.793 177.707 129.837 177.23 129.923 176.97L162.163 92.86C162.857 90.9533 164.243 90 166.323 90H175.163C177.243 90 178.63 90.9533 179.323 92.86L211.433 176.97L211.693 178.4C211.693 179.093 211.433 179.7 210.913 180.22C210.393 180.74 209.787 181 209.093 181H202.463C201.51 181 200.773 180.783 200.253 180.35C199.733 179.83 199.387 179.31 199.213 178.79L192.063 160.33H149.423L142.273 178.79C142.1 179.31 141.71 179.83 141.103 180.35C140.583 180.783 139.89 181 139.023 181H132.393ZM188.293 149.15L170.743 103L153.193 149.15H188.293ZM222.083 181C221.217 181 220.48 180.74 219.873 180.22C219.353 179.613 219.093 178.877 219.093 178.01V93.12C219.093 92.1667 219.353 91.43 219.873 90.91C220.48 90.3033 221.217 90 222.083 90H253.803C263.77 90 271.57 92.34 277.203 97.02C282.837 101.7 285.653 108.46 285.653 117.3C285.653 123.887 284.007 129.303 280.713 133.55C277.507 137.797 272.957 140.743 267.063 142.39L287.083 176.97C287.343 177.49 287.473 177.967 287.473 178.4C287.473 179.093 287.17 179.7 286.563 180.22C286.043 180.74 285.437 181 284.743 181H278.503C277.203 181 276.163 180.697 275.383 180.09C274.69 179.483 274.04 178.617 273.433 177.49L254.583 144.47H231.833V178.01C231.833 178.877 231.53 179.613 230.923 180.22C230.317 180.74 229.58 181 228.713 181H222.083ZM253.283 133.42C266.197 133.42 272.653 128.003 272.653 117.17C272.653 106.337 266.197 100.92 253.283 100.92H231.833V133.42H253.283ZM300.769 181C299.902 181 299.165 180.74 298.559 180.22C298.039 179.613 297.779 178.877 297.779 178.01V93.12C297.779 92.1667 298.039 91.43 298.559 90.91C299.165 90.3033 299.902 90 300.769 90H330.279C343.365 90 352.812 92.9467 358.619 98.84C364.425 104.647 367.459 113.443 367.719 125.23C367.805 127.743 367.849 131.123 367.849 135.37C367.849 139.617 367.805 143.04 367.719 145.64C367.459 153.873 366.072 160.59 363.559 165.79C361.132 170.903 357.275 174.717 351.989 177.23C346.702 179.743 339.682 181 330.929 181H300.769ZM330.279 169.95C336.259 169.95 340.982 169.127 344.449 167.48C348.002 165.833 350.559 163.233 352.119 159.68C353.765 156.04 354.675 151.187 354.849 145.12C355.022 139.92 355.109 136.67 355.109 135.37C355.109 133.983 355.022 130.777 354.849 125.75C354.675 117.17 352.639 110.93 348.739 107.03C344.839 103.043 338.469 101.05 329.629 101.05H310.519V169.95H330.279Z" fill="#3C4043"/>
<rect x="4.5" y="4.5" width="416" height="263" rx="22.5" stroke="#3C4043" stroke-width="9"/>
</svg>
