<svg width="425" height="272" viewBox="0 0 425 272" fill="none" xmlns="http://www.w3.org/2000/svg">
<rect x="4.5" y="4.5" width="416" height="263" rx="22.5" fill="white"/>
<path fill-rule="evenodd" clip-rule="evenodd" d="M157.689 130.117C155.604 110.508 143.213 93.9763 126.037 86.0425H110.003V99.1746C125.381 102.147 137.398 114.545 139.803 130.117H157.689Z" fill="#F59297"/>
<path fill-rule="evenodd" clip-rule="evenodd" d="M77.6945 184.845V163.493C76.0264 161.972 74.4965 160.302 73.126 158.504H59.9525V170.237C64.7548 176.267 70.7975 181.265 77.6945 184.845Z" fill="#8FD1C1"/>
<path fill-rule="evenodd" clip-rule="evenodd" d="M157.728 130.491H139.859C140.112 132.247 140.243 134.043 140.243 135.869C140.243 141.391 139.046 146.633 136.896 151.35V158.504H153.2C156.284 151.635 158 144.018 158 136C158 134.141 157.908 132.303 157.728 130.491Z" fill="#FABD84"/>
<path fill-rule="evenodd" clip-rule="evenodd" d="M148.195 122.46C143.812 122.46 140.258 126.014 140.258 130.397V131.518C140.258 135.902 143.812 139.455 148.195 139.455C152.579 139.455 156.132 135.902 156.132 131.518V130.397C156.132 126.014 152.579 122.46 148.195 122.46Z" fill="#FCC9B3"/>
<path fill-rule="evenodd" clip-rule="evenodd" d="M155.473 152.528C148.456 174.828 127.617 191 103 191C100.756 191 98.5436 190.866 96.3701 190.604V172.68C98.4807 173.05 100.652 173.243 102.869 173.243C117.524 173.243 130.209 164.808 136.334 152.528H155.473Z" fill="#7FC78C"/>
<path fill-rule="evenodd" clip-rule="evenodd" d="M67.5487 150.287C68.0523 150.748 68.54 151.225 69.0111 151.717C68.79 151.246 68.5785 150.769 68.3769 150.287H67.5487ZM93.0084 172.604C93.0084 178.53 91.8663 184.196 89.7852 189.402C84.671 188.141 79.8386 186.164 75.4001 183.584C76.7644 180.154 77.5076 176.446 77.5076 172.604C77.5076 168.479 76.651 164.509 75.0887 160.871C79.8112 166.115 85.9973 170.015 93.0035 171.927C93.0068 172.153 93.0084 172.378 93.0084 172.604Z" fill="#459789"/>
<path fill-rule="evenodd" clip-rule="evenodd" d="M51.7793 156.076H64.2479V124.141H49.2818C48.4424 127.96 48 131.928 48 136C48 143.085 49.3396 149.857 51.7793 156.076Z" fill="#9EC7D0"/>
<path fill-rule="evenodd" clip-rule="evenodd" d="M51.2751 154.74C58.5733 149.407 63.3141 140.782 63.3141 131.051C63.3141 122.83 59.9309 115.399 54.4809 110.075C57.7911 103.893 62.2485 98.417 67.5685 93.9316C71.8961 97.8485 75.5356 102.512 78.284 107.718C70.4457 114.569 65.4944 124.641 65.4944 135.869C65.4944 145.217 68.9268 153.764 74.6 160.318C71.1363 165.115 66.8435 169.274 61.9316 172.585C57.3255 167.418 53.6799 161.376 51.2751 154.74Z" fill="#51797D"/>
<path fill-rule="evenodd" clip-rule="evenodd" d="M104.774 81.0281C104.185 81.0094 103.594 81 103 81C82.5845 81 64.767 92.1233 55.2773 108.64H77.2671C83.9555 102.349 92.9621 98.4944 102.869 98.4944C103.508 98.4944 104.143 98.5104 104.774 98.5421V81.0281Z" fill="#978AA4"/>
<path fill-rule="evenodd" clip-rule="evenodd" d="M98.7712 190.84C98.8295 184.461 100.493 178.466 103.378 173.24C103.209 173.242 103.039 173.243 102.869 173.243C98.8614 173.243 95.0013 172.612 91.3824 171.445C89.0209 176.77 87.5854 182.596 87.2803 188.721C90.9636 189.817 94.8087 190.538 98.7712 190.84ZM156.871 147.142C151.583 144.628 145.77 143.037 139.642 142.58C138.904 146.653 137.505 150.497 135.561 153.996C135.695 153.994 135.828 153.994 135.963 153.994C142.225 153.994 148.125 155.541 153.303 158.275C154.868 154.744 156.073 151.017 156.871 147.142Z" fill="#6D995C"/>
<path fill-rule="evenodd" clip-rule="evenodd" d="M157.269 127.013C155.785 123.357 152.198 120.779 148.008 120.779C144.064 120.779 140.654 123.065 139.029 126.384C139.821 129.413 140.243 132.592 140.243 135.869C140.243 136.26 140.237 136.649 140.225 137.037C142.057 139.309 144.863 140.762 148.008 140.762C152.997 140.762 157.131 137.107 157.879 132.328C157.761 130.532 157.556 128.759 157.269 127.013ZM154.265 130.771C154.265 134.226 151.464 137.027 148.008 137.027C144.553 137.027 141.752 134.226 141.752 130.771C141.752 127.316 144.553 124.514 148.008 124.514C151.464 124.514 154.265 127.316 154.265 130.771Z" fill="#F47F5F"/>
<path fill-rule="evenodd" clip-rule="evenodd" d="M152.218 111.426C151.843 111.436 151.467 111.441 151.09 111.441C132.731 111.441 117.304 98.8862 112.927 81.8936C130.174 85.0374 144.613 96.2243 152.218 111.426Z" fill="#CE6564"/>
<path fill-rule="evenodd" clip-rule="evenodd" d="M55.6695 107.968C74.4723 104.991 90.9775 95.1094 102.507 81.0022C102.671 81.0007 102.835 81 103 81C110.598 81 117.837 82.5408 124.42 85.3271C121.036 90.5364 117.162 95.3977 112.862 99.8454C109.681 98.9649 106.33 98.4944 102.869 98.4944C85.4928 98.4944 70.8863 110.352 66.6999 126.417C60.8055 127.863 54.6976 128.766 48.4325 129.069C49.3919 121.439 51.9145 114.295 55.6695 107.968Z" fill="#845578"/>
<path d="M179.3 181C178.433 181 177.697 180.74 177.09 180.22C176.57 179.613 176.31 178.877 176.31 178.01V93.12C176.31 92.1667 176.57 91.43 177.09 90.91C177.697 90.3033 178.433 90 179.3 90H212.32C222.113 90 229.827 92.3833 235.46 97.15C241.093 101.917 243.91 108.807 243.91 117.82C243.91 126.833 241.093 133.723 235.46 138.49C229.913 143.17 222.2 145.51 212.32 145.51H189.31V178.01C189.31 178.877 189.007 179.613 188.4 180.22C187.793 180.74 187.057 181 186.19 181H179.3ZM211.67 134.59C217.997 134.59 222.763 133.16 225.97 130.3C229.263 127.44 230.91 123.28 230.91 117.82C230.91 112.36 229.307 108.2 226.1 105.34C222.893 102.393 218.083 100.92 211.67 100.92H189.18V134.59H211.67ZM269.109 182.3C264.862 182.3 260.919 181.433 257.279 179.7C253.639 177.967 250.735 175.627 248.569 172.68C246.489 169.647 245.449 166.31 245.449 162.67C245.449 156.95 247.789 152.27 252.469 148.63C257.235 144.903 263.649 142.477 271.709 141.35L291.079 138.62V134.85C291.079 126.01 286.009 121.59 275.869 121.59C272.055 121.59 268.935 122.413 266.509 124.06C264.082 125.62 262.262 127.483 261.049 129.65C260.789 130.43 260.442 130.993 260.009 131.34C259.662 131.687 259.142 131.86 258.449 131.86H252.859C252.079 131.86 251.385 131.6 250.779 131.08C250.259 130.473 249.999 129.78 249.999 129C250.085 126.92 251.039 124.58 252.859 121.98C254.765 119.293 257.669 116.997 261.569 115.09C265.469 113.097 270.279 112.1 275.999 112.1C285.705 112.1 292.682 114.397 296.929 118.99C301.175 123.497 303.299 129.13 303.299 135.89V178.01C303.299 178.877 302.995 179.613 302.389 180.22C301.869 180.74 301.175 181 300.309 181H294.329C293.462 181 292.725 180.74 292.119 180.22C291.599 179.613 291.339 178.877 291.339 178.01V172.42C289.432 175.193 286.659 177.533 283.019 179.44C279.379 181.347 274.742 182.3 269.109 182.3ZM271.839 172.55C277.472 172.55 282.065 170.73 285.619 167.09C289.259 163.363 291.079 158.033 291.079 151.1V147.46L275.999 149.67C269.845 150.537 265.209 152.01 262.089 154.09C258.969 156.083 257.409 158.64 257.409 161.76C257.409 165.227 258.839 167.913 261.699 169.82C264.559 171.64 267.939 172.55 271.839 172.55ZM325.921 205.7C325.227 205.7 324.621 205.44 324.101 204.92C323.581 204.4 323.321 203.793 323.321 203.1C323.321 202.493 323.537 201.713 323.971 200.76L333.981 176.97L309.151 118.34C308.717 117.213 308.501 116.477 308.501 116.13C308.501 115.35 308.761 114.7 309.281 114.18C309.801 113.66 310.451 113.4 311.231 113.4H317.601C318.987 113.4 320.027 114.137 320.721 115.61L340.481 162.93L360.761 115.61C361.454 114.137 362.537 113.4 364.011 113.4H370.121C370.901 113.4 371.551 113.66 372.071 114.18C372.591 114.7 372.851 115.307 372.851 116C372.851 116.26 372.634 117.04 372.201 118.34L335.281 203.49C334.587 204.963 333.504 205.7 332.031 205.7H325.921Z" fill="#1E3250"/>
<rect x="4.5" y="4.5" width="416" height="263" rx="22.5" stroke="#1E3250" stroke-width="9"/>
</svg>
