<svg width="425" height="272" viewBox="0 0 425 272" fill="none" xmlns="http://www.w3.org/2000/svg">
<rect x="4.5" y="4.5" width="416" height="263" rx="22.5" fill="white"/>
<path fill-rule="evenodd" clip-rule="evenodd" d="M292.048 127.443C289.015 98.9202 270.992 74.8745 246.008 63.3345H222.687V82.4358C245.054 86.7592 262.534 104.793 266.032 127.443H292.048Z" fill="#F59297"/>
<path fill-rule="evenodd" clip-rule="evenodd" d="M175.692 207.048V175.99C173.266 173.778 171.04 171.349 169.047 168.733H149.885V185.799C156.87 194.57 165.66 201.84 175.692 207.048Z" fill="#8FD1C1"/>
<path fill-rule="evenodd" clip-rule="evenodd" d="M292.104 127.986H266.113C266.481 130.541 266.672 133.153 266.672 135.809C266.672 143.841 264.93 151.466 261.804 158.326V168.733H285.518C290.004 158.742 292.5 147.662 292.5 136C292.5 133.295 292.366 130.622 292.104 127.986Z" fill="#FABD84"/>
<path fill-rule="evenodd" clip-rule="evenodd" d="M278.239 116.306C271.862 116.306 266.694 121.475 266.694 127.851V129.481C266.694 135.857 271.862 141.026 278.239 141.026C284.615 141.026 289.784 135.857 289.784 129.481V127.851C289.784 121.475 284.615 116.306 278.239 116.306Z" fill="#FCC9B3"/>
<path fill-rule="evenodd" clip-rule="evenodd" d="M288.825 160.041C278.618 192.477 248.306 216 212.5 216C209.236 216 206.018 215.805 202.857 215.425V189.353C205.927 189.891 209.085 190.172 212.309 190.172C233.626 190.172 252.077 177.903 260.986 160.041H288.825Z" fill="#7FC78C"/>
<path fill-rule="evenodd" clip-rule="evenodd" d="M161.05 156.934C161.758 157.588 162.444 158.263 163.108 158.959C162.793 158.291 162.491 157.616 162.203 156.934H161.05ZM197.967 189.243C197.967 197.862 196.306 206.103 193.279 213.676C185.828 211.838 178.789 208.957 172.325 205.196C174.307 200.212 175.386 194.825 175.386 189.243C175.386 183.212 174.126 177.41 171.83 172.097C178.709 179.765 187.734 185.467 197.96 188.258C197.965 188.586 197.967 188.914 197.967 189.243Z" fill="#459789"/>
<path fill-rule="evenodd" clip-rule="evenodd" d="M137.997 165.202H156.133V118.75H134.364C133.144 124.306 132.5 130.078 132.5 136C132.5 146.305 134.448 156.155 137.997 165.202Z" fill="#9EC7D0"/>
<path fill-rule="evenodd" clip-rule="evenodd" d="M137.248 163.213C147.846 155.463 154.729 142.936 154.729 128.801C154.729 116.861 149.818 106.068 141.904 98.3333C146.722 89.3236 153.213 81.3438 160.963 74.8096C167.258 80.5068 172.552 87.2895 176.55 94.8623C165.148 104.827 157.947 119.477 157.947 135.809C157.947 149.407 162.939 161.839 171.191 171.371C166.153 178.349 159.909 184.399 152.764 189.214C146.054 181.687 140.745 172.883 137.248 163.213Z" fill="#51797D"/>
<path fill-rule="evenodd" clip-rule="evenodd" d="M215.081 56.0408C214.224 56.0137 213.364 56 212.5 56C182.805 56 156.888 72.1794 143.085 96.2037H175.07C184.799 87.053 197.899 81.4464 212.309 81.4464C213.239 81.4464 214.163 81.4697 215.081 81.5158V56.0408Z" fill="#978AA4"/>
<path fill-rule="evenodd" clip-rule="evenodd" d="M206.374 215.769C206.459 206.49 208.881 197.769 213.08 190.167C212.823 190.17 212.566 190.172 212.309 190.172C206.48 190.172 200.866 189.255 195.602 187.556C192.167 195.301 190.079 203.777 189.635 212.685C195 214.282 200.602 215.332 206.374 215.769ZM290.857 152.207C283.166 148.549 274.712 146.236 265.798 145.571C264.722 151.506 262.682 157.105 259.847 162.201C260.046 162.199 260.246 162.198 260.446 162.198C269.55 162.198 278.129 164.448 285.657 168.423C287.94 163.28 289.696 157.852 290.857 152.207Z" fill="#6D995C"/>
<path fill-rule="evenodd" clip-rule="evenodd" d="M291.437 122.929C289.278 117.611 284.06 113.861 277.967 113.861C272.23 113.861 267.269 117.185 264.906 122.013C266.058 126.419 266.672 131.042 266.672 135.809C266.672 136.378 266.663 136.944 266.646 137.508C269.31 140.813 273.392 142.927 277.967 142.927C285.223 142.927 291.237 137.61 292.325 130.659C292.152 128.046 291.855 125.467 291.437 122.929ZM287.059 128.394C287.059 133.415 282.988 137.486 277.967 137.486C272.946 137.486 268.875 133.415 268.875 128.394C268.875 123.373 272.946 119.302 277.967 119.302C282.988 119.302 287.059 123.373 287.059 128.394Z" fill="#F47F5F"/>
<path fill-rule="evenodd" clip-rule="evenodd" d="M284.09 100.255C283.545 100.271 282.998 100.279 282.449 100.279C255.745 100.279 233.306 82.0165 226.94 57.2998C252.025 61.8727 273.029 78.1446 284.09 100.255Z" fill="#CE6564"/>
<path fill-rule="evenodd" clip-rule="evenodd" d="M143.685 95.1768C170.996 90.8428 194.97 76.4905 211.724 56.0037C211.983 56.0012 212.241 56 212.5 56C223.552 56 234.081 58.2412 243.657 62.294C238.735 69.8712 233.099 76.9421 226.845 83.4114C222.218 82.1307 217.344 81.4464 212.309 81.4464C187.035 81.4464 165.789 98.694 159.7 122.061C151.126 124.165 142.242 125.478 133.129 125.919C134.527 114.8 138.207 104.391 143.685 95.1768Z" fill="#845578"/>
<rect x="4.5" y="4.5" width="416" height="263" rx="22.5" stroke="#1E3250" stroke-width="9"/>
</svg>
