<svg width="1620" height="245" viewBox="0 0 1620 245" fill="none" xmlns="http://www.w3.org/2000/svg">
<path fill-rule="evenodd" clip-rule="evenodd" d="M244.308 109.397C239.663 65.7216 212.066 28.9016 173.81 11.231H138.099V40.4798C172.348 47.1 199.114 74.7144 204.471 109.397H244.308Z" fill="#F59297"/>
<path fill-rule="evenodd" clip-rule="evenodd" d="M66.1375 231.292V183.735C62.4223 180.347 59.015 176.628 55.9625 172.623H26.6214V198.754C37.3173 212.185 50.776 223.318 66.1375 231.292Z" fill="#8FD1C1"/>
<path fill-rule="evenodd" clip-rule="evenodd" d="M244.393 110.229L204.595 110.229C205.159 114.141 205.451 118.14 205.451 122.208C205.451 134.506 202.784 146.182 197.997 156.688V172.623H234.309C241.179 157.323 245 140.358 245 122.5C245 118.359 244.794 114.265 244.393 110.229Z" fill="#FABD84"/>
<path fill-rule="evenodd" clip-rule="evenodd" d="M223.162 92.343C213.399 92.343 205.484 100.258 205.484 110.021V112.517C205.484 122.28 213.399 130.195 223.162 130.195C232.926 130.195 240.84 122.28 240.84 112.517V110.021C240.84 100.258 232.926 92.343 223.162 92.343Z" fill="#FCC9B3"/>
<path fill-rule="evenodd" clip-rule="evenodd" d="M239.372 159.312C223.743 208.98 177.328 245 122.5 245C117.502 245 112.574 244.701 107.733 244.119V204.197C112.434 205.021 117.271 205.451 122.208 205.451C154.849 205.451 183.103 186.664 196.744 159.312H239.372Z" fill="#7FC78C"/>
<path fill-rule="evenodd" clip-rule="evenodd" d="M43.5403 154.321C44.662 155.349 45.7482 156.411 46.7974 157.506C46.3051 156.456 45.8341 155.394 45.3848 154.321H43.5403ZM100.246 204.028C100.246 217.226 97.7022 229.845 93.067 241.441C81.6764 238.632 70.9133 234.229 61.0276 228.483C64.0663 220.843 65.7215 212.585 65.7215 204.028C65.7215 194.84 63.8136 185.998 60.3339 177.896C70.8524 189.575 84.6304 198.261 100.235 202.52C100.242 203.022 100.246 203.524 100.246 204.028Z" fill="#459789"/>
<path fill-rule="evenodd" clip-rule="evenodd" d="M8.41755 167.216H36.1885V96.0867H2.85487C0.985365 104.594 0 113.432 0 122.5C0 138.28 2.98364 153.363 8.41755 167.216Z" fill="#9EC7D0"/>
<path fill-rule="evenodd" clip-rule="evenodd" d="M7.29462 164.239C23.5495 152.36 34.1087 133.152 34.1087 111.477C34.1087 93.1671 26.5734 76.6171 14.4347 64.759C21.8075 50.9892 31.7353 38.7925 43.5843 28.8025C53.2231 37.5264 61.3293 47.9123 67.4508 59.5081C49.9927 74.7672 38.9648 97.1997 38.9648 122.208C38.9648 143.03 46.6095 162.066 59.2453 176.663C51.5309 187.348 41.9696 196.611 31.0293 203.984C20.7704 192.476 12.6508 179.02 7.29462 164.239Z" fill="#51797D"/>
<path fill-rule="evenodd" clip-rule="evenodd" d="M126.452 0.0625289C125.14 0.0209476 123.822 0 122.5 0C77.0291 0 37.3446 24.7747 16.2085 61.562H65.1857C80.0826 47.5499 100.143 38.9648 122.208 38.9648C123.631 38.9648 125.046 39.0005 126.452 39.0711V0.0625289Z" fill="#978AA4"/>
<path fill-rule="evenodd" clip-rule="evenodd" d="M113.081 244.643C113.211 230.437 116.917 217.084 123.343 205.443C122.965 205.448 122.587 205.451 122.208 205.451C113.282 205.451 104.685 204.046 96.6245 201.446C91.3648 213.305 88.1676 226.283 87.4879 239.924C95.6918 242.366 104.256 243.972 113.081 244.643ZM242.485 147.317C230.707 141.716 217.761 138.174 204.112 137.155C202.467 146.228 199.352 154.789 195.022 162.582C195.32 162.579 195.618 162.577 195.917 162.577C209.864 162.577 223.006 166.024 234.538 172.112C238.025 164.248 240.709 155.948 242.485 147.317Z" fill="#6D995C"/>
<path fill-rule="evenodd" clip-rule="evenodd" d="M243.373 102.485C240.066 94.3415 232.077 88.5994 222.746 88.5994C213.961 88.5994 206.365 93.6899 202.747 101.082C204.511 107.828 205.451 114.908 205.451 122.208C205.451 123.078 205.438 123.945 205.411 124.809C209.49 129.869 215.74 133.107 222.746 133.107C233.857 133.107 243.066 124.965 244.731 114.322C244.468 110.32 244.012 106.372 243.373 102.485ZM236.681 110.853C236.681 118.549 230.442 124.788 222.746 124.788C215.05 124.788 208.812 118.549 208.812 110.853C208.812 103.157 215.05 96.9186 222.746 96.9186C230.442 96.9186 236.681 103.157 236.681 110.853Z" fill="#F47F5F"/>
<path fill-rule="evenodd" clip-rule="evenodd" d="M232.122 67.7661C231.287 67.7895 230.45 67.8013 229.609 67.8013C188.719 67.8013 154.359 39.8376 144.611 1.99023C183.023 8.99244 215.184 33.9087 232.122 67.7661Z" fill="#CE6564"/>
<path fill-rule="evenodd" clip-rule="evenodd" d="M17.0822 60.0659C58.961 53.4344 95.7226 31.4254 121.401 0.00482571C121.767 0.0016108 122.133 0 122.5 0C139.424 0 155.546 3.43186 170.208 9.63762C162.672 21.2403 154.042 32.0676 144.466 41.9737C137.381 40.0127 129.917 38.9648 122.208 38.9648C83.5067 38.9648 50.974 65.3753 41.6497 101.156C28.5213 104.377 14.9175 106.388 0.963318 107.063C3.1002 90.0682 8.71877 74.1568 17.0822 60.0659Z" fill="#845578"/>
<path d="M356.02 185.8C340.3 185.8 328.12 181.72 319.48 173.56C310.96 165.28 306.46 152.86 305.98 136.3C305.86 132.7 305.8 127.6 305.8 121C305.8 114.4 305.86 109.36 305.98 105.88C306.46 89.68 311.14 77.38 320.02 68.98C328.9 60.46 340.9 56.2 356.02 56.2C371.02 56.2 382.96 60.46 391.84 68.98C400.72 77.38 405.4 89.68 405.88 105.88C406.12 112.84 406.24 117.88 406.24 121C406.24 124 406.12 129.1 405.88 136.3C405.4 152.86 400.84 165.28 392.2 173.56C383.68 181.72 371.62 185.8 356.02 185.8ZM356.02 170.5C365.5 170.5 373.06 167.62 378.7 161.86C384.34 156.1 387.4 147.28 387.88 135.4C388.12 128.2 388.24 123.4 388.24 121C388.24 118.36 388.12 113.56 387.88 106.6C387.4 94.72 384.28 85.9 378.52 80.14C372.88 74.38 365.38 71.5 356.02 71.5C346.54 71.5 338.92 74.38 333.16 80.14C327.52 85.9 324.46 94.72 323.98 106.6C323.86 110.08 323.8 114.88 323.8 121C323.8 127 323.86 131.8 323.98 135.4C324.46 147.28 327.52 156.1 333.16 161.86C338.92 167.62 346.54 170.5 356.02 170.5ZM434.456 218.2C433.256 218.2 432.236 217.78 431.396 216.94C430.676 216.22 430.316 215.26 430.316 214.06V94.54C430.316 93.34 430.676 92.38 431.396 91.66C432.236 90.82 433.256 90.4 434.456 90.4H442.736C443.936 90.4 444.896 90.82 445.616 91.66C446.456 92.38 446.876 93.34 446.876 94.54V102.46C453.596 93.22 463.436 88.6 476.396 88.6C488.996 88.6 498.416 92.56 504.656 100.48C511.016 108.4 514.436 118.6 514.916 131.08C515.036 132.4 515.096 134.44 515.096 137.2C515.096 139.96 515.036 142 514.916 143.32C514.436 155.68 511.016 165.88 504.656 173.92C498.296 181.84 488.876 185.8 476.396 185.8C463.916 185.8 454.196 181.3 447.236 172.3V214.06C447.236 215.26 446.876 216.22 446.156 216.94C445.436 217.78 444.476 218.2 443.276 218.2H434.456ZM472.616 171.22C481.136 171.22 487.316 168.58 491.156 163.3C495.116 158.02 497.276 151.06 497.636 142.42C497.756 141.22 497.816 139.48 497.816 137.2C497.816 114.52 489.416 103.18 472.616 103.18C464.336 103.18 458.096 105.94 453.896 111.46C449.816 116.86 447.596 123.34 447.236 130.9L447.056 137.74L447.236 144.76C447.476 151.84 449.756 158.02 454.076 163.3C458.396 168.58 464.576 171.22 472.616 171.22ZM574.803 185.8C562.443 185.8 552.543 182.02 545.103 174.46C537.783 166.78 533.763 156.34 533.043 143.14L532.863 137.02L533.043 131.08C533.883 118.12 537.963 107.8 545.283 100.12C552.723 92.44 562.503 88.6 574.623 88.6C587.943 88.6 598.263 92.86 605.583 101.38C612.903 109.78 616.563 121.18 616.563 135.58V138.64C616.563 139.84 616.143 140.86 615.303 141.7C614.583 142.42 613.623 142.78 612.423 142.78H550.143V144.4C550.503 152.2 552.843 158.86 557.163 164.38C561.603 169.78 567.423 172.48 574.623 172.48C580.143 172.48 584.643 171.4 588.123 169.24C591.723 166.96 594.363 164.62 596.043 162.22C597.123 160.78 597.903 159.94 598.383 159.7C598.983 159.34 600.003 159.16 601.443 159.16H610.263C611.343 159.16 612.243 159.46 612.963 160.06C613.683 160.66 614.043 161.5 614.043 162.58C614.043 165.22 612.363 168.4 609.003 172.12C605.763 175.84 601.143 179.08 595.143 181.84C589.263 184.48 582.483 185.8 574.803 185.8ZM599.463 130.36V129.82C599.463 121.54 597.183 114.82 592.623 109.66C588.183 104.38 582.183 101.74 574.623 101.74C567.063 101.74 561.063 104.38 556.623 109.66C552.303 114.82 550.143 121.54 550.143 129.82V130.36H599.463ZM642.226 184C641.026 184 640.006 183.64 639.166 182.92C638.446 182.08 638.086 181.06 638.086 179.86V94.54C638.086 93.34 638.446 92.38 639.166 91.66C640.006 90.82 641.026 90.4 642.226 90.4H650.686C651.886 90.4 652.846 90.82 653.566 91.66C654.406 92.38 654.826 93.34 654.826 94.54V102.46C658.306 98.02 662.386 94.6 667.066 92.2C671.866 89.8 677.806 88.6 684.886 88.6C696.406 88.6 705.346 92.32 711.706 99.76C718.186 107.08 721.426 116.86 721.426 129.1V179.86C721.426 181.06 721.006 182.08 720.166 182.92C719.446 183.64 718.486 184 717.286 184H708.286C707.086 184 706.066 183.64 705.226 182.92C704.506 182.08 704.146 181.06 704.146 179.86V130C704.146 121.48 702.046 114.88 697.846 110.2C693.766 105.52 687.826 103.18 680.026 103.18C672.466 103.18 666.466 105.58 662.026 110.38C657.586 115.06 655.366 121.6 655.366 130V179.86C655.366 181.06 654.946 182.08 654.106 182.92C653.386 183.64 652.426 184 651.226 184H642.226ZM797.847 184C796.647 184 795.627 183.64 794.787 182.92C794.067 182.08 793.707 181.06 793.707 179.86V62.32C793.707 61 794.067 59.98 794.787 59.26C795.627 58.42 796.647 58 797.847 58H843.567C857.127 58 867.807 61.3 875.607 67.9C883.407 74.5 887.307 84.04 887.307 96.52C887.307 109 883.407 118.54 875.607 125.14C867.927 131.62 857.247 134.86 843.567 134.86H811.707V179.86C811.707 181.06 811.287 182.08 810.447 182.92C809.607 183.64 808.587 184 807.387 184H797.847ZM842.667 119.74C851.427 119.74 858.027 117.76 862.467 113.8C867.027 109.84 869.307 104.08 869.307 96.52C869.307 88.96 867.087 83.2 862.647 79.24C858.207 75.16 851.547 73.12 842.667 73.12H811.527V119.74H842.667ZM931.197 185.8C925.317 185.8 919.857 184.6 914.817 182.2C909.777 179.8 905.757 176.56 902.757 172.48C899.877 168.28 898.437 163.66 898.437 158.62C898.437 150.7 901.677 144.22 908.157 139.18C914.757 134.02 923.637 130.66 934.797 129.1L961.617 125.32V120.1C961.617 107.86 954.597 101.74 940.557 101.74C935.277 101.74 930.957 102.88 927.597 105.16C924.237 107.32 921.717 109.9 920.037 112.9C919.677 113.98 919.197 114.76 918.597 115.24C918.117 115.72 917.397 115.96 916.437 115.96H908.697C907.617 115.96 906.657 115.6 905.817 114.88C905.097 114.04 904.737 113.08 904.737 112C904.857 109.12 906.177 105.88 908.697 102.28C911.337 98.56 915.357 95.38 920.757 92.74C926.157 89.98 932.817 88.6 940.737 88.6C954.177 88.6 963.837 91.78 969.717 98.14C975.597 104.38 978.537 112.18 978.537 121.54V179.86C978.537 181.06 978.117 182.08 977.277 182.92C976.557 183.64 975.597 184 974.397 184H966.117C964.917 184 963.897 183.64 963.057 182.92C962.337 182.08 961.977 181.06 961.977 179.86V172.12C959.337 175.96 955.497 179.2 950.457 181.84C945.417 184.48 938.997 185.8 931.197 185.8ZM934.977 172.3C942.777 172.3 949.137 169.78 954.057 164.74C959.097 159.58 961.617 152.2 961.617 142.6V137.56L940.737 140.62C932.217 141.82 925.797 143.86 921.477 146.74C917.157 149.5 914.997 153.04 914.997 157.36C914.997 162.16 916.977 165.88 920.937 168.52C924.897 171.04 929.577 172.3 934.977 172.3ZM1018.86 218.2C1017.9 218.2 1017.06 217.84 1016.34 217.12C1015.62 216.4 1015.26 215.56 1015.26 214.6C1015.26 213.76 1015.56 212.68 1016.16 211.36L1030.02 178.42L995.64 97.24C995.04 95.68 994.74 94.66 994.74 94.18C994.74 93.1 995.1 92.2 995.82 91.48C996.54 90.76 997.44 90.4 998.52 90.4H1007.34C1009.26 90.4 1010.7 91.42 1011.66 93.46L1039.02 158.98L1067.1 93.46C1068.06 91.42 1069.56 90.4 1071.6 90.4H1080.06C1081.14 90.4 1082.04 90.76 1082.76 91.48C1083.48 92.2 1083.84 93.04 1083.84 94C1083.84 94.36 1083.54 95.44 1082.94 97.24L1031.82 215.14C1030.86 217.18 1029.36 218.2 1027.32 218.2H1018.86ZM1105.94 184C1104.74 184 1103.72 183.64 1102.88 182.92C1102.16 182.08 1101.8 181.06 1101.8 179.86V94.54C1101.8 93.34 1102.16 92.38 1102.88 91.66C1103.72 90.82 1104.74 90.4 1105.94 90.4H1114.04C1115.24 90.4 1116.2 90.82 1116.92 91.66C1117.76 92.38 1118.18 93.34 1118.18 94.54V100.84C1124.42 92.68 1133.12 88.6 1144.28 88.6C1157.6 88.6 1167.02 94.12 1172.54 105.16C1175.42 100.12 1179.5 96.1 1184.78 93.1C1190.06 90.1 1196 88.6 1202.6 88.6C1212.44 88.6 1220.48 91.96 1226.72 98.68C1232.96 105.4 1236.08 115.12 1236.08 127.84V179.86C1236.08 181.06 1235.66 182.08 1234.82 182.92C1234.1 183.64 1233.14 184 1231.94 184H1223.48C1222.28 184 1221.26 183.64 1220.42 182.92C1219.7 182.08 1219.34 181.06 1219.34 179.86V129.46C1219.34 120.1 1217.36 113.38 1213.4 109.3C1209.56 105.22 1204.46 103.18 1198.1 103.18C1192.46 103.18 1187.6 105.28 1183.52 109.48C1179.44 113.56 1177.4 120.22 1177.4 129.46V179.86C1177.4 181.06 1176.98 182.08 1176.14 182.92C1175.42 183.64 1174.46 184 1173.26 184H1164.8C1163.6 184 1162.58 183.64 1161.74 182.92C1161.02 182.08 1160.66 181.06 1160.66 179.86V129.46C1160.66 120.1 1158.62 113.38 1154.54 109.3C1150.58 105.22 1145.54 103.18 1139.42 103.18C1133.78 103.18 1128.92 105.28 1124.84 109.48C1120.76 113.56 1118.72 120.16 1118.72 129.28V179.86C1118.72 181.06 1118.3 182.08 1117.46 182.92C1116.74 183.64 1115.78 184 1114.58 184H1105.94ZM1299.2 185.8C1286.84 185.8 1276.94 182.02 1269.5 174.46C1262.18 166.78 1258.16 156.34 1257.44 143.14L1257.26 137.02L1257.44 131.08C1258.28 118.12 1262.36 107.8 1269.68 100.12C1277.12 92.44 1286.9 88.6 1299.02 88.6C1312.34 88.6 1322.66 92.86 1329.98 101.38C1337.3 109.78 1340.96 121.18 1340.96 135.58V138.64C1340.96 139.84 1340.54 140.86 1339.7 141.7C1338.98 142.42 1338.02 142.78 1336.82 142.78H1274.54V144.4C1274.9 152.2 1277.24 158.86 1281.56 164.38C1286 169.78 1291.82 172.48 1299.02 172.48C1304.54 172.48 1309.04 171.4 1312.52 169.24C1316.12 166.96 1318.76 164.62 1320.44 162.22C1321.52 160.78 1322.3 159.94 1322.78 159.7C1323.38 159.34 1324.4 159.16 1325.84 159.16H1334.66C1335.74 159.16 1336.64 159.46 1337.36 160.06C1338.08 160.66 1338.44 161.5 1338.44 162.58C1338.44 165.22 1336.76 168.4 1333.4 172.12C1330.16 175.84 1325.54 179.08 1319.54 181.84C1313.66 184.48 1306.88 185.8 1299.2 185.8ZM1323.86 130.36V129.82C1323.86 121.54 1321.58 114.82 1317.02 109.66C1312.58 104.38 1306.58 101.74 1299.02 101.74C1291.46 101.74 1285.46 104.38 1281.02 109.66C1276.7 114.82 1274.54 121.54 1274.54 129.82V130.36H1323.86ZM1366.62 184C1365.42 184 1364.4 183.64 1363.56 182.92C1362.84 182.08 1362.48 181.06 1362.48 179.86V94.54C1362.48 93.34 1362.84 92.38 1363.56 91.66C1364.4 90.82 1365.42 90.4 1366.62 90.4H1375.08C1376.28 90.4 1377.24 90.82 1377.96 91.66C1378.8 92.38 1379.22 93.34 1379.22 94.54V102.46C1382.7 98.02 1386.78 94.6 1391.46 92.2C1396.26 89.8 1402.2 88.6 1409.28 88.6C1420.8 88.6 1429.74 92.32 1436.1 99.76C1442.58 107.08 1445.82 116.86 1445.82 129.1V179.86C1445.82 181.06 1445.4 182.08 1444.56 182.92C1443.84 183.64 1442.88 184 1441.68 184H1432.68C1431.48 184 1430.46 183.64 1429.62 182.92C1428.9 182.08 1428.54 181.06 1428.54 179.86V130C1428.54 121.48 1426.44 114.88 1422.24 110.2C1418.16 105.52 1412.22 103.18 1404.42 103.18C1396.86 103.18 1390.86 105.58 1386.42 110.38C1381.98 115.06 1379.76 121.6 1379.76 130V179.86C1379.76 181.06 1379.34 182.08 1378.5 182.92C1377.78 183.64 1376.82 184 1375.62 184H1366.62ZM1506.95 184C1487.99 184 1478.51 173.44 1478.51 152.32V104.8H1464.47C1463.27 104.8 1462.25 104.44 1461.41 103.72C1460.69 102.88 1460.33 101.86 1460.33 100.66V94.54C1460.33 93.34 1460.69 92.38 1461.41 91.66C1462.25 90.82 1463.27 90.4 1464.47 90.4H1478.51V60.34C1478.51 59.14 1478.87 58.18 1479.59 57.46C1480.43 56.62 1481.45 56.2 1482.65 56.2H1491.11C1492.31 56.2 1493.27 56.62 1493.99 57.46C1494.83 58.18 1495.25 59.14 1495.25 60.34V90.4H1517.57C1518.77 90.4 1519.73 90.82 1520.45 91.66C1521.29 92.38 1521.71 93.34 1521.71 94.54V100.66C1521.71 101.86 1521.29 102.88 1520.45 103.72C1519.73 104.44 1518.77 104.8 1517.57 104.8H1495.25V151.06C1495.25 157.06 1496.27 161.62 1498.31 164.74C1500.35 167.74 1503.71 169.24 1508.39 169.24H1519.37C1520.57 169.24 1521.53 169.66 1522.25 170.5C1523.09 171.22 1523.51 172.18 1523.51 173.38V179.86C1523.51 181.06 1523.09 182.08 1522.25 182.92C1521.53 183.64 1520.57 184 1519.37 184H1506.95ZM1573.12 185.8C1564.72 185.8 1557.64 184.48 1551.88 181.84C1546.24 179.08 1541.98 175.96 1539.1 172.48C1536.34 169 1534.96 166.12 1534.96 163.84C1534.96 162.64 1535.38 161.74 1536.22 161.14C1537.18 160.42 1538.14 160.06 1539.1 160.06H1547.2C1548.4 160.06 1549.48 160.66 1550.44 161.86C1553.32 165.22 1556.44 167.86 1559.8 169.78C1563.16 171.7 1567.66 172.66 1573.3 172.66C1579.54 172.66 1584.58 171.46 1588.42 169.06C1592.38 166.54 1594.36 163.12 1594.36 158.8C1594.36 155.92 1593.52 153.58 1591.84 151.78C1590.28 149.86 1587.52 148.24 1583.56 146.92C1579.72 145.48 1573.96 143.92 1566.28 142.24C1555.84 139.96 1548.4 136.66 1543.96 132.34C1539.64 128.02 1537.48 122.44 1537.48 115.6C1537.48 111.04 1538.8 106.72 1541.44 102.64C1544.2 98.44 1548.16 95.08 1553.32 92.56C1558.6 89.92 1564.9 88.6 1572.22 88.6C1579.9 88.6 1586.44 89.86 1591.84 92.38C1597.24 94.9 1601.26 97.9 1603.9 101.38C1606.66 104.74 1608.04 107.56 1608.04 109.84C1608.04 110.92 1607.62 111.82 1606.78 112.54C1606.06 113.26 1605.16 113.62 1604.08 113.62H1596.52C1595.08 113.62 1593.88 113.02 1592.92 111.82C1591 109.54 1589.32 107.8 1587.88 106.6C1586.56 105.28 1584.58 104.14 1581.94 103.18C1579.42 102.22 1576.18 101.74 1572.22 101.74C1566.46 101.74 1562.02 103 1558.9 105.52C1555.78 107.92 1554.22 111.1 1554.22 115.06C1554.22 117.58 1554.88 119.74 1556.2 121.54C1557.52 123.22 1560.04 124.78 1563.76 126.22C1567.6 127.66 1573.12 129.16 1580.32 130.72C1591.72 133.12 1599.76 136.6 1604.44 141.16C1609.24 145.6 1611.64 151.3 1611.64 158.26C1611.64 163.42 1610.14 168.1 1607.14 172.3C1604.14 176.5 1599.7 179.8 1593.82 182.2C1588.06 184.6 1581.16 185.8 1573.12 185.8Z" fill="#1E3250"/>
</svg>
