<svg width="259" height="521" viewBox="0 0 259 521" fill="none" xmlns="http://www.w3.org/2000/svg">
<rect x="14.2578" y="11.3477" width="229.929" height="497.872" fill="#FCC9B3"/>
<rect x="45.6666" y="103.422" width="91.7333" height="91.7333" rx="3.55556" fill="#978AA4"/>
<rect x="45.6666" y="230.711" width="123.022" height="17.0667" rx="3.55556" fill="#978AA4"/>
<rect x="45.6666" y="258.445" width="123.022" height="17.0667" rx="3.55556" fill="#978AA4"/>
<rect x="45.6666" y="286.178" width="123.022" height="17.0667" rx="3.55556" fill="#978AA4"/>
<rect x="45.6666" y="313.911" width="123.022" height="17.0667" rx="3.55556" fill="#978AA4"/>
<rect x="179.356" y="313.911" width="34.1333" height="17.0667" rx="3.55556" fill="#978AA4"/>
<rect x="179.356" y="286.178" width="34.1333" height="17.0667" rx="3.55556" fill="#978AA4"/>
<rect x="179.356" y="258.445" width="34.1333" height="17.0667" rx="3.55556" fill="#978AA4"/>
<rect x="179.356" y="230.711" width="34.1333" height="17.0667" rx="3.55556" fill="#978AA4"/>
<path d="M142.378 369.378C142.378 367.807 143.651 366.533 145.222 366.533H211.289C212.86 366.533 214.133 367.807 214.133 369.378V389.289C214.133 390.86 212.86 392.133 211.289 392.133H145.222C143.651 392.133 142.378 390.86 142.378 389.289V369.378Z" fill="#845578"/>
<path d="M155.167 382.333C155.1 382.333 155.044 382.31 154.998 382.264C154.951 382.217 154.928 382.161 154.928 382.094V375.613C154.928 375.54 154.948 375.481 154.988 375.434C155.034 375.388 155.094 375.364 155.167 375.364H157.835C158.631 375.364 159.259 375.554 159.716 375.932C160.174 376.304 160.403 376.851 160.403 377.575C160.403 378.298 160.174 378.846 159.716 379.217C159.265 379.582 158.638 379.765 157.835 379.765H156.352V382.094C156.352 382.161 156.328 382.217 156.282 382.264C156.242 382.31 156.186 382.333 156.113 382.333H155.167ZM157.785 378.66C158.17 378.66 158.465 378.57 158.671 378.391C158.877 378.205 158.98 377.933 158.98 377.575C158.98 377.229 158.88 376.961 158.681 376.768C158.482 376.569 158.183 376.47 157.785 376.47H156.332V378.66H157.785ZM161.514 382.333C161.461 382.333 161.411 382.313 161.364 382.274C161.325 382.234 161.305 382.184 161.305 382.124L161.325 382.035L163.724 375.613C163.77 375.447 163.886 375.364 164.072 375.364H165.157C165.33 375.364 165.446 375.447 165.506 375.613L167.905 382.035C167.912 382.055 167.915 382.084 167.915 382.124C167.915 382.184 167.895 382.234 167.855 382.274C167.816 382.313 167.769 382.333 167.716 382.333H166.85C166.764 382.333 166.697 382.313 166.651 382.274C166.604 382.234 166.574 382.191 166.561 382.144L166.093 380.93H163.136L162.669 382.144C162.615 382.27 162.519 382.333 162.38 382.333H161.514ZM165.745 379.785L164.61 376.708L163.485 379.785H165.745ZM171.046 382.333C170.979 382.333 170.923 382.31 170.877 382.264C170.83 382.217 170.807 382.161 170.807 382.094V379.844L168.457 375.683C168.437 375.65 168.428 375.613 168.428 375.574C168.428 375.514 168.447 375.464 168.487 375.424C168.527 375.384 168.574 375.364 168.627 375.364H169.513C169.586 375.364 169.645 375.384 169.692 375.424C169.745 375.464 169.785 375.507 169.811 375.554L171.504 378.451L173.186 375.554C173.266 375.428 173.369 375.364 173.495 375.364H174.371C174.431 375.364 174.481 375.384 174.52 375.424C174.56 375.464 174.58 375.514 174.58 375.574C174.58 375.613 174.57 375.65 174.55 375.683L172.201 379.844V382.094C172.201 382.161 172.177 382.217 172.131 382.264C172.085 382.31 172.025 382.333 171.952 382.333H171.046ZM179.586 382.333C179.52 382.333 179.463 382.31 179.417 382.264C179.371 382.217 179.347 382.161 179.347 382.094V375.613C179.347 375.54 179.367 375.481 179.407 375.434C179.453 375.388 179.513 375.364 179.586 375.364H180.353C180.432 375.364 180.492 375.381 180.532 375.414C180.572 375.441 180.608 375.477 180.642 375.524L183.509 379.984V375.613C183.509 375.54 183.529 375.481 183.568 375.434C183.615 375.388 183.675 375.364 183.748 375.364H184.584C184.657 375.364 184.717 375.388 184.763 375.434C184.81 375.481 184.833 375.54 184.833 375.613V382.084C184.833 382.157 184.81 382.217 184.763 382.264C184.717 382.31 184.66 382.333 184.594 382.333H183.817C183.705 382.333 183.608 382.28 183.529 382.174L180.671 377.814V382.094C180.671 382.167 180.648 382.227 180.602 382.274C180.555 382.313 180.496 382.333 180.423 382.333H179.586ZM189.953 382.433C189.05 382.433 188.347 382.204 187.843 381.746C187.338 381.288 187.073 380.608 187.046 379.705C187.039 379.513 187.036 379.231 187.036 378.859C187.036 378.481 187.039 378.195 187.046 378.003C187.073 377.12 187.345 376.443 187.862 375.972C188.38 375.501 189.077 375.265 189.953 375.265C190.829 375.265 191.526 375.501 192.044 375.972C192.568 376.443 192.844 377.12 192.87 378.003C192.883 378.388 192.89 378.673 192.89 378.859C192.89 379.038 192.883 379.32 192.87 379.705C192.837 380.608 192.568 381.288 192.064 381.746C191.559 382.204 190.856 382.433 189.953 382.433ZM189.953 381.288C190.398 381.288 190.753 381.155 191.018 380.89C191.284 380.618 191.427 380.206 191.446 379.655C191.46 379.257 191.466 378.988 191.466 378.849C191.466 378.696 191.46 378.427 191.446 378.043C191.427 377.492 191.284 377.083 191.018 376.818C190.753 376.546 190.398 376.41 189.953 376.41C189.515 376.41 189.163 376.546 188.898 376.818C188.632 377.083 188.49 377.492 188.47 378.043C188.463 378.235 188.46 378.504 188.46 378.849C188.46 379.187 188.463 379.456 188.47 379.655C188.49 380.206 188.629 380.618 188.888 380.89C189.153 381.155 189.508 381.288 189.953 381.288ZM196.153 382.333C196.054 382.333 195.974 382.307 195.914 382.254C195.855 382.201 195.818 382.128 195.805 382.035L194.62 375.653L194.61 375.574C194.61 375.514 194.63 375.464 194.67 375.424C194.716 375.384 194.766 375.364 194.819 375.364H195.695C195.861 375.364 195.954 375.431 195.974 375.564L196.8 380.073L197.696 377.156C197.763 376.991 197.872 376.908 198.025 376.908H198.563C198.728 376.908 198.835 376.991 198.881 377.156L199.787 380.064L200.613 375.564C200.627 375.491 200.653 375.441 200.693 375.414C200.739 375.381 200.806 375.364 200.892 375.364H201.768C201.821 375.364 201.868 375.384 201.908 375.424C201.947 375.464 201.967 375.514 201.967 375.574C201.967 375.607 201.964 375.633 201.957 375.653L200.773 382.035C200.739 382.234 200.623 382.333 200.424 382.333H199.757C199.664 382.333 199.588 382.31 199.528 382.264C199.469 382.217 199.429 382.157 199.409 382.084L198.294 378.759L197.179 382.084C197.112 382.25 196.993 382.333 196.82 382.333H196.153Z" fill="white"/>
<path d="M3.83435 139.495H1.99492C0.97903 139.495 0.155491 140.318 0.155491 141.334V171.991C0.155491 173.007 0.979031 173.831 1.99492 173.831H3.83435V139.495Z" fill="#2F2F2F"/>
<path d="M3.83435 100.867H1.99492C0.97903 100.867 0.155491 101.69 0.155491 102.706V133.363C0.155491 134.379 0.979031 135.203 1.99492 135.203H3.83435V100.867Z" fill="#2F2F2F"/>
<path d="M4.44751 65.9174H2.60808C1.59219 65.9174 0.76865 66.7409 0.76865 67.7568V83.6985C0.76865 84.7144 1.59219 85.538 2.60808 85.538H4.44751V65.9174Z" fill="#2F2F2F"/>
<path d="M254.61 100.867H256.449C257.465 100.867 258.289 101.69 258.289 102.706V155.436C258.289 156.452 257.465 157.276 256.449 157.276H254.61V100.867Z" fill="#2F2F2F"/>
<path fill-rule="evenodd" clip-rule="evenodd" d="M35.7179 0.311096C17.7705 0.311096 3.22131 14.8603 3.22131 32.8077V487.76C3.22131 505.707 17.7705 520.257 35.7179 520.257H222.727C240.674 520.257 255.223 505.707 255.223 487.76V32.8077C255.223 14.8603 240.674 0.311096 222.727 0.311096H35.7179ZM36.331 11.3477C24.1404 11.3477 14.2579 21.2302 14.2579 33.4208V487.147C14.2579 499.338 24.1404 509.22 36.331 509.22H222.113C234.304 509.22 244.187 499.338 244.187 487.147V33.4208C244.187 21.2302 234.304 11.3477 222.113 11.3477H36.331Z" fill="#424242"/>
</svg>
