<svg width="425" height="272" viewBox="0 0 425 272" fill="none" xmlns="http://www.w3.org/2000/svg">
<rect x="4.5" y="4.5" width="416" height="263" rx="22.5" fill="white"/>
<circle cx="125.038" cy="136" r="28.2534" fill="#FF8A65"/>
<g style="mix-blend-mode:multiply">
<rect x="52.709" y="126.771" width="50.8562" height="50.8562" transform="rotate(-30 52.709 126.771)" fill="#21D2BF"/>
</g>
<path d="M179.3 181C178.433 181 177.697 180.74 177.09 180.22C176.57 179.613 176.31 178.877 176.31 178.01V93.12C176.31 92.1667 176.57 91.43 177.09 90.91C177.697 90.3033 178.433 90 179.3 90H212.32C222.113 90 229.827 92.3833 235.46 97.15C241.093 101.917 243.91 108.807 243.91 117.82C243.91 126.833 241.093 133.723 235.46 138.49C229.913 143.17 222.2 145.51 212.32 145.51H189.31V178.01C189.31 178.877 189.007 179.613 188.4 180.22C187.793 180.74 187.057 181 186.19 181H179.3ZM211.67 134.59C217.997 134.59 222.763 133.16 225.97 130.3C229.263 127.44 230.91 123.28 230.91 117.82C230.91 112.36 229.307 108.2 226.1 105.34C222.893 102.393 218.083 100.92 211.67 100.92H189.18V134.59H211.67ZM269.109 182.3C264.862 182.3 260.919 181.433 257.279 179.7C253.639 177.967 250.735 175.627 248.569 172.68C246.489 169.647 245.449 166.31 245.449 162.67C245.449 156.95 247.789 152.27 252.469 148.63C257.235 144.903 263.649 142.477 271.709 141.35L291.079 138.62V134.85C291.079 126.01 286.009 121.59 275.869 121.59C272.055 121.59 268.935 122.413 266.509 124.06C264.082 125.62 262.262 127.483 261.049 129.65C260.789 130.43 260.442 130.993 260.009 131.34C259.662 131.687 259.142 131.86 258.449 131.86H252.859C252.079 131.86 251.385 131.6 250.779 131.08C250.259 130.473 249.999 129.78 249.999 129C250.085 126.92 251.039 124.58 252.859 121.98C254.765 119.293 257.669 116.997 261.569 115.09C265.469 113.097 270.279 112.1 275.999 112.1C285.705 112.1 292.682 114.397 296.929 118.99C301.175 123.497 303.299 129.13 303.299 135.89V178.01C303.299 178.877 302.995 179.613 302.389 180.22C301.869 180.74 301.175 181 300.309 181H294.329C293.462 181 292.725 180.74 292.119 180.22C291.599 179.613 291.339 178.877 291.339 178.01V172.42C289.432 175.193 286.659 177.533 283.019 179.44C279.379 181.347 274.742 182.3 269.109 182.3ZM271.839 172.55C277.472 172.55 282.065 170.73 285.619 167.09C289.259 163.363 291.079 158.033 291.079 151.1V147.46L275.999 149.67C269.845 150.537 265.209 152.01 262.089 154.09C258.969 156.083 257.409 158.64 257.409 161.76C257.409 165.227 258.839 167.913 261.699 169.82C264.559 171.64 267.939 172.55 271.839 172.55ZM325.921 205.7C325.227 205.7 324.621 205.44 324.101 204.92C323.581 204.4 323.321 203.793 323.321 203.1C323.321 202.493 323.537 201.713 323.971 200.76L333.981 176.97L309.151 118.34C308.717 117.213 308.501 116.477 308.501 116.13C308.501 115.35 308.761 114.7 309.281 114.18C309.801 113.66 310.451 113.4 311.231 113.4H317.601C318.987 113.4 320.027 114.137 320.721 115.61L340.481 162.93L360.761 115.61C361.454 114.137 362.537 113.4 364.011 113.4H370.121C370.901 113.4 371.551 113.66 372.071 114.18C372.591 114.7 372.851 115.307 372.851 116C372.851 116.26 372.634 117.04 372.201 118.34L335.281 203.49C334.587 204.963 333.504 205.7 332.031 205.7H325.921Z" fill="#3C4043"/>
<rect x="4.5" y="4.5" width="416" height="263" rx="22.5" stroke="#3C4043" stroke-width="9"/>
</svg>
