<svg width="123" height="80" viewBox="0 0 123 80" fill="none" xmlns="http://www.w3.org/2000/svg">
<rect x="16" y="16" width="91" height="48" fill="white"/>
<path fill-rule="evenodd" clip-rule="evenodd" d="M47.9322 38.7165C47.4772 34.438 44.7738 30.8312 41.0262 29.1002H37.5278V31.9653C40.883 32.6138 43.505 35.3189 44.0298 38.7165H47.9322Z" fill="#F59297"/>
<path fill-rule="evenodd" clip-rule="evenodd" d="M30.4789 50.6572V45.9986C30.1149 45.6668 29.7811 45.3024 29.4821 44.91H26.6079V47.4699C27.6557 48.7856 28.9741 49.8761 30.4789 50.6572Z" fill="#8FD1C1"/>
<path fill-rule="evenodd" clip-rule="evenodd" d="M47.9406 38.798H44.042C44.0972 39.1811 44.1258 39.5729 44.1258 39.9714C44.1258 41.1762 43.8645 42.32 43.3955 43.3492V44.91H46.9528C47.6257 43.4113 48 41.7493 48 40C48 39.5943 47.9799 39.1933 47.9406 38.798Z" fill="#FABD84"/>
<path fill-rule="evenodd" clip-rule="evenodd" d="M45.8607 37.0458C44.9042 37.0458 44.1289 37.8212 44.1289 38.7776V39.0221C44.1289 39.9785 44.9042 40.7538 45.8607 40.7538C46.8171 40.7538 47.5924 39.9785 47.5924 39.0221V38.7776C47.5924 37.8212 46.8171 37.0458 45.8607 37.0458Z" fill="#FCC9B3"/>
<path fill-rule="evenodd" clip-rule="evenodd" d="M47.4487 43.6061C45.9177 48.4715 41.3709 52 36 52C35.5105 52 35.0279 51.9707 34.5537 51.9137V48.003C35.0141 48.0837 35.4878 48.1258 35.9714 48.1258C39.1689 48.1258 41.9366 46.2854 43.2729 43.6061H47.4487Z" fill="#7FC78C"/>
<path fill-rule="evenodd" clip-rule="evenodd" d="M28.2651 43.1171C28.375 43.2178 28.4814 43.3219 28.5842 43.4292C28.536 43.3263 28.4898 43.2223 28.4458 43.1171H28.2651ZM33.82 47.9864C33.82 49.2793 33.5708 50.5154 33.1167 51.6514C32.0009 51.3762 30.9466 50.9449 29.9782 50.382C30.2758 49.6336 30.438 48.8247 30.438 47.9864C30.438 47.0864 30.2511 46.2202 29.9102 45.4265C30.9406 46.5706 32.2903 47.4214 33.8189 47.8387C33.8196 47.8878 33.82 47.9371 33.82 47.9864Z" fill="#459789"/>
<path fill-rule="evenodd" clip-rule="evenodd" d="M24.8246 44.3803H27.545V37.4125H24.2797C24.0965 38.2459 24 39.1116 24 40C24 41.5458 24.2923 43.0233 24.8246 44.3803Z" fill="#9EC7D0"/>
<path fill-rule="evenodd" clip-rule="evenodd" d="M24.7148 44.0887C26.3072 42.9251 27.3415 41.0434 27.3415 38.9202C27.3415 37.1266 26.6034 35.5054 25.4143 34.3437C26.1365 32.9949 27.109 31.8001 28.2698 30.8215C29.214 31.6761 30.008 32.6935 30.6077 33.8294C28.8975 35.3242 27.8173 37.5216 27.8173 39.9714C27.8173 42.0111 28.5661 43.8758 29.8039 45.3057C29.0482 46.3524 28.1116 47.2598 27.0399 47.9821C26.0349 46.8548 25.2395 45.5366 24.7148 44.0887Z" fill="#51797D"/>
<path fill-rule="evenodd" clip-rule="evenodd" d="M36.3872 28.0061C36.2587 28.0021 36.1296 28 36.0001 28C31.5458 28 27.6584 30.4269 25.5879 34.0306H30.3857C31.845 32.6579 33.81 31.817 35.9715 31.817C36.1109 31.817 36.2495 31.8205 36.3872 31.8274V28.0061Z" fill="#978AA4"/>
<path fill-rule="evenodd" clip-rule="evenodd" d="M35.0774 51.965C35.0901 50.5734 35.4532 49.2654 36.0826 48.125C36.0456 48.1255 36.0086 48.1258 35.9715 48.1258C35.0971 48.1258 34.2549 47.9882 33.4653 47.7334C32.9501 48.8952 32.6369 50.1665 32.5703 51.5027C33.374 51.742 34.2129 51.8993 35.0774 51.965ZM47.7537 42.4311C46.6 41.8824 45.3318 41.5354 43.9948 41.4356C43.8336 42.3244 43.5284 43.163 43.1042 43.9264C43.1334 43.9261 43.1627 43.9259 43.1919 43.9259C44.5582 43.9259 45.8455 44.2635 46.9752 44.8599C47.3168 44.0896 47.5797 43.2765 47.7537 42.4311Z" fill="#6D995C"/>
<path fill-rule="evenodd" clip-rule="evenodd" d="M47.8406 38.0393C47.5166 37.2416 46.734 36.6791 45.82 36.6791C44.9594 36.6791 44.2153 37.1778 43.8608 37.9019C44.0337 38.5628 44.1257 39.2563 44.1257 39.9714C44.1257 40.0566 44.1244 40.1416 44.1218 40.2262C44.5214 40.7219 45.1337 41.0391 45.82 41.0391C46.9084 41.0391 47.8105 40.2415 47.9736 39.1989C47.9478 38.8069 47.9031 38.4201 47.8406 38.0393ZM47.185 38.8591C47.185 39.613 46.5739 40.2241 45.82 40.2241C45.0661 40.2241 44.4549 39.613 44.4549 38.8591C44.4549 38.1052 45.0661 37.4941 45.82 37.4941C46.5739 37.4941 47.185 38.1052 47.185 38.8591Z" fill="#F47F5F"/>
<path fill-rule="evenodd" clip-rule="evenodd" d="M46.7386 34.6383C46.6568 34.6406 46.5747 34.6417 46.4924 34.6417C42.4868 34.6417 39.1209 31.9024 38.166 28.1949C41.9288 28.8809 45.0793 31.3217 46.7386 34.6383Z" fill="#CE6564"/>
<path fill-rule="evenodd" clip-rule="evenodd" d="M25.6737 33.884C29.7761 33.2344 33.3773 31.0784 35.8927 28.0005C35.9286 28.0002 35.9644 28 36.0004 28C37.6582 28 39.2375 28.3362 40.6738 28.9441C39.9355 30.0807 39.0902 31.1413 38.1521 32.1117C37.4581 31.9196 36.7269 31.817 35.9718 31.817C32.1806 31.817 28.9937 34.4041 28.0803 37.9092C26.7943 38.2247 25.4617 38.4217 24.0947 38.4878C24.3041 36.823 24.8544 35.2643 25.6737 33.884Z" fill="#845578"/>
<path d="M61.9 47C61.54 47 61.2933 46.8267 61.16 46.48L56.7 33.62L56.66 33.4C56.66 33.2933 56.7 33.2 56.78 33.12C56.86 33.04 56.9533 33 57.06 33H58.1C58.3533 33 58.5333 33.12 58.64 33.36L62.54 44.7L66.46 33.36C66.4867 33.28 66.5467 33.2 66.64 33.12C66.7333 33.04 66.8467 33 66.98 33H68.02C68.1267 33 68.22 33.04 68.3 33.12C68.3933 33.2 68.44 33.2933 68.44 33.4L68.4 33.62L63.92 46.48C63.7867 46.8267 63.5467 47 63.2 47H61.9ZM73.7103 47.2C72.337 47.2 71.237 46.78 70.4103 45.94C69.597 45.0867 69.1503 43.9267 69.0703 42.46L69.0503 41.78L69.0703 41.12C69.1636 39.68 69.617 38.5333 70.4303 37.68C71.257 36.8267 72.3436 36.4 73.6903 36.4C75.1703 36.4 76.317 36.8733 77.1303 37.82C77.9436 38.7533 78.3503 40.02 78.3503 41.62V41.96C78.3503 42.0933 78.3036 42.2067 78.2103 42.3C78.1303 42.38 78.0236 42.42 77.8903 42.42H70.9703V42.6C71.0103 43.4667 71.2703 44.2067 71.7503 44.82C72.2436 45.42 72.8903 45.72 73.6903 45.72C74.3036 45.72 74.8036 45.6 75.1903 45.36C75.5903 45.1067 75.8836 44.8467 76.0703 44.58C76.1903 44.42 76.277 44.3267 76.3303 44.3C76.397 44.26 76.5103 44.24 76.6703 44.24H77.6503C77.7703 44.24 77.8703 44.2733 77.9503 44.34C78.0303 44.4067 78.0703 44.5 78.0703 44.62C78.0703 44.9133 77.8836 45.2667 77.5103 45.68C77.1503 46.0933 76.637 46.4533 75.9703 46.76C75.317 47.0533 74.5636 47.2 73.7103 47.2ZM76.4503 41.04V40.98C76.4503 40.06 76.197 39.3133 75.6903 38.74C75.197 38.1533 74.5303 37.86 73.6903 37.86C72.8503 37.86 72.1836 38.1533 71.6903 38.74C71.2103 39.3133 70.9703 40.06 70.9703 40.98V41.04H76.4503ZM81.2017 47C81.0684 47 80.9551 46.96 80.8617 46.88C80.7817 46.7867 80.7417 46.6733 80.7417 46.54V37.08C80.7417 36.9467 80.7817 36.8333 80.8617 36.74C80.9551 36.6467 81.0684 36.6 81.2017 36.6H82.1217C82.2551 36.6 82.3684 36.6467 82.4617 36.74C82.5551 36.8333 82.6017 36.9467 82.6017 37.08V37.96C83.1484 37.0533 84.0817 36.6 85.4017 36.6H86.1817C86.3151 36.6 86.4217 36.6467 86.5017 36.74C86.5951 36.82 86.6417 36.9267 86.6417 37.06V37.88C86.6417 38.0133 86.5951 38.12 86.5017 38.2C86.4217 38.28 86.3151 38.32 86.1817 38.32H84.9817C84.2617 38.32 83.6951 38.5333 83.2817 38.96C82.8684 39.3733 82.6617 39.94 82.6617 40.66V46.54C82.6617 46.6733 82.6151 46.7867 82.5217 46.88C82.4284 46.96 82.3151 47 82.1817 47H81.2017ZM93.4794 47.2C92.0394 47.2 90.946 46.7 90.1994 45.7V46.54C90.1994 46.6733 90.1527 46.7867 90.0594 46.88C89.9794 46.96 89.8727 47 89.7394 47H88.8194C88.686 47 88.5727 46.96 88.4794 46.88C88.3994 46.7867 88.3594 46.6733 88.3594 46.54V33.26C88.3594 33.1267 88.3994 33.02 88.4794 32.94C88.5727 32.8467 88.686 32.8 88.8194 32.8H89.7994C89.9327 32.8 90.0394 32.8467 90.1194 32.94C90.1994 33.02 90.2394 33.1267 90.2394 33.26V37.86C91.026 36.8867 92.106 36.4 93.4794 36.4C94.866 36.4 95.9127 36.86 96.6194 37.78C97.326 38.6867 97.706 39.8267 97.7594 41.2C97.7727 41.3467 97.7794 41.5467 97.7794 41.8C97.7794 42.0533 97.7727 42.2533 97.7594 42.4C97.706 43.7867 97.326 44.9333 96.6194 45.84C95.9127 46.7467 94.866 47.2 93.4794 47.2ZM93.0594 45.58C94.006 45.58 94.6927 45.2867 95.1194 44.7C95.5594 44.1133 95.7994 43.34 95.8394 42.38C95.8527 42.2467 95.8594 42.0533 95.8594 41.8C95.8594 39.28 94.926 38.02 93.0594 38.02C92.166 38.02 91.4794 38.3133 90.9994 38.9C90.5194 39.4867 90.266 40.1733 90.2394 40.96L90.2194 41.74L90.2394 42.5C90.2794 43.34 90.526 44.0667 90.9794 44.68C91.446 45.28 92.1394 45.58 93.0594 45.58Z" fill="black"/>
<rect x="16" y="16" width="8" height="48" fill="#FCC9B3"/>
<rect x="48" y="16" width="8" height="48" fill="#FCC9B3"/>
<rect x="99" y="16" width="8" height="48" fill="#FCC9B3"/>
<path fill-rule="evenodd" clip-rule="evenodd" d="M115 8H8V72H115V8ZM107 16H16V64H107V16Z" fill="#9EC7D0"/>
<line x1="16" y1="76.5" x2="107" y2="76.5" stroke="#1E3250"/>
<line x1="116" y1="63.5" x2="123" y2="63.5" stroke="#1E3250"/>
<line x1="116" y1="16.5" x2="123" y2="16.5" stroke="#1E3250"/>
<line x1="119.5" y1="64" x2="119.5" y2="16" stroke="#1E3250"/>
<line x1="106.5" y1="80" x2="106.5" y2="73" stroke="#1E3250"/>
<line x1="16.5" y1="80" x2="16.5" y2="73" stroke="#1E3250"/>
</svg>
