<svg width="500" height="500" viewBox="0 0 500 500" fill="none" xmlns="http://www.w3.org/2000/svg">
<rect x="50" y="150" width="100" height="100" rx="12" fill="#C4C4C4"/>
<rect x="50" y="370" width="100" height="100" rx="12" fill="#C4C4C4"/>
<rect x="350" y="370" width="100" height="100" rx="12" fill="#C4C4C4"/>
<rect x="350" y="150" width="100" height="100" rx="12" fill="#C4C4C4"/>
<circle cx="250" cy="80" r="50" fill="#C4C4C4"/>
<path d="M100 260L97.1132 265L102.887 265L100 260ZM100 360L102.887 355L97.1132 355L100 360ZM99.5 264.5L99.5 355.5L100.5 355.5L100.5 264.5L99.5 264.5Z" fill="black"/>
<path d="M400 260L397.113 265L402.887 265L400 260ZM400 360L402.887 355L397.113 355L400 360ZM399.5 264.5L399.5 355.5L400.5 355.5L400.5 264.5L399.5 264.5Z" fill="black"/>
<path d="M100 145.375L105.752 144.872L102.44 140.143L100 145.375ZM187.653 84L181.902 84.5032L185.213 89.2326L187.653 84ZM103.973 143.204L184.254 86.9907L183.68 86.1715L103.399 142.385L103.973 143.204Z" fill="black"/>
<path d="M399.653 145.375L397.213 140.143L393.902 144.872L399.653 145.375ZM312 84L314.44 89.2326L317.752 84.5032L312 84ZM396.254 142.385L315.973 86.1715L315.399 86.9907L395.68 143.204L396.254 142.385Z" fill="black"/>
<path d="M215.508 76H213.164V64.625H215.508V76ZM219.617 67.5469L219.688 68.5234C220.292 67.7682 221.102 67.3906 222.117 67.3906C223.013 67.3906 223.68 67.6536 224.117 68.1797C224.555 68.7057 224.779 69.4922 224.789 70.5391V76H222.531V70.5938C222.531 70.1146 222.427 69.7682 222.219 69.5547C222.01 69.3359 221.664 69.2266 221.18 69.2266C220.544 69.2266 220.068 69.4974 219.75 70.0391V76H217.492V67.5469H219.617ZM229.211 65.4688V67.5469H230.656V69.2031H229.211V73.4219C229.211 73.7344 229.271 73.9583 229.391 74.0938C229.51 74.2292 229.74 74.2969 230.078 74.2969C230.328 74.2969 230.549 74.2786 230.742 74.2422V75.9531C230.299 76.0885 229.844 76.1562 229.375 76.1562C227.792 76.1562 226.984 75.3568 226.953 73.7578V69.2031H225.719V67.5469H226.953V65.4688H229.211ZM235.805 76.1562C234.565 76.1562 233.555 75.776 232.773 75.0156C231.997 74.2552 231.609 73.2422 231.609 71.9766V71.7578C231.609 70.9089 231.773 70.151 232.102 69.4844C232.43 68.8125 232.893 68.2969 233.492 67.9375C234.096 67.5729 234.784 67.3906 235.555 67.3906C236.711 67.3906 237.62 67.7552 238.281 68.4844C238.948 69.2135 239.281 70.2474 239.281 71.5859V72.5078H233.898C233.971 73.0599 234.19 73.5026 234.555 73.8359C234.924 74.1693 235.391 74.3359 235.953 74.3359C236.823 74.3359 237.503 74.0208 237.992 73.3906L239.102 74.6328C238.763 75.112 238.305 75.487 237.727 75.7578C237.148 76.0234 236.508 76.1562 235.805 76.1562ZM235.547 69.2188C235.099 69.2188 234.734 69.3698 234.453 69.6719C234.177 69.974 234 70.4062 233.922 70.9688H237.062V70.7891C237.052 70.2891 236.917 69.9036 236.656 69.6328C236.396 69.3568 236.026 69.2188 235.547 69.2188ZM245.32 69.6641C245.013 69.6224 244.742 69.6016 244.508 69.6016C243.654 69.6016 243.094 69.8906 242.828 70.4688V76H240.57V67.5469H242.703L242.766 68.5547C243.219 67.7786 243.846 67.3906 244.648 67.3906C244.898 67.3906 245.133 67.4245 245.352 67.4922L245.32 69.6641ZM248.797 76H246.531V64H248.797V76ZM254.555 76.1562C253.315 76.1562 252.305 75.776 251.523 75.0156C250.747 74.2552 250.359 73.2422 250.359 71.9766V71.7578C250.359 70.9089 250.523 70.151 250.852 69.4844C251.18 68.8125 251.643 68.2969 252.242 67.9375C252.846 67.5729 253.534 67.3906 254.305 67.3906C255.461 67.3906 256.37 67.7552 257.031 68.4844C257.698 69.2135 258.031 70.2474 258.031 71.5859V72.5078H252.648C252.721 73.0599 252.94 73.5026 253.305 73.8359C253.674 74.1693 254.141 74.3359 254.703 74.3359C255.573 74.3359 256.253 74.0208 256.742 73.3906L257.852 74.6328C257.513 75.112 257.055 75.487 256.477 75.7578C255.898 76.0234 255.258 76.1562 254.555 76.1562ZM254.297 69.2188C253.849 69.2188 253.484 69.3698 253.203 69.6719C252.927 69.974 252.75 70.4062 252.672 70.9688H255.812V70.7891C255.802 70.2891 255.667 69.9036 255.406 69.6328C255.146 69.3568 254.776 69.2188 254.297 69.2188ZM258.969 71.7109C258.969 70.3932 259.263 69.3438 259.852 68.5625C260.445 67.7812 261.255 67.3906 262.281 67.3906C263.104 67.3906 263.784 67.6979 264.32 68.3125V64H266.586V76H264.547L264.438 75.1016C263.875 75.8047 263.151 76.1562 262.266 76.1562C261.271 76.1562 260.471 75.7656 259.867 74.9844C259.268 74.1979 258.969 73.1068 258.969 71.7109ZM261.227 71.875C261.227 72.6667 261.365 73.2734 261.641 73.6953C261.917 74.1172 262.318 74.3281 262.844 74.3281C263.542 74.3281 264.034 74.0339 264.32 73.4453V70.1094C264.039 69.5208 263.552 69.2266 262.859 69.2266C261.771 69.2266 261.227 70.1094 261.227 71.875ZM268.008 71.7109C268.008 70.4141 268.315 69.3698 268.93 68.5781C269.549 67.7865 270.383 67.3906 271.43 67.3906C272.357 67.3906 273.078 67.7083 273.594 68.3438L273.688 67.5469H275.734V75.7188C275.734 76.4583 275.565 77.1016 275.227 77.6484C274.893 78.1953 274.422 78.612 273.812 78.8984C273.203 79.1849 272.49 79.3281 271.672 79.3281C271.052 79.3281 270.448 79.2031 269.859 78.9531C269.271 78.7083 268.826 78.3906 268.523 78L269.523 76.625C270.086 77.2552 270.768 77.5703 271.57 77.5703C272.169 77.5703 272.635 77.4089 272.969 77.0859C273.302 76.7682 273.469 76.3151 273.469 75.7266V75.2734C272.948 75.862 272.263 76.1562 271.414 76.1562C270.398 76.1562 269.576 75.7604 268.945 74.9688C268.32 74.1719 268.008 73.1172 268.008 71.8047V71.7109ZM270.266 71.875C270.266 72.6406 270.419 73.2422 270.727 73.6797C271.034 74.112 271.456 74.3281 271.992 74.3281C272.68 74.3281 273.172 74.0703 273.469 73.5547V70C273.167 69.4844 272.68 69.2266 272.008 69.2266C271.466 69.2266 271.039 69.4479 270.727 69.8906C270.419 70.3333 270.266 70.9948 270.266 71.875ZM281.367 76.1562C280.128 76.1562 279.117 75.776 278.336 75.0156C277.56 74.2552 277.172 73.2422 277.172 71.9766V71.7578C277.172 70.9089 277.336 70.151 277.664 69.4844C277.992 68.8125 278.456 68.2969 279.055 67.9375C279.659 67.5729 280.346 67.3906 281.117 67.3906C282.273 67.3906 283.182 67.7552 283.844 68.4844C284.51 69.2135 284.844 70.2474 284.844 71.5859V72.5078H279.461C279.534 73.0599 279.753 73.5026 280.117 73.8359C280.487 74.1693 280.953 74.3359 281.516 74.3359C282.385 74.3359 283.065 74.0208 283.555 73.3906L284.664 74.6328C284.326 75.112 283.867 75.487 283.289 75.7578C282.711 76.0234 282.07 76.1562 281.367 76.1562ZM281.109 69.2188C280.661 69.2188 280.297 69.3698 280.016 69.6719C279.74 69.974 279.562 70.4062 279.484 70.9688H282.625V70.7891C282.615 70.2891 282.479 69.9036 282.219 69.6328C281.958 69.3568 281.589 69.2188 281.109 69.2188ZM290.883 69.6641C290.576 69.6224 290.305 69.6016 290.07 69.6016C289.216 69.6016 288.656 69.8906 288.391 70.4688V76H286.133V67.5469H288.266L288.328 68.5547C288.781 67.7786 289.409 67.3906 290.211 67.3906C290.461 67.3906 290.695 67.4245 290.914 67.4922L290.883 69.6641Z" fill="black"/>
<path d="M234.266 98.293C234.16 99.1953 233.826 99.8926 233.264 100.385C232.705 100.873 231.961 101.117 231.031 101.117C230.023 101.117 229.215 100.756 228.605 100.033C228 99.3105 227.697 98.3438 227.697 97.1328V96.3125C227.697 95.5195 227.838 94.8223 228.119 94.2207C228.404 93.6191 228.807 93.1582 229.326 92.8379C229.846 92.5137 230.447 92.3516 231.131 92.3516C232.037 92.3516 232.764 92.6055 233.311 93.1133C233.857 93.6172 234.176 94.3164 234.266 95.2109H233.135C233.037 94.5312 232.824 94.0391 232.496 93.7344C232.172 93.4297 231.717 93.2773 231.131 93.2773C230.412 93.2773 229.848 93.543 229.438 94.0742C229.031 94.6055 228.828 95.3613 228.828 96.3418V97.168C228.828 98.0938 229.021 98.8301 229.408 99.377C229.795 99.9238 230.336 100.197 231.031 100.197C231.656 100.197 232.135 100.057 232.467 99.7754C232.803 99.4902 233.025 98.9961 233.135 98.293H234.266ZM236.814 101H235.73V92H236.814V101ZM241.186 101.117C240.326 101.117 239.627 100.836 239.088 100.273C238.549 99.707 238.279 98.9512 238.279 98.0059V97.8066C238.279 97.1777 238.398 96.6172 238.637 96.125C238.879 95.6289 239.215 95.2422 239.645 94.9648C240.078 94.6836 240.547 94.543 241.051 94.543C241.875 94.543 242.516 94.8145 242.973 95.3574C243.43 95.9004 243.658 96.6777 243.658 97.6895V98.1406H239.363C239.379 98.7656 239.561 99.2715 239.908 99.6582C240.26 100.041 240.705 100.232 241.244 100.232C241.627 100.232 241.951 100.154 242.217 99.998C242.482 99.8418 242.715 99.6348 242.914 99.377L243.576 99.8926C243.045 100.709 242.248 101.117 241.186 101.117ZM241.051 95.4336C240.613 95.4336 240.246 95.5938 239.949 95.9141C239.652 96.2305 239.469 96.6758 239.398 97.25H242.574V97.168C242.543 96.6172 242.395 96.1914 242.129 95.8906C241.863 95.5859 241.504 95.4336 241.051 95.4336ZM248.832 101C248.77 100.875 248.719 100.652 248.68 100.332C248.176 100.855 247.574 101.117 246.875 101.117C246.25 101.117 245.736 100.941 245.334 100.59C244.936 100.234 244.736 99.7852 244.736 99.2422C244.736 98.582 244.986 98.0703 245.486 97.707C245.99 97.3398 246.697 97.1562 247.607 97.1562H248.662V96.6582C248.662 96.2793 248.549 95.9785 248.322 95.7559C248.096 95.5293 247.762 95.416 247.32 95.416C246.934 95.416 246.609 95.5137 246.348 95.709C246.086 95.9043 245.955 96.1406 245.955 96.418H244.865C244.865 96.1016 244.977 95.7969 245.199 95.5039C245.426 95.207 245.73 94.9727 246.113 94.8008C246.5 94.6289 246.924 94.543 247.385 94.543C248.115 94.543 248.688 94.7266 249.102 95.0938C249.516 95.457 249.73 95.959 249.746 96.5996V99.5176C249.746 100.1 249.82 100.562 249.969 100.906V101H248.832ZM247.033 100.174C247.373 100.174 247.695 100.086 248 99.9102C248.305 99.7344 248.525 99.5059 248.662 99.2246V97.9238H247.812C246.484 97.9238 245.82 98.3125 245.82 99.0898C245.82 99.4297 245.934 99.6953 246.16 99.8867C246.387 100.078 246.678 100.174 247.033 100.174ZM254.51 95.6328C254.346 95.6055 254.168 95.5918 253.977 95.5918C253.266 95.5918 252.783 95.8945 252.529 96.5V101H251.445V94.6602H252.5L252.518 95.3926C252.873 94.8262 253.377 94.543 254.029 94.543C254.24 94.543 254.4 94.5703 254.51 94.625V95.6328ZM256.689 101H255.605V94.6602H256.689V101ZM255.518 92.9785C255.518 92.8027 255.57 92.6543 255.676 92.5332C255.785 92.4121 255.945 92.3516 256.156 92.3516C256.367 92.3516 256.527 92.4121 256.637 92.5332C256.746 92.6543 256.801 92.8027 256.801 92.9785C256.801 93.1543 256.746 93.3008 256.637 93.418C256.527 93.5352 256.367 93.5938 256.156 93.5938C255.945 93.5938 255.785 93.5352 255.676 93.418C255.57 93.3008 255.518 93.1543 255.518 92.9785ZM259.455 94.6602L259.49 95.457C259.975 94.8477 260.607 94.543 261.389 94.543C262.729 94.543 263.404 95.2988 263.416 96.8105V101H262.332V96.8047C262.328 96.3477 262.223 96.0098 262.016 95.791C261.812 95.5723 261.494 95.4629 261.061 95.4629C260.709 95.4629 260.4 95.5566 260.135 95.7441C259.869 95.9316 259.662 96.1777 259.514 96.4824V101H258.43V94.6602H259.455ZM264.793 97.7773C264.793 96.7891 265.021 96.0039 265.479 95.4219C265.936 94.8359 266.541 94.543 267.295 94.543C268.068 94.543 268.672 94.8164 269.105 95.3633L269.158 94.6602H270.148V100.848C270.148 101.668 269.904 102.314 269.416 102.787C268.932 103.26 268.279 103.496 267.459 103.496C267.002 103.496 266.555 103.398 266.117 103.203C265.68 103.008 265.346 102.74 265.115 102.4L265.678 101.75C266.143 102.324 266.711 102.611 267.383 102.611C267.91 102.611 268.32 102.463 268.613 102.166C268.91 101.869 269.059 101.451 269.059 100.912V100.367C268.625 100.867 268.033 101.117 267.283 101.117C266.541 101.117 265.939 100.818 265.479 100.221C265.021 99.623 264.793 98.8086 264.793 97.7773ZM265.883 97.9004C265.883 98.6152 266.029 99.1777 266.322 99.5879C266.615 99.9941 267.025 100.197 267.553 100.197C268.236 100.197 268.738 99.8867 269.059 99.2656V96.3711C268.727 95.7656 268.229 95.4629 267.564 95.4629C267.037 95.4629 266.625 95.668 266.328 96.0781C266.031 96.4883 265.883 97.0957 265.883 97.9004ZM234.547 115H233.416L229.121 108.426V115H227.99V106.469H229.121L233.428 113.072V106.469H234.547V115ZM239.006 115.117C238.146 115.117 237.447 114.836 236.908 114.273C236.369 113.707 236.1 112.951 236.1 112.006V111.807C236.1 111.178 236.219 110.617 236.457 110.125C236.699 109.629 237.035 109.242 237.465 108.965C237.898 108.684 238.367 108.543 238.871 108.543C239.695 108.543 240.336 108.814 240.793 109.357C241.25 109.9 241.479 110.678 241.479 111.689V112.141H237.184C237.199 112.766 237.381 113.271 237.729 113.658C238.08 114.041 238.525 114.232 239.064 114.232C239.447 114.232 239.771 114.154 240.037 113.998C240.303 113.842 240.535 113.635 240.734 113.377L241.396 113.893C240.865 114.709 240.068 115.117 239.006 115.117ZM238.871 109.434C238.434 109.434 238.066 109.594 237.77 109.914C237.473 110.23 237.289 110.676 237.219 111.25H240.395V111.168C240.363 110.617 240.215 110.191 239.949 109.891C239.684 109.586 239.324 109.434 238.871 109.434ZM244.209 107.125V108.66H245.393V109.498H244.209V113.43C244.209 113.684 244.262 113.875 244.367 114.004C244.473 114.129 244.652 114.191 244.906 114.191C245.031 114.191 245.203 114.168 245.422 114.121V115C245.137 115.078 244.859 115.117 244.59 115.117C244.105 115.117 243.74 114.971 243.494 114.678C243.248 114.385 243.125 113.969 243.125 113.43V109.498H241.971V108.66H243.125V107.125H244.209ZM252.277 113.506L253.496 108.66H254.58L252.734 115H251.855L250.314 110.195L248.814 115H247.936L246.096 108.66H247.174L248.422 113.406L249.898 108.66H250.771L252.277 113.506ZM255.4 111.771C255.4 111.15 255.521 110.592 255.764 110.096C256.01 109.6 256.35 109.217 256.783 108.947C257.221 108.678 257.719 108.543 258.277 108.543C259.141 108.543 259.838 108.842 260.369 109.439C260.904 110.037 261.172 110.832 261.172 111.824V111.9C261.172 112.518 261.053 113.072 260.814 113.564C260.58 114.053 260.242 114.434 259.801 114.707C259.363 114.98 258.859 115.117 258.289 115.117C257.43 115.117 256.732 114.818 256.197 114.221C255.666 113.623 255.4 112.832 255.4 111.848V111.771ZM256.49 111.9C256.49 112.604 256.652 113.168 256.977 113.594C257.305 114.02 257.742 114.232 258.289 114.232C258.84 114.232 259.277 114.018 259.602 113.588C259.926 113.154 260.088 112.549 260.088 111.771C260.088 111.076 259.922 110.514 259.59 110.084C259.262 109.65 258.824 109.434 258.277 109.434C257.742 109.434 257.311 109.646 256.982 110.072C256.654 110.498 256.49 111.107 256.49 111.9ZM265.596 109.633C265.432 109.605 265.254 109.592 265.062 109.592C264.352 109.592 263.869 109.895 263.615 110.5V115H262.531V108.66H263.586L263.604 109.393C263.959 108.826 264.463 108.543 265.115 108.543C265.326 108.543 265.486 108.57 265.596 108.625V109.633ZM268.367 112.064L267.688 112.773V115H266.604V106H267.688V111.443L268.268 110.746L270.242 108.66H271.561L269.094 111.309L271.848 115H270.576L268.367 112.064Z" fill="black"/>
<path d="M80.8359 193.656H76.7266L75.9453 196H73.4531L77.6875 184.625H79.8594L84.1172 196H81.625L80.8359 193.656ZM77.3594 191.758H80.2031L78.7734 187.5L77.3594 191.758ZM84.6797 191.695C84.6797 190.367 84.974 189.318 85.5625 188.547C86.1562 187.776 86.9688 187.391 88 187.391C88.9062 187.391 89.6276 187.737 90.1641 188.43L90.3125 187.547H92.2969V199.25H90.0312V195.273C89.5104 195.862 88.8281 196.156 87.9844 196.156C86.9792 196.156 86.1771 195.766 85.5781 194.984C84.9792 194.203 84.6797 193.107 84.6797 191.695ZM86.9375 191.859C86.9375 192.667 87.0781 193.281 87.3594 193.703C87.6458 194.125 88.0469 194.336 88.5625 194.336C89.2552 194.336 89.7448 194.06 90.0312 193.508V190.016C89.75 189.484 89.2656 189.219 88.5781 189.219C88.0573 189.219 87.6536 189.43 87.3672 189.852C87.0807 190.273 86.9375 190.943 86.9375 191.859ZM99.1406 195.141C98.5833 195.818 97.8125 196.156 96.8281 196.156C95.9219 196.156 95.2292 195.896 94.75 195.375C94.276 194.854 94.0339 194.091 94.0234 193.086V187.547H96.2812V193.008C96.2812 193.888 96.6823 194.328 97.4844 194.328C98.25 194.328 98.776 194.062 99.0625 193.531V187.547H101.328V196H99.2031L99.1406 195.141ZM105.414 196H103.148V187.547H105.414V196ZM103.016 185.359C103.016 185.021 103.128 184.742 103.352 184.523C103.581 184.305 103.891 184.195 104.281 184.195C104.667 184.195 104.974 184.305 105.203 184.523C105.432 184.742 105.547 185.021 105.547 185.359C105.547 185.703 105.43 185.984 105.195 186.203C104.966 186.422 104.661 186.531 104.281 186.531C103.901 186.531 103.594 186.422 103.359 186.203C103.13 185.984 103.016 185.703 103.016 185.359ZM112.031 189.664C111.724 189.622 111.453 189.602 111.219 189.602C110.365 189.602 109.805 189.891 109.539 190.469V196H107.281V187.547H109.414L109.477 188.555C109.93 187.779 110.557 187.391 111.359 187.391C111.609 187.391 111.844 187.424 112.062 187.492L112.031 189.664ZM116.859 196.156C115.62 196.156 114.609 195.776 113.828 195.016C113.052 194.255 112.664 193.242 112.664 191.977V191.758C112.664 190.909 112.828 190.151 113.156 189.484C113.484 188.812 113.948 188.297 114.547 187.938C115.151 187.573 115.839 187.391 116.609 187.391C117.766 187.391 118.674 187.755 119.336 188.484C120.003 189.214 120.336 190.247 120.336 191.586V192.508H114.953C115.026 193.06 115.245 193.503 115.609 193.836C115.979 194.169 116.445 194.336 117.008 194.336C117.878 194.336 118.557 194.021 119.047 193.391L120.156 194.633C119.818 195.112 119.359 195.487 118.781 195.758C118.203 196.023 117.562 196.156 116.859 196.156ZM116.602 189.219C116.154 189.219 115.789 189.37 115.508 189.672C115.232 189.974 115.055 190.406 114.977 190.969H118.117V190.789C118.107 190.289 117.971 189.904 117.711 189.633C117.451 189.357 117.081 189.219 116.602 189.219ZM126.375 189.664C126.068 189.622 125.797 189.602 125.562 189.602C124.708 189.602 124.148 189.891 123.883 190.469V196H121.625V187.547H123.758L123.82 188.555C124.273 187.779 124.901 187.391 125.703 187.391C125.953 187.391 126.188 187.424 126.406 187.492L126.375 189.664Z" fill="black"/>
<path d="M70.2734 399.625L73.1953 407.875L76.1016 399.625H79.1797V411H76.8281V407.891L77.0625 402.523L73.9922 411H72.3828L69.3203 402.531L69.5547 407.891V411H67.2109V399.625H70.2734ZM84.9688 411.156C83.7292 411.156 82.7188 410.776 81.9375 410.016C81.1615 409.255 80.7734 408.242 80.7734 406.977V406.758C80.7734 405.909 80.9375 405.151 81.2656 404.484C81.5938 403.812 82.0573 403.297 82.6562 402.938C83.2604 402.573 83.9479 402.391 84.7188 402.391C85.875 402.391 86.7839 402.755 87.4453 403.484C88.112 404.214 88.4453 405.247 88.4453 406.586V407.508H83.0625C83.1354 408.06 83.3542 408.503 83.7188 408.836C84.0885 409.169 84.5547 409.336 85.1172 409.336C85.987 409.336 86.6667 409.021 87.1562 408.391L88.2656 409.633C87.9271 410.112 87.4688 410.487 86.8906 410.758C86.3125 411.023 85.6719 411.156 84.9688 411.156ZM84.7109 404.219C84.263 404.219 83.8984 404.37 83.6172 404.672C83.3411 404.974 83.1641 405.406 83.0859 405.969H86.2266V405.789C86.2161 405.289 86.0807 404.904 85.8203 404.633C85.5599 404.357 85.1901 404.219 84.7109 404.219ZM94.4844 404.664C94.1771 404.622 93.9062 404.602 93.6719 404.602C92.8177 404.602 92.2578 404.891 91.9922 405.469V411H89.7344V402.547H91.8672L91.9297 403.555C92.3828 402.779 93.0104 402.391 93.8125 402.391C94.0625 402.391 94.2969 402.424 94.5156 402.492L94.4844 404.664ZM98.9375 409.336C99.3542 409.336 99.6927 409.221 99.9531 408.992C100.214 408.763 100.349 408.458 100.359 408.078H102.477C102.471 408.651 102.315 409.177 102.008 409.656C101.701 410.13 101.279 410.5 100.742 410.766C100.211 411.026 99.6224 411.156 98.9766 411.156C97.7682 411.156 96.8151 410.773 96.1172 410.008C95.4193 409.237 95.0703 408.174 95.0703 406.82V406.672C95.0703 405.37 95.4167 404.331 96.1094 403.555C96.8021 402.779 97.7526 402.391 98.9609 402.391C100.018 402.391 100.865 402.693 101.5 403.297C102.141 403.896 102.466 404.695 102.477 405.695H100.359C100.349 405.258 100.214 404.904 99.9531 404.633C99.6927 404.357 99.349 404.219 98.9219 404.219C98.3958 404.219 97.9974 404.411 97.7266 404.797C97.4609 405.177 97.3281 405.797 97.3281 406.656V406.891C97.3281 407.76 97.4609 408.385 97.7266 408.766C97.9922 409.146 98.3958 409.336 98.9375 409.336ZM105.969 403.469C106.568 402.75 107.32 402.391 108.227 402.391C110.06 402.391 110.99 403.456 111.016 405.586V411H108.758V405.648C108.758 405.164 108.654 404.807 108.445 404.578C108.237 404.344 107.891 404.227 107.406 404.227C106.745 404.227 106.266 404.482 105.969 404.992V411H103.711V399H105.969V403.469ZM117.617 411C117.513 410.797 117.438 410.544 117.391 410.242C116.844 410.852 116.133 411.156 115.258 411.156C114.43 411.156 113.742 410.917 113.195 410.438C112.654 409.958 112.383 409.354 112.383 408.625C112.383 407.729 112.714 407.042 113.375 406.562C114.042 406.083 115.003 405.841 116.258 405.836H117.297V405.352C117.297 404.961 117.195 404.648 116.992 404.414C116.794 404.18 116.479 404.062 116.047 404.062C115.667 404.062 115.367 404.154 115.148 404.336C114.935 404.518 114.828 404.768 114.828 405.086H112.57C112.57 404.596 112.721 404.143 113.023 403.727C113.326 403.31 113.753 402.984 114.305 402.75C114.857 402.51 115.477 402.391 116.164 402.391C117.206 402.391 118.031 402.654 118.641 403.18C119.255 403.701 119.562 404.435 119.562 405.383V409.047C119.568 409.849 119.68 410.456 119.898 410.867V411H117.617ZM115.75 409.43C116.083 409.43 116.391 409.357 116.672 409.211C116.953 409.06 117.161 408.859 117.297 408.609V407.156H116.453C115.323 407.156 114.721 407.547 114.648 408.328L114.641 408.461C114.641 408.742 114.74 408.974 114.938 409.156C115.135 409.339 115.406 409.43 115.75 409.43ZM123.375 402.547L123.445 403.523C124.049 402.768 124.859 402.391 125.875 402.391C126.771 402.391 127.438 402.654 127.875 403.18C128.312 403.706 128.536 404.492 128.547 405.539V411H126.289V405.594C126.289 405.115 126.185 404.768 125.977 404.555C125.768 404.336 125.422 404.227 124.938 404.227C124.302 404.227 123.826 404.497 123.508 405.039V411H121.25V402.547H123.375ZM132.969 400.469V402.547H134.414V404.203H132.969V408.422C132.969 408.734 133.029 408.958 133.148 409.094C133.268 409.229 133.497 409.297 133.836 409.297C134.086 409.297 134.307 409.279 134.5 409.242V410.953C134.057 411.089 133.602 411.156 133.133 411.156C131.549 411.156 130.742 410.357 130.711 408.758V404.203H129.477V402.547H130.711V400.469H132.969Z" fill="black"/>
<path d="M374.328 407.211C374.24 408.435 373.786 409.398 372.969 410.102C372.156 410.805 371.083 411.156 369.75 411.156C368.292 411.156 367.143 410.667 366.305 409.688C365.471 408.703 365.055 407.354 365.055 405.641V404.945C365.055 403.852 365.247 402.888 365.633 402.055C366.018 401.221 366.568 400.583 367.281 400.141C368 399.693 368.833 399.469 369.781 399.469C371.094 399.469 372.151 399.82 372.953 400.523C373.755 401.227 374.219 402.214 374.344 403.484H372C371.943 402.75 371.737 402.219 371.383 401.891C371.034 401.557 370.5 401.391 369.781 401.391C369 401.391 368.414 401.672 368.023 402.234C367.638 402.792 367.44 403.659 367.43 404.836V405.695C367.43 406.924 367.615 407.823 367.984 408.391C368.359 408.958 368.948 409.242 369.75 409.242C370.474 409.242 371.013 409.078 371.367 408.75C371.727 408.417 371.932 407.904 371.984 407.211H374.328ZM380.781 410.141C380.224 410.818 379.453 411.156 378.469 411.156C377.562 411.156 376.87 410.896 376.391 410.375C375.917 409.854 375.674 409.091 375.664 408.086V402.547H377.922V408.008C377.922 408.888 378.323 409.328 379.125 409.328C379.891 409.328 380.417 409.062 380.703 408.531V402.547H382.969V411H380.844L380.781 410.141ZM389.25 408.664C389.25 408.388 389.112 408.172 388.836 408.016C388.565 407.854 388.128 407.711 387.523 407.586C385.513 407.164 384.508 406.31 384.508 405.023C384.508 404.273 384.818 403.648 385.438 403.148C386.062 402.643 386.878 402.391 387.883 402.391C388.956 402.391 389.812 402.643 390.453 403.148C391.099 403.654 391.422 404.31 391.422 405.117H389.164C389.164 404.794 389.06 404.529 388.852 404.32C388.643 404.107 388.318 404 387.875 404C387.495 404 387.201 404.086 386.992 404.258C386.784 404.43 386.68 404.648 386.68 404.914C386.68 405.164 386.797 405.367 387.031 405.523C387.271 405.674 387.672 405.807 388.234 405.922C388.797 406.031 389.271 406.156 389.656 406.297C390.849 406.734 391.445 407.492 391.445 408.57C391.445 409.341 391.115 409.966 390.453 410.445C389.792 410.919 388.938 411.156 387.891 411.156C387.182 411.156 386.552 411.031 386 410.781C385.453 410.526 385.023 410.18 384.711 409.742C384.398 409.299 384.242 408.823 384.242 408.312H386.383C386.404 408.714 386.552 409.021 386.828 409.234C387.104 409.448 387.474 409.555 387.938 409.555C388.37 409.555 388.695 409.474 388.914 409.312C389.138 409.146 389.25 408.93 389.25 408.664ZM395.609 400.469V402.547H397.055V404.203H395.609V408.422C395.609 408.734 395.669 408.958 395.789 409.094C395.909 409.229 396.138 409.297 396.477 409.297C396.727 409.297 396.948 409.279 397.141 409.242V410.953C396.698 411.089 396.242 411.156 395.773 411.156C394.19 411.156 393.383 410.357 393.352 408.758V404.203H392.117V402.547H393.352V400.469H395.609ZM397.727 406.695C397.727 405.857 397.888 405.109 398.211 404.453C398.534 403.797 398.997 403.289 399.602 402.93C400.211 402.57 400.917 402.391 401.719 402.391C402.859 402.391 403.789 402.74 404.508 403.438C405.232 404.135 405.635 405.083 405.719 406.281L405.734 406.859C405.734 408.156 405.372 409.198 404.648 409.984C403.924 410.766 402.953 411.156 401.734 411.156C400.516 411.156 399.542 410.766 398.812 409.984C398.089 409.203 397.727 408.141 397.727 406.797V406.695ZM399.984 406.859C399.984 407.661 400.135 408.276 400.438 408.703C400.74 409.125 401.172 409.336 401.734 409.336C402.281 409.336 402.708 409.128 403.016 408.711C403.323 408.289 403.477 407.617 403.477 406.695C403.477 405.909 403.323 405.299 403.016 404.867C402.708 404.435 402.276 404.219 401.719 404.219C401.167 404.219 400.74 404.435 400.438 404.867C400.135 405.294 399.984 405.958 399.984 406.859ZM409.242 402.547L409.312 403.492C409.911 402.758 410.721 402.391 411.742 402.391C412.831 402.391 413.578 402.82 413.984 403.68C414.578 402.82 415.424 402.391 416.523 402.391C417.44 402.391 418.122 402.659 418.57 403.195C419.018 403.727 419.242 404.529 419.242 405.602V411H416.977V405.609C416.977 405.13 416.883 404.781 416.695 404.562C416.508 404.339 416.177 404.227 415.703 404.227C415.026 404.227 414.557 404.549 414.297 405.195L414.305 411H412.047V405.617C412.047 405.128 411.951 404.773 411.758 404.555C411.565 404.336 411.237 404.227 410.773 404.227C410.133 404.227 409.669 404.492 409.383 405.023V411H407.125V402.547H409.242ZM424.875 411.156C423.635 411.156 422.625 410.776 421.844 410.016C421.068 409.255 420.68 408.242 420.68 406.977V406.758C420.68 405.909 420.844 405.151 421.172 404.484C421.5 403.812 421.964 403.297 422.562 402.938C423.167 402.573 423.854 402.391 424.625 402.391C425.781 402.391 426.69 402.755 427.352 403.484C428.018 404.214 428.352 405.247 428.352 406.586V407.508H422.969C423.042 408.06 423.26 408.503 423.625 408.836C423.995 409.169 424.461 409.336 425.023 409.336C425.893 409.336 426.573 409.021 427.062 408.391L428.172 409.633C427.833 410.112 427.375 410.487 426.797 410.758C426.219 411.023 425.578 411.156 424.875 411.156ZM424.617 404.219C424.169 404.219 423.805 404.37 423.523 404.672C423.247 404.974 423.07 405.406 422.992 405.969H426.133V405.789C426.122 405.289 425.987 404.904 425.727 404.633C425.466 404.357 425.096 404.219 424.617 404.219ZM434.391 404.664C434.083 404.622 433.812 404.602 433.578 404.602C432.724 404.602 432.164 404.891 431.898 405.469V411H429.641V402.547H431.773L431.836 403.555C432.289 402.779 432.917 402.391 433.719 402.391C433.969 402.391 434.203 402.424 434.422 402.492L434.391 404.664Z" fill="black"/>
<path d="M380.711 196H378.367V184.625H380.711V196ZM387.32 193.664C387.32 193.388 387.182 193.172 386.906 193.016C386.635 192.854 386.198 192.711 385.594 192.586C383.583 192.164 382.578 191.31 382.578 190.023C382.578 189.273 382.888 188.648 383.508 188.148C384.133 187.643 384.948 187.391 385.953 187.391C387.026 187.391 387.883 187.643 388.523 188.148C389.169 188.654 389.492 189.31 389.492 190.117H387.234C387.234 189.794 387.13 189.529 386.922 189.32C386.714 189.107 386.388 189 385.945 189C385.565 189 385.271 189.086 385.062 189.258C384.854 189.43 384.75 189.648 384.75 189.914C384.75 190.164 384.867 190.367 385.102 190.523C385.341 190.674 385.742 190.807 386.305 190.922C386.867 191.031 387.341 191.156 387.727 191.297C388.919 191.734 389.516 192.492 389.516 193.57C389.516 194.341 389.185 194.966 388.523 195.445C387.862 195.919 387.008 196.156 385.961 196.156C385.253 196.156 384.622 196.031 384.07 195.781C383.523 195.526 383.094 195.18 382.781 194.742C382.469 194.299 382.312 193.823 382.312 193.312H384.453C384.474 193.714 384.622 194.021 384.898 194.234C385.174 194.448 385.544 194.555 386.008 194.555C386.44 194.555 386.766 194.474 386.984 194.312C387.208 194.146 387.32 193.93 387.32 193.664ZM395.555 193.664C395.555 193.388 395.417 193.172 395.141 193.016C394.87 192.854 394.432 192.711 393.828 192.586C391.818 192.164 390.812 191.31 390.812 190.023C390.812 189.273 391.122 188.648 391.742 188.148C392.367 187.643 393.182 187.391 394.188 187.391C395.26 187.391 396.117 187.643 396.758 188.148C397.404 188.654 397.727 189.31 397.727 190.117H395.469C395.469 189.794 395.365 189.529 395.156 189.32C394.948 189.107 394.622 189 394.18 189C393.799 189 393.505 189.086 393.297 189.258C393.089 189.43 392.984 189.648 392.984 189.914C392.984 190.164 393.102 190.367 393.336 190.523C393.576 190.674 393.977 190.807 394.539 190.922C395.102 191.031 395.576 191.156 395.961 191.297C397.154 191.734 397.75 192.492 397.75 193.57C397.75 194.341 397.419 194.966 396.758 195.445C396.096 195.919 395.242 196.156 394.195 196.156C393.487 196.156 392.857 196.031 392.305 195.781C391.758 195.526 391.328 195.18 391.016 194.742C390.703 194.299 390.547 193.823 390.547 193.312H392.688C392.708 193.714 392.857 194.021 393.133 194.234C393.409 194.448 393.779 194.555 394.242 194.555C394.674 194.555 395 194.474 395.219 194.312C395.443 194.146 395.555 193.93 395.555 193.664ZM404.273 195.141C403.716 195.818 402.945 196.156 401.961 196.156C401.055 196.156 400.362 195.896 399.883 195.375C399.409 194.854 399.167 194.091 399.156 193.086V187.547H401.414V193.008C401.414 193.888 401.815 194.328 402.617 194.328C403.383 194.328 403.909 194.062 404.195 193.531V187.547H406.461V196H404.336L404.273 195.141ZM412.055 196.156C410.815 196.156 409.805 195.776 409.023 195.016C408.247 194.255 407.859 193.242 407.859 191.977V191.758C407.859 190.909 408.023 190.151 408.352 189.484C408.68 188.812 409.143 188.297 409.742 187.938C410.346 187.573 411.034 187.391 411.805 187.391C412.961 187.391 413.87 187.755 414.531 188.484C415.198 189.214 415.531 190.247 415.531 191.586V192.508H410.148C410.221 193.06 410.44 193.503 410.805 193.836C411.174 194.169 411.641 194.336 412.203 194.336C413.073 194.336 413.753 194.021 414.242 193.391L415.352 194.633C415.013 195.112 414.555 195.487 413.977 195.758C413.398 196.023 412.758 196.156 412.055 196.156ZM411.797 189.219C411.349 189.219 410.984 189.37 410.703 189.672C410.427 189.974 410.25 190.406 410.172 190.969H413.312V190.789C413.302 190.289 413.167 189.904 412.906 189.633C412.646 189.357 412.276 189.219 411.797 189.219ZM421.57 189.664C421.263 189.622 420.992 189.602 420.758 189.602C419.904 189.602 419.344 189.891 419.078 190.469V196H416.82V187.547H418.953L419.016 188.555C419.469 187.779 420.096 187.391 420.898 187.391C421.148 187.391 421.383 187.424 421.602 187.492L421.57 189.664Z" fill="black"/>
<path d="M74.7773 213.18L77.334 219.561L79.8906 213.18H81.228V221H80.1968V217.955L80.2935 214.667L77.7261 221H76.9365L74.3745 214.684L74.4766 217.955V221H73.4453V213.18H74.7773ZM85.3047 221.107C84.5169 221.107 83.876 220.85 83.3818 220.334C82.8877 219.815 82.6406 219.122 82.6406 218.255V218.073C82.6406 217.496 82.7498 216.982 82.9683 216.531C83.1903 216.076 83.4982 215.722 83.8921 215.468C84.2896 215.21 84.7192 215.081 85.1812 215.081C85.9367 215.081 86.5239 215.33 86.9429 215.828C87.3618 216.325 87.5713 217.038 87.5713 217.965V218.379H83.6343C83.6486 218.952 83.8151 219.416 84.1338 219.77C84.4561 220.121 84.8643 220.296 85.3584 220.296C85.7093 220.296 86.0065 220.225 86.25 220.082C86.4935 219.938 86.7065 219.749 86.8892 219.512L87.4961 219.985C87.0091 220.733 86.2786 221.107 85.3047 221.107ZM85.1812 215.897C84.7801 215.897 84.4435 216.044 84.1714 216.338C83.8993 216.628 83.731 217.036 83.6665 217.562H86.5776V217.487C86.549 216.982 86.4129 216.592 86.1694 216.316C85.9259 216.037 85.5965 215.897 85.1812 215.897ZM91.5352 216.08C91.3848 216.055 91.2218 216.042 91.0464 216.042C90.3947 216.042 89.9525 216.32 89.7197 216.875V221H88.7261V215.188H89.6929L89.709 215.86C90.0348 215.341 90.4967 215.081 91.0947 215.081C91.2881 215.081 91.4349 215.106 91.5352 215.156V216.08ZM94.6772 220.296C95.0317 220.296 95.3415 220.189 95.6064 219.974C95.8714 219.759 96.0182 219.491 96.0469 219.168H96.9868C96.9689 219.501 96.8543 219.818 96.6431 220.119C96.4318 220.42 96.1489 220.66 95.7944 220.839C95.4435 221.018 95.0711 221.107 94.6772 221.107C93.8859 221.107 93.2557 220.844 92.7866 220.318C92.3211 219.788 92.0884 219.065 92.0884 218.148V217.981C92.0884 217.416 92.1922 216.913 92.3999 216.472C92.6076 216.032 92.9048 215.69 93.2915 215.446C93.6818 215.203 94.1419 215.081 94.6719 215.081C95.3236 215.081 95.8643 215.276 96.2939 215.667C96.7272 216.057 96.9582 216.563 96.9868 217.187H96.0469C96.0182 216.811 95.875 216.503 95.6172 216.263C95.363 216.019 95.0479 215.897 94.6719 215.897C94.167 215.897 93.7749 216.08 93.4956 216.445C93.2199 216.807 93.082 217.332 93.082 218.019V218.207C93.082 218.877 93.2199 219.392 93.4956 219.754C93.7713 220.116 94.1652 220.296 94.6772 220.296ZM99.0977 215.892C99.5381 215.351 100.111 215.081 100.816 215.081C102.045 215.081 102.664 215.774 102.675 217.16V221H101.681V217.154C101.678 216.735 101.581 216.426 101.391 216.225C101.205 216.025 100.913 215.924 100.516 215.924C100.193 215.924 99.9105 216.01 99.667 216.182C99.4235 216.354 99.2337 216.58 99.0977 216.859V221H98.104V212.75H99.0977V215.892ZM107.75 221C107.693 220.885 107.647 220.681 107.611 220.388C107.149 220.868 106.597 221.107 105.957 221.107C105.384 221.107 104.913 220.946 104.544 220.624C104.179 220.298 103.996 219.886 103.996 219.389C103.996 218.784 104.225 218.314 104.684 217.981C105.146 217.645 105.794 217.477 106.628 217.477H107.595V217.02C107.595 216.673 107.491 216.397 107.283 216.193C107.076 215.985 106.769 215.881 106.365 215.881C106.01 215.881 105.713 215.971 105.473 216.15C105.233 216.329 105.113 216.546 105.113 216.8H104.114C104.114 216.51 104.216 216.23 104.42 215.962C104.628 215.69 104.907 215.475 105.258 215.317C105.613 215.16 106.001 215.081 106.424 215.081C107.093 215.081 107.618 215.249 107.998 215.586C108.377 215.919 108.574 216.379 108.588 216.966V219.641C108.588 220.175 108.656 220.599 108.792 220.914V221H107.75ZM106.102 220.243C106.413 220.243 106.708 220.162 106.988 220.001C107.267 219.84 107.469 219.63 107.595 219.373V218.18H106.816C105.598 218.18 104.99 218.536 104.99 219.249C104.99 219.561 105.094 219.804 105.301 219.979C105.509 220.155 105.776 220.243 106.102 220.243ZM111.086 215.188L111.118 215.919C111.562 215.36 112.142 215.081 112.858 215.081C114.087 215.081 114.706 215.774 114.717 217.16V221H113.723V217.154C113.72 216.735 113.623 216.426 113.433 216.225C113.247 216.025 112.955 215.924 112.558 215.924C112.235 215.924 111.952 216.01 111.709 216.182C111.465 216.354 111.276 216.58 111.14 216.859V221H110.146V215.188H111.086ZM117.563 213.781V215.188H118.648V215.957H117.563V219.561C117.563 219.793 117.612 219.969 117.708 220.087C117.805 220.201 117.97 220.259 118.203 220.259C118.317 220.259 118.475 220.237 118.675 220.194V221C118.414 221.072 118.16 221.107 117.913 221.107C117.469 221.107 117.134 220.973 116.908 220.705C116.683 220.436 116.57 220.055 116.57 219.561V215.957H115.512V215.188H116.57V213.781H117.563ZM123.198 219.458C123.198 219.19 123.096 218.982 122.892 218.835C122.691 218.685 122.338 218.556 121.833 218.449C121.332 218.341 120.933 218.212 120.636 218.062C120.342 217.912 120.124 217.733 119.98 217.525C119.841 217.317 119.771 217.07 119.771 216.784C119.771 216.307 119.972 215.905 120.373 215.575C120.777 215.246 121.293 215.081 121.919 215.081C122.578 215.081 123.112 215.251 123.52 215.591C123.932 215.931 124.138 216.367 124.138 216.896H123.139C123.139 216.624 123.022 216.39 122.79 216.193C122.56 215.996 122.27 215.897 121.919 215.897C121.558 215.897 121.275 215.976 121.071 216.134C120.867 216.291 120.765 216.497 120.765 216.751C120.765 216.991 120.86 217.172 121.049 217.294C121.239 217.416 121.581 217.532 122.075 217.643C122.573 217.754 122.976 217.887 123.284 218.041C123.592 218.194 123.819 218.381 123.966 218.599C124.116 218.814 124.191 219.077 124.191 219.389C124.191 219.908 123.984 220.325 123.568 220.64C123.153 220.952 122.614 221.107 121.952 221.107C121.486 221.107 121.074 221.025 120.716 220.86C120.358 220.696 120.077 220.466 119.873 220.173C119.673 219.876 119.572 219.555 119.572 219.211H120.566C120.584 219.544 120.716 219.809 120.963 220.006C121.214 220.2 121.543 220.296 121.952 220.296C122.328 220.296 122.628 220.221 122.854 220.071C123.083 219.917 123.198 219.713 123.198 219.458ZM54.1255 230.938V234H53.0942V226.18H55.9785C56.8343 226.18 57.5039 226.398 57.9873 226.835C58.4743 227.272 58.7178 227.85 58.7178 228.57C58.7178 229.329 58.4797 229.914 58.0034 230.326C57.5308 230.734 56.8522 230.938 55.9678 230.938H54.1255ZM54.1255 230.095H55.9785C56.5299 230.095 56.9525 229.966 57.2461 229.708C57.5397 229.447 57.6865 229.071 57.6865 228.581C57.6865 228.115 57.5397 227.743 57.2461 227.463C56.9525 227.184 56.5496 227.039 56.0376 227.028H54.1255V230.095ZM63.4014 234C63.3441 233.885 63.2975 233.681 63.2617 233.388C62.7998 233.868 62.2484 234.107 61.6074 234.107C61.0345 234.107 60.5636 233.946 60.1948 233.624C59.8296 233.298 59.647 232.886 59.647 232.389C59.647 231.784 59.8761 231.314 60.3345 230.981C60.7964 230.645 61.4445 230.477 62.2788 230.477H63.2456V230.02C63.2456 229.673 63.1418 229.397 62.9341 229.193C62.7264 228.985 62.4202 228.881 62.0156 228.881C61.6611 228.881 61.3639 228.971 61.124 229.15C60.8841 229.329 60.7642 229.546 60.7642 229.8H59.7651C59.7651 229.51 59.8672 229.23 60.0713 228.962C60.279 228.69 60.5583 228.475 60.9092 228.317C61.2637 228.16 61.6522 228.081 62.0747 228.081C62.7443 228.081 63.2689 228.249 63.6484 228.586C64.028 228.919 64.2249 229.379 64.2393 229.966V232.641C64.2393 233.175 64.3073 233.599 64.4434 233.914V234H63.4014ZM61.7524 233.243C62.064 233.243 62.3594 233.162 62.6387 233.001C62.918 232.84 63.1203 232.63 63.2456 232.373V231.18H62.4668C61.2493 231.18 60.6406 231.536 60.6406 232.249C60.6406 232.561 60.7445 232.804 60.9521 232.979C61.1598 233.155 61.4266 233.243 61.7524 233.243ZM67.6123 232.544L68.9658 228.188H70.0293L67.6929 234.897C67.3312 235.864 66.7565 236.347 65.9688 236.347L65.7808 236.331L65.4102 236.261V235.456L65.6787 235.477C66.0153 235.477 66.2767 235.409 66.4629 235.273C66.6527 235.137 66.8084 234.888 66.9302 234.526L67.1504 233.936L65.0771 228.188H66.1621L67.6123 232.544ZM71.8555 228.188L71.8823 228.833C72.3084 228.332 72.8831 228.081 73.6064 228.081C74.4193 228.081 74.9725 228.393 75.2661 229.016C75.4595 228.736 75.7101 228.511 76.0181 228.339C76.3296 228.167 76.6966 228.081 77.1191 228.081C78.3939 228.081 79.042 228.756 79.0635 230.106V234H78.0698V230.165C78.0698 229.75 77.9749 229.44 77.7852 229.236C77.5954 229.028 77.2767 228.924 76.8291 228.924C76.4603 228.924 76.1541 229.035 75.9106 229.257C75.6672 229.476 75.5257 229.771 75.4863 230.144V234H74.4873V230.192C74.4873 229.347 74.0737 228.924 73.2466 228.924C72.5949 228.924 72.1491 229.202 71.9092 229.757V234H70.9155V228.188H71.8555ZM82.979 234.107C82.1912 234.107 81.5503 233.85 81.0562 233.334C80.562 232.815 80.3149 232.122 80.3149 231.255V231.073C80.3149 230.496 80.4242 229.982 80.6426 229.531C80.8646 229.076 81.1725 228.722 81.5664 228.468C81.9639 228.21 82.3936 228.081 82.8555 228.081C83.611 228.081 84.1982 228.33 84.6172 228.828C85.0361 229.325 85.2456 230.038 85.2456 230.965V231.379H81.3086C81.3229 231.952 81.4894 232.416 81.8081 232.77C82.1304 233.121 82.5386 233.296 83.0327 233.296C83.3836 233.296 83.6808 233.225 83.9243 233.082C84.1678 232.938 84.3809 232.749 84.5635 232.512L85.1704 232.985C84.6834 233.733 83.953 234.107 82.979 234.107ZM82.8555 228.897C82.4544 228.897 82.1178 229.044 81.8457 229.338C81.5736 229.628 81.4053 230.036 81.3408 230.562H84.252V230.487C84.2233 229.982 84.0872 229.592 83.8438 229.316C83.6003 229.037 83.2708 228.897 82.8555 228.897ZM87.3403 228.188L87.3726 228.919C87.8166 228.36 88.3966 228.081 89.1128 228.081C90.341 228.081 90.9604 228.774 90.9712 230.16V234H89.9775V230.154C89.974 229.735 89.8773 229.426 89.6875 229.225C89.5013 229.025 89.2095 228.924 88.812 228.924C88.4897 228.924 88.2069 229.01 87.9634 229.182C87.7199 229.354 87.5301 229.58 87.394 229.859V234H86.4004V228.188H87.3403ZM93.8179 226.781V228.188H94.9028V228.957H93.8179V232.561C93.8179 232.793 93.8662 232.969 93.9629 233.087C94.0596 233.201 94.2243 233.259 94.457 233.259C94.5716 233.259 94.7292 233.237 94.9297 233.194V234C94.6683 234.072 94.4141 234.107 94.167 234.107C93.723 234.107 93.3882 233.973 93.1626 233.705C92.937 233.436 92.8242 233.055 92.8242 232.561V228.957H91.7661V228.188H92.8242V226.781H93.8179ZM99.9839 230.938V234H98.9526V226.18H101.837C102.693 226.18 103.362 226.398 103.846 226.835C104.333 227.272 104.576 227.85 104.576 228.57C104.576 229.329 104.338 229.914 103.862 230.326C103.389 230.734 102.711 230.938 101.826 230.938H99.9839ZM99.9839 230.095H101.837C102.388 230.095 102.811 229.966 103.104 229.708C103.398 229.447 103.545 229.071 103.545 228.581C103.545 228.115 103.398 227.743 103.104 227.463C102.811 227.184 102.408 227.039 101.896 227.028H99.9839V230.095ZM108.545 229.08C108.395 229.055 108.232 229.042 108.057 229.042C107.405 229.042 106.963 229.32 106.73 229.875V234H105.736V228.188H106.703L106.719 228.86C107.045 228.341 107.507 228.081 108.105 228.081C108.298 228.081 108.445 228.106 108.545 228.156V229.08ZM109.093 231.041C109.093 230.471 109.204 229.959 109.426 229.504C109.652 229.05 109.963 228.699 110.361 228.452C110.762 228.205 111.218 228.081 111.73 228.081C112.522 228.081 113.161 228.355 113.648 228.903C114.139 229.451 114.384 230.179 114.384 231.089V231.159C114.384 231.724 114.275 232.233 114.056 232.684C113.841 233.132 113.532 233.481 113.127 233.731C112.726 233.982 112.264 234.107 111.741 234.107C110.953 234.107 110.314 233.833 109.824 233.286C109.337 232.738 109.093 232.013 109.093 231.11V231.041ZM110.092 231.159C110.092 231.803 110.241 232.321 110.538 232.711C110.839 233.101 111.24 233.296 111.741 233.296C112.246 233.296 112.647 233.099 112.944 232.706C113.242 232.308 113.39 231.753 113.39 231.041C113.39 230.403 113.238 229.888 112.934 229.494C112.633 229.096 112.232 228.897 111.73 228.897C111.24 228.897 110.844 229.093 110.543 229.483C110.243 229.873 110.092 230.432 110.092 231.159ZM117.961 233.296C118.315 233.296 118.625 233.189 118.89 232.974C119.155 232.759 119.302 232.491 119.331 232.168H120.271C120.253 232.501 120.138 232.818 119.927 233.119C119.715 233.42 119.433 233.66 119.078 233.839C118.727 234.018 118.355 234.107 117.961 234.107C117.17 234.107 116.539 233.844 116.07 233.318C115.605 232.788 115.372 232.065 115.372 231.148V230.981C115.372 230.416 115.476 229.913 115.684 229.472C115.891 229.032 116.188 228.69 116.575 228.446C116.965 228.203 117.426 228.081 117.956 228.081C118.607 228.081 119.148 228.276 119.578 228.667C120.011 229.057 120.242 229.563 120.271 230.187H119.331C119.302 229.811 119.159 229.503 118.901 229.263C118.647 229.019 118.332 228.897 117.956 228.897C117.451 228.897 117.059 229.08 116.779 229.445C116.504 229.807 116.366 230.332 116.366 231.019V231.207C116.366 231.877 116.504 232.392 116.779 232.754C117.055 233.116 117.449 233.296 117.961 233.296ZM123.799 234.107C123.012 234.107 122.371 233.85 121.876 233.334C121.382 232.815 121.135 232.122 121.135 231.255V231.073C121.135 230.496 121.244 229.982 121.463 229.531C121.685 229.076 121.993 228.722 122.387 228.468C122.784 228.21 123.214 228.081 123.676 228.081C124.431 228.081 125.019 228.33 125.438 228.828C125.856 229.325 126.066 230.038 126.066 230.965V231.379H122.129C122.143 231.952 122.31 232.416 122.628 232.77C122.951 233.121 123.359 233.296 123.853 233.296C124.204 233.296 124.501 233.225 124.745 233.082C124.988 232.938 125.201 232.749 125.384 232.512L125.991 232.985C125.504 233.733 124.773 234.107 123.799 234.107ZM123.676 228.897C123.275 228.897 122.938 229.044 122.666 229.338C122.394 229.628 122.226 230.036 122.161 230.562H125.072V230.487C125.044 229.982 124.908 229.592 124.664 229.316C124.421 229.037 124.091 228.897 123.676 228.897ZM130.604 232.458C130.604 232.19 130.502 231.982 130.298 231.835C130.098 231.685 129.745 231.556 129.24 231.449C128.739 231.341 128.34 231.212 128.042 231.062C127.749 230.912 127.53 230.733 127.387 230.525C127.248 230.317 127.178 230.07 127.178 229.784C127.178 229.307 127.378 228.905 127.779 228.575C128.184 228.246 128.7 228.081 129.326 228.081C129.985 228.081 130.519 228.251 130.927 228.591C131.339 228.931 131.544 229.367 131.544 229.896H130.545C130.545 229.624 130.429 229.39 130.196 229.193C129.967 228.996 129.677 228.897 129.326 228.897C128.965 228.897 128.682 228.976 128.478 229.134C128.273 229.291 128.171 229.497 128.171 229.751C128.171 229.991 128.266 230.172 128.456 230.294C128.646 230.416 128.988 230.532 129.482 230.643C129.98 230.754 130.382 230.887 130.69 231.041C130.998 231.194 131.226 231.381 131.373 231.599C131.523 231.814 131.598 232.077 131.598 232.389C131.598 232.908 131.39 233.325 130.975 233.64C130.56 233.952 130.021 234.107 129.358 234.107C128.893 234.107 128.481 234.025 128.123 233.86C127.765 233.696 127.484 233.466 127.28 233.173C127.079 232.876 126.979 232.555 126.979 232.211H127.973C127.991 232.544 128.123 232.809 128.37 233.006C128.621 233.2 128.95 233.296 129.358 233.296C129.734 233.296 130.035 233.221 130.261 233.071C130.49 232.917 130.604 232.713 130.604 232.458ZM136.276 232.458C136.276 232.19 136.174 231.982 135.97 231.835C135.77 231.685 135.417 231.556 134.912 231.449C134.411 231.341 134.012 231.212 133.714 231.062C133.421 230.912 133.202 230.733 133.059 230.525C132.919 230.317 132.85 230.07 132.85 229.784C132.85 229.307 133.05 228.905 133.451 228.575C133.856 228.246 134.371 228.081 134.998 228.081C135.657 228.081 136.19 228.251 136.599 228.591C137.01 228.931 137.216 229.367 137.216 229.896H136.217C136.217 229.624 136.101 229.39 135.868 229.193C135.639 228.996 135.349 228.897 134.998 228.897C134.636 228.897 134.354 228.976 134.149 229.134C133.945 229.291 133.843 229.497 133.843 229.751C133.843 229.991 133.938 230.172 134.128 230.294C134.318 230.416 134.66 230.532 135.154 230.643C135.652 230.754 136.054 230.887 136.362 231.041C136.67 231.194 136.898 231.381 137.044 231.599C137.195 231.814 137.27 232.077 137.27 232.389C137.27 232.908 137.062 233.325 136.647 233.64C136.232 233.952 135.693 234.107 135.03 234.107C134.565 234.107 134.153 234.025 133.795 233.86C133.437 233.696 133.156 233.466 132.952 233.173C132.751 232.876 132.651 232.555 132.651 232.211H133.645C133.662 232.544 133.795 232.809 134.042 233.006C134.293 233.2 134.622 233.296 135.03 233.296C135.406 233.296 135.707 233.221 135.933 233.071C136.162 232.917 136.276 232.713 136.276 232.458ZM138.301 231.041C138.301 230.471 138.412 229.959 138.634 229.504C138.86 229.05 139.171 228.699 139.569 228.452C139.97 228.205 140.426 228.081 140.938 228.081C141.73 228.081 142.369 228.355 142.856 228.903C143.347 229.451 143.592 230.179 143.592 231.089V231.159C143.592 231.724 143.483 232.233 143.264 232.684C143.049 233.132 142.74 233.481 142.335 233.731C141.934 233.982 141.472 234.107 140.949 234.107C140.161 234.107 139.522 233.833 139.032 233.286C138.545 232.738 138.301 232.013 138.301 231.11V231.041ZM139.3 231.159C139.3 231.803 139.449 232.321 139.746 232.711C140.047 233.101 140.448 233.296 140.949 233.296C141.454 233.296 141.855 233.099 142.152 232.706C142.45 232.308 142.598 231.753 142.598 231.041C142.598 230.403 142.446 229.888 142.142 229.494C141.841 229.096 141.44 228.897 140.938 228.897C140.448 228.897 140.052 229.093 139.751 229.483C139.451 229.873 139.3 230.432 139.3 231.159ZM147.647 229.08C147.497 229.055 147.334 229.042 147.158 229.042C146.507 229.042 146.064 229.32 145.832 229.875V234H144.838V228.188H145.805L145.821 228.86C146.147 228.341 146.609 228.081 147.207 228.081C147.4 228.081 147.547 228.106 147.647 228.156V229.08Z" fill="black"/>
<path d="M378.521 218.519C378.424 219.346 378.118 219.985 377.603 220.436C377.09 220.884 376.408 221.107 375.556 221.107C374.632 221.107 373.891 220.776 373.333 220.114C372.778 219.451 372.5 218.565 372.5 217.455V216.703C372.5 215.976 372.629 215.337 372.887 214.786C373.148 214.234 373.517 213.812 373.993 213.518C374.469 213.221 375.021 213.072 375.647 213.072C376.478 213.072 377.144 213.305 377.646 213.771C378.147 214.232 378.439 214.873 378.521 215.693H377.484C377.395 215.07 377.2 214.619 376.899 214.34C376.602 214.061 376.185 213.921 375.647 213.921C374.989 213.921 374.471 214.164 374.095 214.651C373.723 215.138 373.537 215.831 373.537 216.73V217.487C373.537 218.336 373.714 219.011 374.068 219.512C374.423 220.014 374.919 220.264 375.556 220.264C376.129 220.264 376.568 220.135 376.872 219.877C377.18 219.616 377.384 219.163 377.484 218.519H378.521ZM383.366 220.425C382.979 220.88 382.411 221.107 381.663 221.107C381.044 221.107 380.571 220.928 380.245 220.57C379.923 220.209 379.76 219.675 379.756 218.97V215.188H380.75V218.943C380.75 219.824 381.108 220.264 381.824 220.264C382.583 220.264 383.088 219.981 383.339 219.416V215.188H384.333V221H383.387L383.366 220.425ZM389.231 219.458C389.231 219.19 389.129 218.982 388.925 218.835C388.724 218.685 388.372 218.556 387.867 218.449C387.365 218.341 386.966 218.212 386.669 218.062C386.375 217.912 386.157 217.733 386.014 217.525C385.874 217.317 385.804 217.07 385.804 216.784C385.804 216.307 386.005 215.905 386.406 215.575C386.81 215.246 387.326 215.081 387.953 215.081C388.611 215.081 389.145 215.251 389.553 215.591C389.965 215.931 390.171 216.367 390.171 216.896H389.172C389.172 216.624 389.056 216.39 388.823 216.193C388.594 215.996 388.304 215.897 387.953 215.897C387.591 215.897 387.308 215.976 387.104 216.134C386.9 216.291 386.798 216.497 386.798 216.751C386.798 216.991 386.893 217.172 387.083 217.294C387.272 217.416 387.614 217.532 388.108 217.643C388.606 217.754 389.009 217.887 389.317 218.041C389.625 218.194 389.852 218.381 389.999 218.599C390.149 218.814 390.225 219.077 390.225 219.389C390.225 219.908 390.017 220.325 389.602 220.64C389.186 220.952 388.647 221.107 387.985 221.107C387.519 221.107 387.108 221.025 386.75 220.86C386.391 220.696 386.11 220.466 385.906 220.173C385.706 219.876 385.605 219.555 385.605 219.211H386.599C386.617 219.544 386.75 219.809 386.997 220.006C387.247 220.2 387.577 220.296 387.985 220.296C388.361 220.296 388.662 220.221 388.887 220.071C389.116 219.917 389.231 219.713 389.231 219.458ZM392.867 213.781V215.188H393.952V215.957H392.867V219.561C392.867 219.793 392.916 219.969 393.012 220.087C393.109 220.201 393.274 220.259 393.506 220.259C393.621 220.259 393.778 220.237 393.979 220.194V221C393.718 221.072 393.463 221.107 393.216 221.107C392.772 221.107 392.438 220.973 392.212 220.705C391.986 220.436 391.874 220.055 391.874 219.561V215.957H390.815V215.188H391.874V213.781H392.867ZM394.747 218.041C394.747 217.471 394.858 216.959 395.08 216.504C395.306 216.05 395.617 215.699 396.015 215.452C396.416 215.205 396.872 215.081 397.384 215.081C398.176 215.081 398.815 215.355 399.302 215.903C399.792 216.451 400.038 217.179 400.038 218.089V218.159C400.038 218.724 399.928 219.233 399.71 219.684C399.495 220.132 399.185 220.481 398.781 220.731C398.38 220.982 397.918 221.107 397.395 221.107C396.607 221.107 395.968 220.833 395.478 220.286C394.991 219.738 394.747 219.013 394.747 218.11V218.041ZM395.746 218.159C395.746 218.803 395.895 219.321 396.192 219.711C396.493 220.101 396.894 220.296 397.395 220.296C397.9 220.296 398.301 220.099 398.598 219.706C398.895 219.308 399.044 218.753 399.044 218.041C399.044 217.403 398.892 216.888 398.587 216.494C398.287 216.096 397.886 215.897 397.384 215.897C396.894 215.897 396.498 216.093 396.197 216.483C395.896 216.873 395.746 217.432 395.746 218.159ZM402.218 215.188L402.245 215.833C402.671 215.332 403.246 215.081 403.969 215.081C404.782 215.081 405.335 215.393 405.629 216.016C405.822 215.736 406.073 215.511 406.381 215.339C406.692 215.167 407.059 215.081 407.482 215.081C408.757 215.081 409.405 215.756 409.426 217.106V221H408.433V217.165C408.433 216.75 408.338 216.44 408.148 216.236C407.958 216.028 407.639 215.924 407.192 215.924C406.823 215.924 406.517 216.035 406.273 216.257C406.03 216.476 405.889 216.771 405.849 217.144V221H404.85V217.192C404.85 216.347 404.437 215.924 403.609 215.924C402.958 215.924 402.512 216.202 402.272 216.757V221H401.278V215.188H402.218ZM413.342 221.107C412.554 221.107 411.913 220.85 411.419 220.334C410.925 219.815 410.678 219.122 410.678 218.255V218.073C410.678 217.496 410.787 216.982 411.005 216.531C411.227 216.076 411.535 215.722 411.929 215.468C412.327 215.21 412.756 215.081 413.218 215.081C413.974 215.081 414.561 215.33 414.98 215.828C415.399 216.325 415.608 217.038 415.608 217.965V218.379H411.671C411.686 218.952 411.852 219.416 412.171 219.77C412.493 220.121 412.901 220.296 413.396 220.296C413.746 220.296 414.044 220.225 414.287 220.082C414.531 219.938 414.744 219.749 414.926 219.512L415.533 219.985C415.046 220.733 414.316 221.107 413.342 221.107ZM413.218 215.897C412.817 215.897 412.481 216.044 412.208 216.338C411.936 216.628 411.768 217.036 411.704 217.562H414.615V217.487C414.586 216.982 414.45 216.592 414.207 216.316C413.963 216.037 413.634 215.897 413.218 215.897ZM419.572 216.08C419.422 216.055 419.259 216.042 419.083 216.042C418.432 216.042 417.99 216.32 417.757 216.875V221H416.763V215.188H417.73L417.746 215.86C418.072 215.341 418.534 215.081 419.132 215.081C419.325 215.081 419.472 215.106 419.572 215.156V216.08ZM423.875 219.458C423.875 219.19 423.772 218.982 423.568 218.835C423.368 218.685 423.015 218.556 422.51 218.449C422.009 218.341 421.61 218.212 421.312 218.062C421.019 217.912 420.8 217.733 420.657 217.525C420.518 217.317 420.448 217.07 420.448 216.784C420.448 216.307 420.648 215.905 421.049 215.575C421.454 215.246 421.97 215.081 422.596 215.081C423.255 215.081 423.789 215.251 424.197 215.591C424.609 215.931 424.814 216.367 424.814 216.896H423.815C423.815 216.624 423.699 216.39 423.466 216.193C423.237 215.996 422.947 215.897 422.596 215.897C422.235 215.897 421.952 215.976 421.748 216.134C421.543 216.291 421.441 216.497 421.441 216.751C421.441 216.991 421.536 217.172 421.726 217.294C421.916 217.416 422.258 217.532 422.752 217.643C423.25 217.754 423.653 217.887 423.96 218.041C424.268 218.194 424.496 218.381 424.643 218.599C424.793 218.814 424.868 219.077 424.868 219.389C424.868 219.908 424.66 220.325 424.245 220.64C423.83 220.952 423.291 221.107 422.628 221.107C422.163 221.107 421.751 221.025 421.393 220.86C421.035 220.696 420.754 220.466 420.55 220.173C420.349 219.876 420.249 219.555 420.249 219.211H421.243C421.261 219.544 421.393 219.809 421.64 220.006C421.891 220.2 422.22 220.296 422.628 220.296C423.004 220.296 423.305 220.221 423.531 220.071C423.76 219.917 423.875 219.713 423.875 219.458ZM354.125 230.938V234H353.094V226.18H355.979C356.834 226.18 357.504 226.398 357.987 226.835C358.474 227.272 358.718 227.85 358.718 228.57C358.718 229.329 358.48 229.914 358.003 230.326C357.531 230.734 356.852 230.938 355.968 230.938H354.125ZM354.125 230.095H355.979C356.53 230.095 356.952 229.966 357.246 229.708C357.54 229.447 357.687 229.071 357.687 228.581C357.687 228.115 357.54 227.743 357.246 227.463C356.952 227.184 356.55 227.039 356.038 227.028H354.125V230.095ZM363.401 234C363.344 233.885 363.298 233.681 363.262 233.388C362.8 233.868 362.248 234.107 361.607 234.107C361.035 234.107 360.564 233.946 360.195 233.624C359.83 233.298 359.647 232.886 359.647 232.389C359.647 231.784 359.876 231.314 360.334 230.981C360.796 230.645 361.444 230.477 362.279 230.477H363.246V230.02C363.246 229.673 363.142 229.397 362.934 229.193C362.726 228.985 362.42 228.881 362.016 228.881C361.661 228.881 361.364 228.971 361.124 229.15C360.884 229.329 360.764 229.546 360.764 229.8H359.765C359.765 229.51 359.867 229.23 360.071 228.962C360.279 228.69 360.558 228.475 360.909 228.317C361.264 228.16 361.652 228.081 362.075 228.081C362.744 228.081 363.269 228.249 363.648 228.586C364.028 228.919 364.225 229.379 364.239 229.966V232.641C364.239 233.175 364.307 233.599 364.443 233.914V234H363.401ZM361.752 233.243C362.064 233.243 362.359 233.162 362.639 233.001C362.918 232.84 363.12 232.63 363.246 232.373V231.18H362.467C361.249 231.18 360.641 231.536 360.641 232.249C360.641 232.561 360.744 232.804 360.952 232.979C361.16 233.155 361.427 233.243 361.752 233.243ZM367.612 232.544L368.966 228.188H370.029L367.693 234.897C367.331 235.864 366.757 236.347 365.969 236.347L365.781 236.331L365.41 236.261V235.456L365.679 235.477C366.015 235.477 366.277 235.409 366.463 235.273C366.653 235.137 366.808 234.888 366.93 234.526L367.15 233.936L365.077 228.188H366.162L367.612 232.544ZM371.855 228.188L371.882 228.833C372.308 228.332 372.883 228.081 373.606 228.081C374.419 228.081 374.972 228.393 375.266 229.016C375.459 228.736 375.71 228.511 376.018 228.339C376.33 228.167 376.697 228.081 377.119 228.081C378.394 228.081 379.042 228.756 379.063 230.106V234H378.07V230.165C378.07 229.75 377.975 229.44 377.785 229.236C377.595 229.028 377.277 228.924 376.829 228.924C376.46 228.924 376.154 229.035 375.911 229.257C375.667 229.476 375.526 229.771 375.486 230.144V234H374.487V230.192C374.487 229.347 374.074 228.924 373.247 228.924C372.595 228.924 372.149 229.202 371.909 229.757V234H370.916V228.188H371.855ZM382.979 234.107C382.191 234.107 381.55 233.85 381.056 233.334C380.562 232.815 380.315 232.122 380.315 231.255V231.073C380.315 230.496 380.424 229.982 380.643 229.531C380.865 229.076 381.173 228.722 381.566 228.468C381.964 228.21 382.394 228.081 382.855 228.081C383.611 228.081 384.198 228.33 384.617 228.828C385.036 229.325 385.246 230.038 385.246 230.965V231.379H381.309C381.323 231.952 381.489 232.416 381.808 232.77C382.13 233.121 382.539 233.296 383.033 233.296C383.384 233.296 383.681 233.225 383.924 233.082C384.168 232.938 384.381 232.749 384.563 232.512L385.17 232.985C384.683 233.733 383.953 234.107 382.979 234.107ZM382.855 228.897C382.454 228.897 382.118 229.044 381.846 229.338C381.574 229.628 381.405 230.036 381.341 230.562H384.252V230.487C384.223 229.982 384.087 229.592 383.844 229.316C383.6 229.037 383.271 228.897 382.855 228.897ZM387.34 228.188L387.373 228.919C387.817 228.36 388.397 228.081 389.113 228.081C390.341 228.081 390.96 228.774 390.971 230.16V234H389.978V230.154C389.974 229.735 389.877 229.426 389.688 229.225C389.501 229.025 389.209 228.924 388.812 228.924C388.49 228.924 388.207 229.01 387.963 229.182C387.72 229.354 387.53 229.58 387.394 229.859V234H386.4V228.188H387.34ZM393.818 226.781V228.188H394.903V228.957H393.818V232.561C393.818 232.793 393.866 232.969 393.963 233.087C394.06 233.201 394.224 233.259 394.457 233.259C394.572 233.259 394.729 233.237 394.93 233.194V234C394.668 234.072 394.414 234.107 394.167 234.107C393.723 234.107 393.388 233.973 393.163 233.705C392.937 233.436 392.824 233.055 392.824 232.561V228.957H391.766V228.188H392.824V226.781H393.818ZM399.984 230.938V234H398.953V226.18H401.837C402.693 226.18 403.362 226.398 403.846 226.835C404.333 227.272 404.576 227.85 404.576 228.57C404.576 229.329 404.338 229.914 403.862 230.326C403.389 230.734 402.711 230.938 401.826 230.938H399.984ZM399.984 230.095H401.837C402.388 230.095 402.811 229.966 403.104 229.708C403.398 229.447 403.545 229.071 403.545 228.581C403.545 228.115 403.398 227.743 403.104 227.463C402.811 227.184 402.408 227.039 401.896 227.028H399.984V230.095ZM408.545 229.08C408.395 229.055 408.232 229.042 408.057 229.042C407.405 229.042 406.963 229.32 406.73 229.875V234H405.736V228.188H406.703L406.719 228.86C407.045 228.341 407.507 228.081 408.105 228.081C408.298 228.081 408.445 228.106 408.545 228.156V229.08ZM409.093 231.041C409.093 230.471 409.204 229.959 409.426 229.504C409.652 229.05 409.963 228.699 410.361 228.452C410.762 228.205 411.218 228.081 411.73 228.081C412.522 228.081 413.161 228.355 413.648 228.903C414.139 229.451 414.384 230.179 414.384 231.089V231.159C414.384 231.724 414.275 232.233 414.056 232.684C413.841 233.132 413.532 233.481 413.127 233.731C412.726 233.982 412.264 234.107 411.741 234.107C410.953 234.107 410.314 233.833 409.824 233.286C409.337 232.738 409.093 232.013 409.093 231.11V231.041ZM410.092 231.159C410.092 231.803 410.241 232.321 410.538 232.711C410.839 233.101 411.24 233.296 411.741 233.296C412.246 233.296 412.647 233.099 412.944 232.706C413.242 232.308 413.39 231.753 413.39 231.041C413.39 230.403 413.238 229.888 412.934 229.494C412.633 229.096 412.232 228.897 411.73 228.897C411.24 228.897 410.844 229.093 410.543 229.483C410.243 229.873 410.092 230.432 410.092 231.159ZM417.961 233.296C418.315 233.296 418.625 233.189 418.89 232.974C419.155 232.759 419.302 232.491 419.331 232.168H420.271C420.253 232.501 420.138 232.818 419.927 233.119C419.715 233.42 419.433 233.66 419.078 233.839C418.727 234.018 418.355 234.107 417.961 234.107C417.17 234.107 416.539 233.844 416.07 233.318C415.605 232.788 415.372 232.065 415.372 231.148V230.981C415.372 230.416 415.476 229.913 415.684 229.472C415.891 229.032 416.188 228.69 416.575 228.446C416.965 228.203 417.426 228.081 417.956 228.081C418.607 228.081 419.148 228.276 419.578 228.667C420.011 229.057 420.242 229.563 420.271 230.187H419.331C419.302 229.811 419.159 229.503 418.901 229.263C418.647 229.019 418.332 228.897 417.956 228.897C417.451 228.897 417.059 229.08 416.779 229.445C416.504 229.807 416.366 230.332 416.366 231.019V231.207C416.366 231.877 416.504 232.392 416.779 232.754C417.055 233.116 417.449 233.296 417.961 233.296ZM423.799 234.107C423.012 234.107 422.371 233.85 421.876 233.334C421.382 232.815 421.135 232.122 421.135 231.255V231.073C421.135 230.496 421.244 229.982 421.463 229.531C421.685 229.076 421.993 228.722 422.387 228.468C422.784 228.21 423.214 228.081 423.676 228.081C424.431 228.081 425.019 228.33 425.438 228.828C425.856 229.325 426.066 230.038 426.066 230.965V231.379H422.129C422.143 231.952 422.31 232.416 422.628 232.77C422.951 233.121 423.359 233.296 423.853 233.296C424.204 233.296 424.501 233.225 424.745 233.082C424.988 232.938 425.201 232.749 425.384 232.512L425.991 232.985C425.504 233.733 424.773 234.107 423.799 234.107ZM423.676 228.897C423.275 228.897 422.938 229.044 422.666 229.338C422.394 229.628 422.226 230.036 422.161 230.562H425.072V230.487C425.044 229.982 424.908 229.592 424.664 229.316C424.421 229.037 424.091 228.897 423.676 228.897ZM430.604 232.458C430.604 232.19 430.502 231.982 430.298 231.835C430.098 231.685 429.745 231.556 429.24 231.449C428.739 231.341 428.34 231.212 428.042 231.062C427.749 230.912 427.53 230.733 427.387 230.525C427.248 230.317 427.178 230.07 427.178 229.784C427.178 229.307 427.378 228.905 427.779 228.575C428.184 228.246 428.7 228.081 429.326 228.081C429.985 228.081 430.519 228.251 430.927 228.591C431.339 228.931 431.544 229.367 431.544 229.896H430.545C430.545 229.624 430.429 229.39 430.196 229.193C429.967 228.996 429.677 228.897 429.326 228.897C428.965 228.897 428.682 228.976 428.478 229.134C428.273 229.291 428.171 229.497 428.171 229.751C428.171 229.991 428.266 230.172 428.456 230.294C428.646 230.416 428.988 230.532 429.482 230.643C429.98 230.754 430.382 230.887 430.69 231.041C430.998 231.194 431.226 231.381 431.373 231.599C431.523 231.814 431.598 232.077 431.598 232.389C431.598 232.908 431.39 233.325 430.975 233.64C430.56 233.952 430.021 234.107 429.358 234.107C428.893 234.107 428.481 234.025 428.123 233.86C427.765 233.696 427.484 233.466 427.28 233.173C427.079 232.876 426.979 232.555 426.979 232.211H427.973C427.991 232.544 428.123 232.809 428.37 233.006C428.621 233.2 428.95 233.296 429.358 233.296C429.734 233.296 430.035 233.221 430.261 233.071C430.49 232.917 430.604 232.713 430.604 232.458ZM436.276 232.458C436.276 232.19 436.174 231.982 435.97 231.835C435.77 231.685 435.417 231.556 434.912 231.449C434.411 231.341 434.012 231.212 433.714 231.062C433.421 230.912 433.202 230.733 433.059 230.525C432.919 230.317 432.85 230.07 432.85 229.784C432.85 229.307 433.05 228.905 433.451 228.575C433.856 228.246 434.371 228.081 434.998 228.081C435.657 228.081 436.19 228.251 436.599 228.591C437.01 228.931 437.216 229.367 437.216 229.896H436.217C436.217 229.624 436.101 229.39 435.868 229.193C435.639 228.996 435.349 228.897 434.998 228.897C434.636 228.897 434.354 228.976 434.149 229.134C433.945 229.291 433.843 229.497 433.843 229.751C433.843 229.991 433.938 230.172 434.128 230.294C434.318 230.416 434.66 230.532 435.154 230.643C435.652 230.754 436.054 230.887 436.362 231.041C436.67 231.194 436.898 231.381 437.044 231.599C437.195 231.814 437.27 232.077 437.27 232.389C437.27 232.908 437.062 233.325 436.647 233.64C436.232 233.952 435.693 234.107 435.03 234.107C434.565 234.107 434.153 234.025 433.795 233.86C433.437 233.696 433.156 233.466 432.952 233.173C432.751 232.876 432.651 232.555 432.651 232.211H433.645C433.662 232.544 433.795 232.809 434.042 233.006C434.293 233.2 434.622 233.296 435.03 233.296C435.406 233.296 435.707 233.221 435.933 233.071C436.162 232.917 436.276 232.713 436.276 232.458ZM438.301 231.041C438.301 230.471 438.412 229.959 438.634 229.504C438.86 229.05 439.171 228.699 439.569 228.452C439.97 228.205 440.426 228.081 440.938 228.081C441.73 228.081 442.369 228.355 442.856 228.903C443.347 229.451 443.592 230.179 443.592 231.089V231.159C443.592 231.724 443.483 232.233 443.264 232.684C443.049 233.132 442.74 233.481 442.335 233.731C441.934 233.982 441.472 234.107 440.949 234.107C440.161 234.107 439.522 233.833 439.032 233.286C438.545 232.738 438.301 232.013 438.301 231.11V231.041ZM439.3 231.159C439.3 231.803 439.449 232.321 439.746 232.711C440.047 233.101 440.448 233.296 440.949 233.296C441.454 233.296 441.855 233.099 442.152 232.706C442.45 232.308 442.598 231.753 442.598 231.041C442.598 230.403 442.446 229.888 442.142 229.494C441.841 229.096 441.44 228.897 440.938 228.897C440.448 228.897 440.052 229.093 439.751 229.483C439.451 229.873 439.3 230.432 439.3 231.159ZM447.647 229.08C447.497 229.055 447.334 229.042 447.158 229.042C446.507 229.042 446.064 229.32 445.832 229.875V234H444.838V228.188H445.805L445.821 228.86C446.147 228.341 446.609 228.081 447.207 228.081C447.4 228.081 447.547 228.106 447.647 228.156V229.08Z" fill="black"/>
</svg>
