<svg xmlns="http://www.w3.org/2000/svg" fill="none" viewBox="0 0 1542 286"><path fill="#222" stroke="#222" stroke-miterlimit="10" d="M444.26 136.36c0 22.78-3.63 39.28-10.9 49.5-7.27 10.22-20.47 15.33-39.62 15.33s-32.35-5.23-39.62-15.7c-7.27-10.46-10.9-26.93-10.9-49.4s3.69-39.15 11.08-50.05c7.39-10.9 20.5-16.34 39.34-16.34 18.84 0 31.98 5.42 39.43 16.25 7.45 10.84 11.17 27.64 11.17 50.42l.02-.01Zm-86.43-.37c0 18.72 2.46 32.17 7.39 40.35 4.92 8.19 14.43 12.28 28.53 12.28 14.1 0 23.58-4 28.44-12 4.86-8 7.3-21.42 7.3-40.26 0-18.84-2.53-32.57-7.57-41.19-5.05-8.62-14.5-12.93-28.35-12.93-13.85 0-23.27 4.28-28.26 12.84-4.99 8.56-7.48 22.19-7.48 40.91ZM466.05 240.34V107h13.67v6.65c9.36-5.66 18.59-8.5 27.7-8.5 11.7 0 20.19 3.73 25.49 11.17 5.29 7.45 7.94 19.73 7.94 36.84 0 17.11-3.11 29.4-9.33 36.84-6.22 7.45-16.53 11.17-30.93 11.17-7.51 0-14.41-.68-20.68-2.03v41.18h-13.85l-.01.02Zm39.34-122.82c-3.69 0-7.66.62-11.91 1.85s-7.6 2.47-10.07 3.69l-3.51 1.85v62.24c8.74 1.36 15.39 2.03 19.95 2.03 9.97 0 16.96-2.83 20.96-8.5 4-5.66 6-14.9 6-27.7 0-12.8-1.82-21.91-5.45-27.33-3.63-5.42-8.96-8.13-15.98-8.13h.01ZM624.33 187.89l5.36-.55.37 10.9c-14.04 1.97-26.041 2.95-36.011 2.95-13.3 0-22.72-3.85-28.26-11.54-5.54-7.69-8.31-19.67-8.31-35.92 0-32.38 12.861-48.57 38.601-48.57 12.43 0 21.73 3.48 27.89 10.43 6.16 6.96 9.23 17.89 9.23 32.78l-.74 10.53h-60.95c0 10.22 1.849 17.79 5.539 22.72 3.69 4.93 10.131 7.39 19.301 7.39 9.17 0 18.5-.37 27.98-1.11v-.01Zm-4.99-40.08c0-11.33-1.82-19.33-5.45-24.01-3.63-4.68-9.54-7.02-17.73-7.02-8.19 0-14.35 2.46-18.47 7.39-4.13 4.93-6.25 12.81-6.37 23.64h48.02ZM666.8 199.34h-13.85V107h13.67v6.46c9.97-5.54 19.51-8.31 28.63-8.31 12.31 0 20.59 3.32 24.84 9.97s6.37 18.47 6.37 35.46v48.76h-13.67v-48.39c0-12.8-1.26-21.58-3.79-26.32-2.53-4.74-7.91-7.11-16.16-7.11-3.94 0-8.1.59-12.47 1.76-4.37 1.17-7.73 2.31-10.07 3.42l-3.51 1.66v74.98h.01ZM838.18 156.3h-32.5v43.03h-14.22V71.53h46.73c13.91 0 24.19 3.39 30.84 10.16 6.65 6.77 9.97 17.11 9.97 31.03 0 29.06-13.61 43.59-40.82 43.59v-.01Zm-32.5-12.56H838c17.61 0 26.41-10.34 26.41-31.03 0-9.85-2.1-17.08-6.28-21.7-4.19-4.62-10.9-6.93-20.13-6.93h-32.32v59.66ZM961 134.88v47.28c.37 4.56 3.94 7.27 10.71 8.13l-.55 10.9c-9.73 0-17.05-2.46-21.98-7.39-11.08 4.93-22.16 7.39-33.24 7.39-8.5 0-14.96-2.4-19.39-7.2-4.43-4.8-6.65-11.7-6.65-20.68s2.28-15.61 6.83-19.85c4.55-4.25 11.7-6.86 21.42-7.85l29-2.77v-7.94c0-6.28-1.36-10.77-4.06-13.48-2.71-2.71-6.4-4.06-11.08-4.06-9.85 0-20.07.62-30.66 1.85l-5.73.55-.55-10.53c13.54-2.71 25.55-4.06 36.01-4.06 10.46 0 18.07 2.4 22.81 7.2 4.74 4.8 7.11 12.31 7.11 22.53v-.02Zm-56.88 37.68c0 11.33 4.68 16.99 14.04 16.99 8.37 0 16.62-1.41 24.75-4.25l4.25-1.48v-30.47l-27.33 2.59c-5.54.49-9.54 2.1-12 4.8-2.46 2.71-3.69 6.65-3.69 11.82h-.02ZM976.88 106.99h13.85l23.09 80.34h6.09l23.27-80.34h13.85l-38.42 133.34h-13.85l12-41h-13.67l-26.23-92.34h.02ZM1086.77 199.34h-13.85V107h13.67v6.46c9.23-5.54 18.22-8.31 26.96-8.31 11.45 0 19.45 3.14 24.01 9.42 4.06-2.46 9.33-4.65 15.79-6.56 6.46-1.91 12.16-2.86 17.08-2.86 12.31 0 20.59 3.3 24.84 9.88 4.25 6.59 6.37 18.44 6.37 35.55v48.76h-13.85v-48.39c0-12.8-1.23-21.58-3.69-26.32-2.47-4.74-7.7-7.11-15.7-7.11-4.06 0-8.25.59-12.56 1.76-4.31 1.17-7.64 2.31-9.97 3.42l-3.51 1.66c1.6 4.06 2.4 13.05 2.4 26.96v48.02h-13.85v-47.65c0-13.3-1.2-22.31-3.6-27.06-2.4-4.74-7.66-7.11-15.79-7.11-3.94 0-7.97.59-12.1 1.76s-7.3 2.31-9.51 3.42l-3.14 1.66v74.98ZM1288.26 187.89l5.36-.55.37 10.9c-14.04 1.97-26.04 2.95-36.01 2.95-13.3 0-22.72-3.85-28.26-11.54-5.54-7.69-8.31-19.67-8.31-35.92 0-32.38 12.86-48.57 38.6-48.57 12.44 0 21.73 3.48 27.89 10.43 6.15 6.96 9.23 17.89 9.23 32.78l-.74 10.53h-60.95c0 10.22 1.85 17.79 5.54 22.72s10.13 7.39 19.3 7.39 18.5-.37 27.98-1.11v-.01Zm-4.99-40.08c0-11.33-1.82-19.33-5.45-24.01-3.63-4.68-9.54-7.02-17.73-7.02-8.19 0-14.34 2.46-18.47 7.39-4.13 4.93-6.25 12.81-6.37 23.64h48.02ZM1330.74 199.34h-13.85V107h13.67v6.46c9.97-5.54 19.51-8.31 28.63-8.31 12.31 0 20.59 3.32 24.84 9.97s6.37 18.47 6.37 35.46v48.76h-13.67v-48.39c0-12.8-1.26-21.58-3.79-26.32-2.53-4.74-7.91-7.11-16.16-7.11-3.94 0-8.1.59-12.47 1.76-4.37 1.17-7.73 2.31-10.07 3.42l-3.51 1.66v74.98h.01ZM1461.49 119h-29.37v44.14c0 10.59.77 17.55 2.31 20.87 1.54 3.32 5.2 4.99 10.99 4.99l16.44-1.11.92 11.45c-8.25 1.35-14.53 2.03-18.84 2.03-9.6 0-16.25-2.34-19.95-7.02-3.69-4.68-5.54-13.6-5.54-26.78V119h-13.11v-12h13.11V78.74h13.67V107h29.37v12ZM1505.63 117.52c-13.42 0-20.13 4.68-20.13 14.04 0 4.31 1.54 7.36 4.62 9.14 3.08 1.79 10.09 3.63 21.05 5.54 10.96 1.91 18.71 4.59 23.27 8.03 4.55 3.45 6.83 9.91 6.83 19.39s-3.05 16.44-9.14 20.87c-6.1 4.43-14.99 6.65-26.69 6.65-7.64 0-16.62-.86-26.96-2.59l-5.54-.92.74-12c14.04 2.1 24.62 3.14 31.77 3.14 7.15 0 12.59-1.14 16.34-3.42 3.75-2.28 5.63-6.09 5.63-11.45 0-5.36-1.6-8.99-4.8-10.9-3.2-1.91-10.22-3.72-21.05-5.45-10.84-1.72-18.53-4.25-23.09-7.57-4.56-3.32-6.83-9.48-6.83-18.47 0-8.99 3.17-15.64 9.51-19.95 6.34-4.31 14.25-6.46 23.73-6.46 7.51 0 16.93.86 28.26 2.59l5.17.92-.37 11.82c-13.67-1.97-24.44-2.96-32.32-2.96v.01Z"/><path fill="#FFA6B2" fill-rule="evenodd" d="M284.5 127.391c-5.41-50.856-37.55-93.733-82.1-114.312h-41.59l-8.9 54.536c37.81 9.47 58.2 30.378 67.06 67.926l65.52-8.15h.01Z" clip-rule="evenodd"/><path fill="#B3EDDF" fill-rule="evenodd" d="m77.02 269.331 13.85-79.464c-4.33-3.95-22.15 15.809-25.7 11.149H31v30.428c12.46 15.639 28.13 28.608 46.02 37.887Z" clip-rule="evenodd"/><path fill="#FFB985" fill-rule="evenodd" d="m284.59 128.371-74.22-3.69c.66 4.56 0 18.649 0 23.379 0 14.319 1.14 21.258-4.44 33.497l24.64 19.459h42.28c8-17.809 12.45-37.567 12.45-58.356 0-4.82-.24-9.589-.71-14.289Z" clip-rule="evenodd"/><path fill="#FFCBA9" fill-rule="evenodd" d="M248.71 111.702c-13.12 0-23.75 10.639-23.75 23.749v3.349c0 13.119 10.64 23.749 23.75 23.749s23.75-10.64 23.75-23.749v-3.349c0-13.12-10.63-23.749-23.75-23.749Z" clip-rule="evenodd"/><path fill="#68C180" fill-rule="evenodd" d="M278.76 185.517c-18.2 57.836-72.25 99.783-136.1 99.783-5.82 0-11.56-.35-17.2-1.03l8.26-68.075c5.47.96 16.11 2.45 21.42.26 28.13-11.609 31.23-16.029 53.94-37.938l69.67 7h.01Z" clip-rule="evenodd"/><path fill="#2E9C86" fill-rule="evenodd" d="M50.7 179.708c1.31 1.2 2.57 2.43 3.79 3.71-.57-1.22-1.12-2.46-1.65-3.71h-2.15.01Zm66.04 57.886c0 15.369-2.96 30.068-8.36 43.567-13.26-3.27-25.8-8.4-37.31-15.089-1.4-.82 1.58-9.85 1.93-11.309 4.66-19.279 10.26-38.998 11.38-58.876.13-2.33.76-7.67-.99-9.62 12.25 13.599 25.45 19.559 43.62 24.519 0 .58-10.27 26.228-10.27 26.808Z" clip-rule="evenodd"/><path fill="#98E1D0" fill-rule="evenodd" d="M9.8 194.716h32.34v-82.824H3.32A143.008 143.008 0 0 0 0 142.65c0 18.379 3.47 35.937 9.8 52.066Z" clip-rule="evenodd"/><path fill="#56B7B5" fill-rule="evenodd" d="M8.49 191.257c18.93-13.829 31.23-36.198 31.23-61.436 0-21.319-8.78-40.597-22.91-54.406a143.2 143.2 0 0 1 33.95-41.867c11.22 10.159 44 33.917 51.13 47.416-20.33 17.77-34.52 37.098-31.62 66.076 2.23 22.298 2.39 24.988 15.19 42.847-8.43 17.289-36.58 39.077-49.32 47.666A142.496 142.496 0 0 1 8.5 191.267l-.01-.01Z" clip-rule="evenodd"/><path fill="#8075B3" fill-rule="evenodd" d="M147.25.07c-1.53-.05-3.06-.07-4.6-.07C89.7 0 43.48 28.848 18.87 71.685h57.04c17.35-16.319 40.71-26.318 66.41-26.318 1.66 0 3.31.04 4.94.12V.06l-.01.01Z" clip-rule="evenodd"/><path fill="#549458" fill-rule="evenodd" d="M131.68 284.88c.15-16.539 13.91-57.456 21.39-71.005-.44 0-4.43 5.13-4.87 5.13-10.39 0-19.89-.82-29.28-3.85-6.13 13.809-16.25 48.357-17.04 64.235 9.55 2.84 19.53 4.71 29.8 5.5v-.01Zm150.63-112.872s-.02-.02-.04-.03a1.96 1.96 0 0 0-.14-.06c-.09-.04-.18-.09-.28-.13-.19-.09-.38-.17-.57-.26-.4-.18-.8-.35-1.21-.53-.43-.18-.86-.36-1.3-.53l-1.38-.54c-.48-.19-.97-.37-1.46-.55-.49-.18-1.02-.37-1.53-.55-.51-.18-1.07-.38-1.6-.56-.53-.18-1.11-.38-1.66-.56-.55-.18-1.15-.38-1.72-.56-.57-.18-1.18-.38-1.78-.57-.6-.19-1.22-.38-1.83-.57-.61-.19-1.25-.38-1.87-.56-.62-.18-1.27-.38-1.91-.56-.64-.18-1.3-.37-1.95-.56-.65-.19-1.32-.37-1.98-.55-.66-.18-1.33-.37-2-.55-.67-.179-1.35-.359-2.02-.539-.67-.18-1.36-.36-2.04-.53-.68-.17-1.37-.35-2.05-.52l-2.05-.51c-.68-.17-1.37-.34-2.06-.5-.69-.16-1.37-.33-2.05-.49-.68-.16-1.36-.32-2.04-.47-.68-.15-1.35-.31-2.03-.46-.68-.15-1.34-.3-2.01-.44-.66-.14-1.32-.28-1.99-.42-.67-.14-1.3-.27-1.96-.4-.66-.13-1.28-.26-1.92-.39-.64-.13-1.26-.24-1.89-.36-.63-.12-1.23-.23-1.84-.34-.61-.11-1.2-.21-1.8-.32-.6-.11-1.16-.2-1.74-.29-.58-.09-1.12-.18-1.68-.27-.56-.09-1.08-.16-1.62-.24-.54-.08-1.04-.15-1.55-.21s-.99-.13-1.48-.18c-.47-.05-.94-.11-1.41-.15-.44-.04-.88-.09-1.32-.12-.18-.01-.36-.03-.54-.04-1.92 10.569-4.04 22.209-9.08 31.278 5.29-.04 10.61 1.18 15.84 1.94 5.81.84 11.6 1.85 17.35 3.01 11.51 2.319 22.96 5.319 34.15 8.879.35.11 2.54-5.83 2.76-6.39 1.46-3.599 2.59-7.309 3.64-11.039.12 0 .64-2.29.71-2.56.24-.91.48-1.81.71-2.719.24-.96.43-1.93.65-2.9.02-.19.08-.38.13-.56.04-.2.09-.39.14-.59.09-.38.19-.76.28-1.15.02-.07.05-.14.02-.19v-.04Z" clip-rule="evenodd"/><path fill="#FF9852" fill-rule="evenodd" d="M284.25 125.221c-4.71-14.029-17.53-24.518-33.22-25.498-14.77-.92-28.75 7.2-35.6 19.249 2.26 11.519 3.78 23.168 3.02 35.437-.09 1.46-.49 2.54-.62 3.99 6.33 8.93 16.78 15.399 28.55 16.139 18.68 1.16 35.01-11.559 38.92-29.278-.02-6.749-.38-13.439-1.04-20.039h-.01Zm-12.12 13.37c-.8 12.939-11.94 22.768-24.88 21.968-12.94-.8-22.77-11.939-21.96-24.878.8-12.939 11.94-22.769 24.88-21.959 12.94.8 22.77 11.939 21.97 24.879l-.01-.01Z" clip-rule="evenodd"/><path fill="#825282" fill-rule="evenodd" d="M19.89 69.945C68.66 62.225 111.47 36.598 141.37.01h1.28c19.71 0 38.48 4 55.56 11.22-8.78 13.508-28.53 45.896-39.68 57.425-8.25-2.28-14.22.13-23.01 1.98-39.49 8.32-41.81 21.679-62.2 48.777-15.29 3.749-55.95 4.479-72.2 5.259a141.746 141.746 0 0 1 18.77-54.726Z" clip-rule="evenodd"/><path fill="#FF7A7F" fill-rule="evenodd" d="M273.53 85.784c-1.08.03-2.02.04-3.11.04-52.97 0-97.36-35.747-109.99-84.774 53.97 6.71 94.71 42.387 113.1 84.734Z" clip-rule="evenodd"/><path fill="#fff" d="M143.34 219.165c41.985 0 76.02-34.033 76.02-76.015s-34.035-76.015-76.02-76.015-76.02 34.033-76.02 76.015 34.035 76.015 76.02 76.015Z"/></svg>
