<svg width="589" height="589" viewBox="0 0 589 589" fill="none" xmlns="http://www.w3.org/2000/svg">
<path fill-rule="evenodd" clip-rule="evenodd" d="M587.335 263C576.17 158 509.824 69.4817 417.852 27H332V97.3168C414.339 113.232 478.686 179.619 491.565 263H587.335Z" fill="#F59297"/>
<path fill-rule="evenodd" clip-rule="evenodd" d="M159 556.045V441.714C150.068 433.57 141.877 424.628 134.539 415H64V477.821C89.7139 510.11 122.07 536.874 159 556.045Z" fill="#8FD1C1"/>
<path fill-rule="evenodd" clip-rule="evenodd" d="M587.541 265H491.864C493.219 274.404 493.921 284.019 493.921 293.798C493.921 323.364 487.509 351.433 476 376.69V415H563.299C579.813 378.218 589 337.432 589 294.5C589 284.544 588.506 274.702 587.541 265Z" fill="#FABD84"/>
<path fill-rule="evenodd" clip-rule="evenodd" d="M536.5 222C513.028 222 494 241.028 494 264.5V270.5C494 293.972 513.028 313 536.5 313C559.972 313 579 293.972 579 270.5V264.5C579 241.028 559.972 222 536.5 222Z" fill="#FCC9B3"/>
<path fill-rule="evenodd" clip-rule="evenodd" d="M575.471 383C537.897 502.404 426.311 589 294.5 589C282.485 589 270.638 588.28 259 586.882V490.906C270.301 492.887 281.929 493.921 293.798 493.921C372.27 493.921 440.194 448.754 472.99 383H575.471Z" fill="#7FC78C"/>
<path fill-rule="evenodd" clip-rule="evenodd" d="M223.741 580.444C234.884 552.566 241 522.23 241 490.5C241 489.29 240.991 488.081 240.973 486.875C203.458 476.635 170.335 455.754 145.048 427.676C153.413 447.155 158 468.412 158 490.5C158 511.073 154.021 530.925 146.716 549.291C170.481 563.106 196.357 573.69 223.741 580.444ZM1.72467 326.557C45.8601 330.036 84.6245 349.559 112.505 378.658C100.425 352.894 93.6746 324.134 93.6746 293.798C93.6746 284.548 94.3021 275.445 95.517 266.528C67.563 253.655 36.8101 245.623 4.39284 243.541C1.50537 260.093 0 277.121 0 294.5C0 305.332 0.584841 316.028 1.72467 326.557Z" fill="#459789"/>
<path fill-rule="evenodd" clip-rule="evenodd" d="M20.2365 402H87V231H6.86334C2.3689 251.451 0 272.699 0 294.5C0 332.436 7.17291 368.697 20.2365 402Z" fill="#8FD1C1"/>
<path fill-rule="evenodd" clip-rule="evenodd" d="M17.5369 394.844C56.6149 366.286 82.0001 320.108 82.0001 268C82.0001 223.981 63.8846 184.194 34.7022 155.686C52.4271 122.582 76.2942 93.2602 104.78 69.2434C127.953 90.2163 147.441 115.185 162.157 143.062C120.187 179.746 93.6747 233.676 93.6747 293.798C93.6747 343.855 112.053 389.619 142.431 424.712C123.884 450.399 100.898 472.668 74.5971 490.395C49.9338 462.728 30.4135 430.378 17.5369 394.844Z" fill="#51797D"/>
<path fill-rule="evenodd" clip-rule="evenodd" d="M304 0.15033C300.846 0.0503693 297.679 0 294.5 0C185.184 0 89.7794 59.5603 38.9666 148H156.712C192.525 114.314 240.751 93.6746 293.798 93.6746C297.219 93.6746 300.621 93.7605 304 93.9302V0.15033Z" fill="#978AA4"/>
<path fill-rule="evenodd" clip-rule="evenodd" d="M271.857 588.142C272.169 553.988 281.078 521.889 296.525 493.902C295.618 493.914 294.708 493.921 293.798 493.921C272.34 493.921 251.671 490.543 232.293 484.292C219.649 512.803 211.962 544.003 210.328 576.796C230.051 582.668 250.64 586.529 271.857 588.142ZM582.953 354.162C554.639 340.698 523.516 332.182 490.703 329.732C486.748 351.544 479.259 372.125 468.848 390.86C469.565 390.852 470.282 390.848 471 390.848C504.53 390.848 536.124 399.134 563.847 413.771C572.232 394.865 578.684 374.912 582.953 354.162Z" fill="#6D995C"/>
<path fill-rule="evenodd" clip-rule="evenodd" d="M585.088 246.381C577.138 226.804 557.931 213 535.5 213C514.38 213 496.118 225.238 487.419 243.01C491.662 259.228 493.921 276.249 493.921 293.798C493.921 295.89 493.889 297.974 493.825 300.05C503.632 312.217 518.657 320 535.5 320C562.211 320 584.35 300.425 588.354 274.838C587.72 265.219 586.624 255.726 585.088 246.381ZM569 266.5C569 285.002 554.002 300 535.5 300C516.998 300 502 285.002 502 266.5C502 247.998 516.998 233 535.5 233C554.002 233 569 247.998 569 266.5Z" fill="#F47F5F"/>
<path fill-rule="evenodd" clip-rule="evenodd" d="M558.041 162.915C556.034 162.972 554.02 163 552 163C453.695 163 371.092 95.7729 347.656 4.78479C440.002 21.6187 517.321 81.5195 558.041 162.915Z" fill="#CE6564"/>
<path fill-rule="evenodd" clip-rule="evenodd" d="M41.067 144.403C141.747 128.461 230.125 75.5492 291.858 0.0116017C292.738 0.00387258 293.619 0 294.5 0C335.186 0 373.945 8.25047 409.195 23.1696C391.076 51.0633 370.329 77.0931 347.307 100.908C330.275 96.1938 312.33 93.6746 293.798 93.6746C200.757 93.6746 122.546 157.167 100.129 243.188C68.5676 250.931 35.8629 255.765 2.31592 257.389C7.45316 216.531 20.9607 178.279 41.067 144.403Z" fill="#845578"/>
</svg>
