<svg width="1002" height="245" viewBox="0 0 1002 245" fill="none" xmlns="http://www.w3.org/2000/svg">
<path fill-rule="evenodd" clip-rule="evenodd" d="M244.308 109.397C239.663 65.7216 212.066 28.9016 173.81 11.2309H138.098V40.4798C172.348 47.0999 199.114 74.7143 204.471 109.397H244.308Z" fill="#F59297"/>
<path fill-rule="evenodd" clip-rule="evenodd" d="M66.1375 231.292V183.735C62.4222 180.347 59.0149 176.628 55.9625 172.623H26.6213V198.754C37.3173 212.185 50.776 223.318 66.1375 231.292Z" fill="#8FD1C1"/>
<path fill-rule="evenodd" clip-rule="evenodd" d="M244.393 110.229L204.595 110.229C205.159 114.141 205.451 118.14 205.451 122.208C205.451 134.506 202.784 146.182 197.997 156.688V172.623H234.309C241.179 157.323 245 140.358 245 122.5C245 118.359 244.794 114.265 244.393 110.229Z" fill="#FABD84"/>
<path fill-rule="evenodd" clip-rule="evenodd" d="M223.162 92.343C213.399 92.343 205.484 100.258 205.484 110.021V112.517C205.484 122.28 213.399 130.195 223.162 130.195C232.926 130.195 240.84 122.28 240.84 112.517V110.021C240.84 100.258 232.926 92.343 223.162 92.343Z" fill="#FCC9B3"/>
<path fill-rule="evenodd" clip-rule="evenodd" d="M239.372 159.312C223.743 208.98 177.328 245 122.5 245C117.502 245 112.574 244.701 107.733 244.119V204.197C112.434 205.021 117.271 205.451 122.208 205.451C154.849 205.451 183.103 186.664 196.744 159.312H239.372Z" fill="#7FC78C"/>
<path fill-rule="evenodd" clip-rule="evenodd" d="M93.0671 241.441C97.7023 229.845 100.246 217.226 100.246 204.028C100.246 203.524 100.242 203.022 100.235 202.52C84.6304 198.261 70.8525 189.575 60.334 177.896C63.8137 185.998 65.7216 194.84 65.7216 204.028C65.7216 212.585 64.0664 220.843 61.0277 228.483C70.9133 234.229 81.6765 238.632 93.0671 241.441ZM0.717392 135.835C19.0759 137.281 35.2003 145.402 46.7975 157.506C41.7726 146.79 38.9648 134.827 38.9648 122.208C38.9648 118.36 39.2258 114.574 39.7311 110.865C28.1035 105.51 15.3115 102.169 1.82724 101.303C0.626175 108.188 0 115.271 0 122.5C0 127.006 0.24327 131.455 0.717392 135.835Z" fill="#459789"/>
<path fill-rule="evenodd" clip-rule="evenodd" d="M8.41755 167.216H36.1885V96.0865H2.85487C0.985365 104.593 0 113.432 0 122.5C0 138.28 2.98364 153.363 8.41755 167.216Z" fill="#9EC7D0"/>
<path fill-rule="evenodd" clip-rule="evenodd" d="M7.29468 164.239C23.5496 152.36 34.1087 133.152 34.1087 111.477C34.1087 93.1671 26.5734 76.6171 14.4347 64.759C21.8076 50.9891 31.7353 38.7925 43.5844 28.8024C53.2232 37.5263 61.3293 47.9122 67.4508 59.5081C49.9928 74.7671 38.9649 97.1996 38.9649 122.208C38.9649 143.03 46.6096 162.066 59.2454 176.663C51.5309 187.347 41.9696 196.611 31.0294 203.984C20.7705 192.476 12.6508 179.02 7.29468 164.239Z" fill="#51797D"/>
<path fill-rule="evenodd" clip-rule="evenodd" d="M126.452 0.0625289C125.14 0.0209476 123.822 0 122.5 0C77.0291 0 37.3446 24.7747 16.2085 61.562H65.1857C80.0826 47.5499 100.143 38.9648 122.208 38.9648C123.631 38.9648 125.046 39.0005 126.452 39.0711V0.0625289Z" fill="#978AA4"/>
<path fill-rule="evenodd" clip-rule="evenodd" d="M113.081 244.643C113.211 230.437 116.917 217.084 123.343 205.443C122.965 205.448 122.587 205.451 122.208 205.451C113.282 205.451 104.685 204.046 96.6246 201.446C91.365 213.305 88.1677 226.283 87.488 239.924C95.6919 242.366 104.256 243.972 113.081 244.643ZM242.485 147.317C230.707 141.716 217.761 138.174 204.113 137.155C202.468 146.228 199.352 154.789 195.022 162.582C195.32 162.579 195.618 162.577 195.917 162.577C209.864 162.577 223.006 166.024 234.538 172.112C238.025 164.248 240.709 155.948 242.485 147.317Z" fill="#6D995C"/>
<path fill-rule="evenodd" clip-rule="evenodd" d="M243.373 102.485C240.066 94.3415 232.077 88.5994 222.746 88.5994C213.961 88.5994 206.365 93.6899 202.747 101.082C204.511 107.828 205.451 114.908 205.451 122.208C205.451 123.078 205.437 123.945 205.411 124.809C209.49 129.869 215.74 133.107 222.746 133.107C233.857 133.107 243.066 124.965 244.731 114.322C244.468 110.32 244.012 106.372 243.373 102.485ZM236.681 110.853C236.681 118.549 230.442 124.788 222.746 124.788C215.05 124.788 208.812 118.549 208.812 110.853C208.812 103.157 215.05 96.9186 222.746 96.9186C230.442 96.9186 236.681 103.157 236.681 110.853Z" fill="#F47F5F"/>
<path fill-rule="evenodd" clip-rule="evenodd" d="M232.122 67.7661C231.287 67.7896 230.45 67.8014 229.609 67.8014C188.719 67.8014 154.359 39.8376 144.611 1.9903C183.023 8.99251 215.184 33.9088 232.122 67.7661Z" fill="#CE6564"/>
<path fill-rule="evenodd" clip-rule="evenodd" d="M17.0822 60.0659C58.961 53.4344 95.7227 31.4254 121.401 0.00482571C121.767 0.0016108 122.133 0 122.5 0C139.424 0 155.546 3.43186 170.209 9.63762C162.672 21.2403 154.042 32.0676 144.466 41.9737C137.381 40.0127 129.917 38.9648 122.208 38.9648C83.5067 38.9648 50.9741 65.3753 41.6497 101.156C28.5214 104.377 14.9176 106.388 0.963379 107.063C3.10026 90.0682 8.71883 74.1568 17.0822 60.0659Z" fill="#845578"/>
<path d="M327.544 156.96C319.16 156.96 312.664 154.784 308.056 150.432C303.512 146.016 301.112 139.392 300.856 130.56C300.792 128.64 300.76 125.92 300.76 122.4C300.76 118.88 300.792 116.192 300.856 114.336C301.112 105.696 303.608 99.136 308.344 94.656C313.08 90.112 319.48 87.84 327.544 87.84C335.544 87.84 341.912 90.112 346.648 94.656C351.384 99.136 353.88 105.696 354.136 114.336C354.264 118.048 354.328 120.736 354.328 122.4C354.328 124 354.264 126.72 354.136 130.56C353.88 139.392 351.448 146.016 346.84 150.432C342.296 154.784 335.864 156.96 327.544 156.96ZM327.544 148.8C332.6 148.8 336.632 147.264 339.64 144.192C342.648 141.12 344.28 136.416 344.536 130.08C344.664 126.24 344.728 123.68 344.728 122.4C344.728 120.992 344.664 118.432 344.536 114.72C344.28 108.384 342.616 103.68 339.544 100.608C336.536 97.536 332.536 96 327.544 96C322.488 96 318.424 97.536 315.352 100.608C312.344 103.68 310.712 108.384 310.456 114.72C310.392 116.576 310.36 119.136 310.36 122.4C310.36 125.6 310.392 128.16 310.456 130.08C310.712 136.416 312.344 141.12 315.352 144.192C318.424 147.264 322.488 148.8 327.544 148.8ZM369.377 174.24C368.737 174.24 368.193 174.016 367.745 173.568C367.361 173.184 367.169 172.672 367.169 172.032V108.288C367.169 107.648 367.361 107.136 367.745 106.752C368.193 106.304 368.737 106.08 369.377 106.08H373.793C374.433 106.08 374.945 106.304 375.329 106.752C375.777 107.136 376.001 107.648 376.001 108.288V112.512C379.585 107.584 384.833 105.12 391.745 105.12C398.465 105.12 403.489 107.232 406.817 111.456C410.209 115.68 412.033 121.12 412.289 127.776C412.353 128.48 412.385 129.568 412.385 131.04C412.385 132.512 412.353 133.6 412.289 134.304C412.033 140.896 410.209 146.336 406.817 150.624C403.425 154.848 398.401 156.96 391.745 156.96C385.089 156.96 379.905 154.56 376.193 149.76V172.032C376.193 172.672 376.001 173.184 375.617 173.568C375.233 174.016 374.721 174.24 374.081 174.24H369.377ZM389.729 149.184C394.273 149.184 397.569 147.776 399.617 144.96C401.729 142.144 402.881 138.432 403.073 133.824C403.137 133.184 403.169 132.256 403.169 131.04C403.169 118.944 398.689 112.896 389.729 112.896C385.313 112.896 381.985 114.368 379.745 117.312C377.569 120.192 376.385 123.648 376.193 127.68L376.097 131.328L376.193 135.072C376.321 138.848 377.537 142.144 379.841 144.96C382.145 147.776 385.441 149.184 389.729 149.184ZM444.228 156.96C437.636 156.96 432.356 154.944 428.388 150.912C424.484 146.816 422.34 141.248 421.956 134.208L421.86 130.944L421.956 127.776C422.404 120.864 424.58 115.36 428.484 111.264C432.452 107.168 437.668 105.12 444.132 105.12C451.236 105.12 456.74 107.392 460.644 111.936C464.548 116.416 466.5 122.496 466.5 130.176V131.808C466.5 132.448 466.276 132.992 465.828 133.44C465.444 133.824 464.932 134.016 464.292 134.016H431.076V134.88C431.268 139.04 432.516 142.592 434.82 145.536C437.188 148.416 440.292 149.856 444.132 149.856C447.076 149.856 449.476 149.28 451.332 148.128C453.252 146.912 454.66 145.664 455.556 144.384C456.132 143.616 456.548 143.168 456.804 143.04C457.124 142.848 457.668 142.752 458.436 142.752H463.14C463.716 142.752 464.196 142.912 464.58 143.232C464.964 143.552 465.156 144 465.156 144.576C465.156 145.984 464.26 147.68 462.468 149.664C460.74 151.648 458.276 153.376 455.076 154.848C451.94 156.256 448.324 156.96 444.228 156.96ZM457.38 127.392V127.104C457.38 122.688 456.164 119.104 453.732 116.352C451.364 113.536 448.164 112.128 444.132 112.128C440.1 112.128 436.9 113.536 434.532 116.352C432.228 119.104 431.076 122.688 431.076 127.104V127.392H457.38ZM480.187 156C479.547 156 479.003 155.808 478.555 155.424C478.171 154.976 477.979 154.432 477.979 153.792V108.288C477.979 107.648 478.171 107.136 478.555 106.752C479.003 106.304 479.547 106.08 480.187 106.08H484.699C485.339 106.08 485.851 106.304 486.235 106.752C486.683 107.136 486.907 107.648 486.907 108.288V112.512C488.763 110.144 490.939 108.32 493.435 107.04C495.995 105.76 499.163 105.12 502.939 105.12C509.083 105.12 513.851 107.104 517.243 111.072C520.699 114.976 522.427 120.192 522.427 126.72V153.792C522.427 154.432 522.203 154.976 521.755 155.424C521.371 155.808 520.859 156 520.219 156H515.419C514.779 156 514.235 155.808 513.787 155.424C513.403 154.976 513.211 154.432 513.211 153.792V127.2C513.211 122.656 512.091 119.136 509.851 116.64C507.675 114.144 504.507 112.896 500.347 112.896C496.315 112.896 493.115 114.176 490.747 116.736C488.379 119.232 487.195 122.72 487.195 127.2V153.792C487.195 154.432 486.971 154.976 486.523 155.424C486.139 155.808 485.627 156 484.987 156H480.187ZM563.185 156C562.545 156 562.001 155.808 561.553 155.424C561.169 154.976 560.977 154.432 560.977 153.792V91.104C560.977 90.4 561.169 89.856 561.553 89.472C562.001 89.024 562.545 88.8 563.185 88.8H587.569C594.801 88.8 600.497 90.56 604.657 94.08C608.817 97.6 610.897 102.688 610.897 109.344C610.897 116 608.817 121.088 604.657 124.608C600.561 128.064 594.865 129.792 587.569 129.792H570.577V153.792C570.577 154.432 570.353 154.976 569.905 155.424C569.457 155.808 568.913 156 568.273 156H563.185ZM587.089 121.728C591.761 121.728 595.281 120.672 597.649 118.56C600.081 116.448 601.297 113.376 601.297 109.344C601.297 105.312 600.113 102.24 597.745 100.128C595.377 97.952 591.825 96.864 587.089 96.864H570.481V121.728H587.089ZM634.305 156.96C631.169 156.96 628.257 156.32 625.569 155.04C622.881 153.76 620.737 152.032 619.137 149.856C617.601 147.616 616.833 145.152 616.833 142.464C616.833 138.24 618.561 134.784 622.017 132.096C625.537 129.344 630.273 127.552 636.225 126.72L650.529 124.704V121.92C650.529 115.392 646.785 112.128 639.297 112.128C636.481 112.128 634.177 112.736 632.385 113.952C630.593 115.104 629.249 116.48 628.353 118.08C628.161 118.656 627.905 119.072 627.585 119.328C627.329 119.584 626.945 119.712 626.433 119.712H622.305C621.729 119.712 621.217 119.52 620.769 119.136C620.385 118.688 620.193 118.176 620.193 117.6C620.257 116.064 620.961 114.336 622.305 112.416C623.713 110.432 625.857 108.736 628.737 107.328C631.617 105.856 635.169 105.12 639.393 105.12C646.561 105.12 651.713 106.816 654.849 110.208C657.985 113.536 659.553 117.696 659.553 122.688V153.792C659.553 154.432 659.329 154.976 658.881 155.424C658.497 155.808 657.985 156 657.345 156H652.929C652.289 156 651.745 155.808 651.297 155.424C650.913 154.976 650.721 154.432 650.721 153.792V149.664C649.313 151.712 647.265 153.44 644.577 154.848C641.889 156.256 638.465 156.96 634.305 156.96ZM636.321 149.76C640.481 149.76 643.873 148.416 646.497 145.728C649.185 142.976 650.529 139.04 650.529 133.92V131.232L639.393 132.864C634.849 133.504 631.425 134.592 629.121 136.128C626.817 137.6 625.665 139.488 625.665 141.792C625.665 144.352 626.721 146.336 628.833 147.744C630.945 149.088 633.441 149.76 636.321 149.76ZM681.059 174.24C680.547 174.24 680.099 174.048 679.715 173.664C679.331 173.28 679.139 172.832 679.139 172.32C679.139 171.872 679.299 171.296 679.619 170.592L687.011 153.024L668.675 109.728C668.355 108.896 668.195 108.352 668.195 108.096C668.195 107.52 668.387 107.04 668.771 106.656C669.155 106.272 669.635 106.08 670.211 106.08H674.915C675.939 106.08 676.707 106.624 677.219 107.712L691.811 142.656L706.787 107.712C707.299 106.624 708.099 106.08 709.187 106.08H713.699C714.275 106.08 714.755 106.272 715.139 106.656C715.523 107.04 715.715 107.488 715.715 108C715.715 108.192 715.555 108.768 715.235 109.728L687.971 172.608C687.459 173.696 686.659 174.24 685.571 174.24H681.059ZM727.5 156C726.86 156 726.316 155.808 725.868 155.424C725.484 154.976 725.292 154.432 725.292 153.792V108.288C725.292 107.648 725.484 107.136 725.868 106.752C726.316 106.304 726.86 106.08 727.5 106.08H731.82C732.46 106.08 732.972 106.304 733.356 106.752C733.804 107.136 734.028 107.648 734.028 108.288V111.648C737.356 107.296 741.996 105.12 747.948 105.12C755.052 105.12 760.076 108.064 763.02 113.952C764.556 111.264 766.732 109.12 769.548 107.52C772.364 105.92 775.532 105.12 779.052 105.12C784.3 105.12 788.588 106.912 791.916 110.496C795.244 114.08 796.908 119.264 796.908 126.048V153.792C796.908 154.432 796.684 154.976 796.236 155.424C795.852 155.808 795.34 156 794.7 156H790.188C789.548 156 789.004 155.808 788.556 155.424C788.172 154.976 787.98 154.432 787.98 153.792V126.912C787.98 121.92 786.924 118.336 784.812 116.16C782.764 113.984 780.044 112.896 776.652 112.896C773.644 112.896 771.052 114.016 768.875 116.256C766.7 118.432 765.612 121.984 765.612 126.912V153.792C765.612 154.432 765.388 154.976 764.94 155.424C764.556 155.808 764.044 156 763.404 156H758.892C758.252 156 757.708 155.808 757.26 155.424C756.876 154.976 756.684 154.432 756.684 153.792V126.912C756.684 121.92 755.596 118.336 753.42 116.16C751.308 113.984 748.62 112.896 745.356 112.896C742.348 112.896 739.756 114.016 737.58 116.256C735.404 118.432 734.316 121.952 734.316 126.816V153.792C734.316 154.432 734.092 154.976 733.644 155.424C733.26 155.808 732.748 156 732.108 156H727.5ZM830.572 156.96C823.98 156.96 818.7 154.944 814.732 150.912C810.828 146.816 808.684 141.248 808.3 134.208L808.204 130.944L808.3 127.776C808.748 120.864 810.924 115.36 814.828 111.264C818.796 107.168 824.012 105.12 830.476 105.12C837.58 105.12 843.084 107.392 846.988 111.936C850.892 116.416 852.844 122.496 852.844 130.176V131.808C852.844 132.448 852.62 132.992 852.172 133.44C851.788 133.824 851.276 134.016 850.636 134.016H817.42V134.88C817.612 139.04 818.86 142.592 821.164 145.536C823.532 148.416 826.636 149.856 830.476 149.856C833.42 149.856 835.82 149.28 837.676 148.128C839.596 146.912 841.004 145.664 841.9 144.384C842.476 143.616 842.892 143.168 843.148 143.04C843.468 142.848 844.012 142.752 844.78 142.752H849.484C850.06 142.752 850.54 142.912 850.924 143.232C851.308 143.552 851.5 144 851.5 144.576C851.5 145.984 850.604 147.68 848.812 149.664C847.084 151.648 844.62 153.376 841.42 154.848C838.284 156.256 834.668 156.96 830.572 156.96ZM843.724 127.392V127.104C843.724 122.688 842.508 119.104 840.076 116.352C837.708 113.536 834.508 112.128 830.476 112.128C826.444 112.128 823.244 113.536 820.876 116.352C818.572 119.104 817.42 122.688 817.42 127.104V127.392H843.724ZM866.531 156C865.891 156 865.347 155.808 864.899 155.424C864.515 154.976 864.323 154.432 864.323 153.792V108.288C864.323 107.648 864.515 107.136 864.899 106.752C865.347 106.304 865.891 106.08 866.531 106.08H871.043C871.683 106.08 872.195 106.304 872.579 106.752C873.027 107.136 873.251 107.648 873.251 108.288V112.512C875.107 110.144 877.283 108.32 879.779 107.04C882.339 105.76 885.507 105.12 889.283 105.12C895.427 105.12 900.195 107.104 903.587 111.072C907.043 114.976 908.771 120.192 908.771 126.72V153.792C908.771 154.432 908.547 154.976 908.099 155.424C907.715 155.808 907.203 156 906.563 156H901.763C901.123 156 900.579 155.808 900.131 155.424C899.747 154.976 899.555 154.432 899.555 153.792V127.2C899.555 122.656 898.435 119.136 896.195 116.64C894.019 114.144 890.851 112.896 886.691 112.896C882.659 112.896 879.459 114.176 877.091 116.736C874.723 119.232 873.539 122.72 873.539 127.2V153.792C873.539 154.432 873.315 154.976 872.867 155.424C872.483 155.808 871.971 156 871.331 156H866.531ZM941.373 156C931.261 156 926.205 150.368 926.205 139.104V113.76H918.717C918.077 113.76 917.533 113.568 917.085 113.184C916.701 112.736 916.509 112.192 916.509 111.552V108.288C916.509 107.648 916.701 107.136 917.085 106.752C917.533 106.304 918.077 106.08 918.717 106.08H926.205V90.048C926.205 89.408 926.397 88.896 926.781 88.512C927.229 88.064 927.773 87.84 928.413 87.84H932.925C933.565 87.84 934.077 88.064 934.461 88.512C934.909 88.896 935.133 89.408 935.133 90.048V106.08H947.037C947.677 106.08 948.189 106.304 948.573 106.752C949.021 107.136 949.245 107.648 949.245 108.288V111.552C949.245 112.192 949.021 112.736 948.573 113.184C948.189 113.568 947.677 113.76 947.037 113.76H935.133V138.432C935.133 141.632 935.677 144.064 936.765 145.728C937.853 147.328 939.645 148.128 942.141 148.128H947.997C948.637 148.128 949.149 148.352 949.533 148.8C949.981 149.184 950.205 149.696 950.205 150.336V153.792C950.205 154.432 949.981 154.976 949.533 155.424C949.149 155.808 948.637 156 947.997 156H941.373ZM976.665 156.96C972.185 156.96 968.409 156.256 965.337 154.848C962.329 153.376 960.057 151.712 958.521 149.856C957.049 148 956.313 146.464 956.313 145.248C956.313 144.608 956.537 144.128 956.985 143.808C957.497 143.424 958.009 143.232 958.521 143.232H962.841C963.481 143.232 964.057 143.552 964.569 144.192C966.105 145.984 967.769 147.392 969.561 148.416C971.353 149.44 973.753 149.952 976.761 149.952C980.089 149.952 982.777 149.312 984.825 148.032C986.937 146.688 987.993 144.864 987.993 142.56C987.993 141.024 987.545 139.776 986.649 138.816C985.817 137.792 984.345 136.928 982.233 136.224C980.185 135.456 977.113 134.624 973.017 133.728C967.449 132.512 963.481 130.752 961.113 128.448C958.809 126.144 957.657 123.168 957.657 119.52C957.657 117.088 958.361 114.784 959.769 112.608C961.241 110.368 963.353 108.576 966.105 107.232C968.921 105.824 972.281 105.12 976.185 105.12C980.281 105.12 983.769 105.792 986.649 107.136C989.529 108.48 991.673 110.08 993.081 111.936C994.553 113.728 995.289 115.232 995.289 116.448C995.289 117.024 995.065 117.504 994.617 117.888C994.233 118.272 993.753 118.464 993.177 118.464H989.145C988.377 118.464 987.737 118.144 987.225 117.504C986.201 116.288 985.305 115.36 984.537 114.72C983.833 114.016 982.777 113.408 981.369 112.896C980.025 112.384 978.297 112.128 976.185 112.128C973.113 112.128 970.745 112.8 969.081 114.144C967.417 115.424 966.585 117.12 966.585 119.232C966.585 120.576 966.937 121.728 967.641 122.688C968.345 123.584 969.689 124.416 971.673 125.184C973.721 125.952 976.665 126.752 980.505 127.584C986.585 128.864 990.873 130.72 993.369 133.152C995.929 135.52 997.209 138.56 997.209 142.272C997.209 145.024 996.409 147.52 994.809 149.76C993.209 152 990.841 153.76 987.705 155.04C984.633 156.32 980.953 156.96 976.665 156.96Z" fill="black"/>
</svg>
